<svg width="24" height="24" viewBox="0 0 24 24" fill="none" xmlns="http://www.w3.org/2000/svg">
<path d="M3.25 10.75C2.5625 10.75 1.97375 10.505 1.48375 10.015C0.994583 9.52583 0.75 8.9375 0.75 8.25V3.25C0.75 2.5625 0.994583 1.97375 1.48375 1.48375C1.97375 0.994583 2.5625 0.75 3.25 0.75H8.25C8.9375 0.75 9.52625 0.994583 10.0163 1.48375C10.5054 1.97375 10.75 2.5625 10.75 3.25V8.25C10.75 8.9375 10.5054 9.52583 10.0163 10.015C9.52625 10.505 8.9375 10.75 8.25 10.75H3.25ZM3.25 23.25C2.5625 23.25 1.97375 23.0054 1.48375 22.5163C0.994583 22.0263 0.75 21.4375 0.75 20.75V15.75C0.75 15.0625 0.994583 14.4738 1.48375 13.9838C1.97375 13.4946 2.5625 13.25 3.25 13.25H8.25C8.9375 13.25 9.52625 13.4946 10.0163 13.9838C10.5054 14.4738 10.75 15.0625 10.75 15.75V20.75C10.75 21.4375 10.5054 22.0263 10.0163 22.5163C9.52625 23.0054 8.9375 23.25 8.25 23.25H3.25ZM15.75 10.75C15.0625 10.75 14.4742 10.505 13.985 10.015C13.495 9.52583 13.25 8.9375 13.25 8.25V3.25C13.25 2.5625 13.495 1.97375 13.985 1.48375C14.4742 0.994583 15.0625 0.75 15.75 0.75H20.75C21.4375 0.75 22.0263 0.994583 22.5163 1.48375C23.0054 1.97375 23.25 2.5625 23.25 3.25V8.25C23.25 8.9375 23.0054 9.52583 22.5163 10.015C22.0263 10.505 21.4375 10.75 20.75 10.75H15.75ZM15.75 23.25C15.0625 23.25 14.4742 23.0054 13.985 22.5163C13.495 22.0263 13.25 21.4375 13.25 20.75V15.75C13.25 15.0625 13.495 14.4738 13.985 13.9838C14.4742 13.4946 15.0625 13.25 15.75 13.25H20.75C21.4375 13.25 22.0263 13.4946 22.5163 13.9838C23.0054 14.4738 23.25 15.0625 23.25 15.75V20.75C23.25 21.4375 23.0054 22.0263 22.5163 22.5163C22.0263 23.0054 21.4375 23.25 20.75 23.25H15.75Z" fill="#696969"/>
</svg>
