<svg width="390" height="527" viewBox="0 0 390 527" fill="none" xmlns="http://www.w3.org/2000/svg">
<g clip-path="url(#clip0_987_5033)">
<rect width="390" height="525.833" transform="translate(0 0.666016)" fill="#E7EAF3"/>
<g clip-path="url(#clip1_987_5033)">
<path d="M430.757 59.9883H-42.4688V533.214H430.757V59.9883Z" fill="#E7EAF3"/>
<path fill-rule="evenodd" clip-rule="evenodd" d="M26.4717 149.111L370.213 159.913L356.464 363.213L30.4165 359.726L26.4717 149.111Z" fill="#DADEE9"/>
<path fill-rule="evenodd" clip-rule="evenodd" d="M202.53 464.916C302.997 464.916 384.939 457.583 384.939 448.594C384.939 439.606 302.997 432.273 202.53 432.273C102.064 432.273 20.1211 439.605 20.1211 448.594C20.1211 457.583 102.064 464.916 202.53 464.916Z" fill="#D6DAE6"/>
<path fill-rule="evenodd" clip-rule="evenodd" d="M85.9257 277.227L74.9961 375.942C74.9961 375.942 81.8276 378.676 82.8526 375.259C83.8776 371.844 89.172 278.252 89.172 278.252L85.9257 277.227Z" fill="#96C042"/>
<path fill-rule="evenodd" clip-rule="evenodd" d="M81.1115 261.383C78.4236 255.858 80.0288 243.837 93.9823 248.379C93.3444 251.92 92.8002 256.785 93.9028 259.59C95.3159 263.188 96.5387 255.999 99.927 250.966C100.213 251.117 100.501 251.273 100.795 251.436C115.246 259.438 122.679 280.348 125.143 298.523C122.073 299.968 119.141 301.959 120.203 303.996C121.038 305.591 123.394 306.061 125.898 306.053C126.18 310.443 126.153 314.507 125.851 317.977C125.851 317.977 98.107 317.281 77.0939 309.133C78.2324 305.677 79.5688 300.454 76.9074 301.263C74.4892 301.999 72.6541 304.741 71.6007 306.741C62.8394 302.457 56.058 296.549 54.3809 288.403C48.6293 260.473 81.1115 261.383 81.1115 261.383ZM83.5695 299.299C82.9713 304.082 90.1445 296.822 87.7537 295.03C85.363 293.237 83.5695 299.299 83.5695 299.299Z" fill="#96C042"/>
<path fill-rule="evenodd" clip-rule="evenodd" d="M47.6252 260.164C47.6252 260.164 7.08201 235.679 5.71439 265.833C5.61218 268.075 5.68221 270.342 5.89043 272.619C11.7423 270.521 20.7563 267.929 22.264 271.217C23.9875 274.977 13.2396 281.25 8.02184 284.027C12.0149 298.618 20.2689 312.473 26.2628 321.26C27.5519 320.232 28.9223 319.395 29.7987 319.59C30.996 319.856 29.7864 322.316 28.4018 324.323C31.3112 328.393 33.2987 330.782 33.2987 330.782C33.2987 330.782 54.0251 324.612 67.8641 308.63C64.0423 305.59 57.5487 299.793 59.0498 296.567C60.5783 293.279 68.8313 298.342 73.1935 301.33C77.3144 294.519 80.026 286.355 80.0099 276.657C80.007 274.854 79.9361 273.186 79.8092 271.632C76.9301 272.297 73.8721 272.62 73.3365 271.18C72.5765 269.139 76.4787 267.164 78.9953 266.026C73.5153 241.173 47.6252 260.164 47.6252 260.164ZM21.1699 282.522C21.1699 282.522 25.9003 278.656 27.7156 280.396C29.5299 282.135 19.0215 286.839 21.1699 282.522Z" fill="white"/>
<path fill-rule="evenodd" clip-rule="evenodd" d="M53.3091 269.713L64.9221 379.018H58.0906L49.5508 269.371L53.3091 269.713Z" fill="#AEC755"/>
<path fill-rule="evenodd" clip-rule="evenodd" d="M44.999 261.036C44.999 261.036 3.3457 236.314 3.3457 266.76C3.3457 269.023 3.51796 271.312 3.83029 273.61C9.58566 271.493 18.4842 268.876 20.1395 272.196C22.0334 275.993 11.5713 282.326 6.47846 285.129C11.1341 299.861 20.0165 313.85 26.4069 322.721C27.6477 321.682 28.9813 320.838 29.8672 321.036C31.0758 321.305 29.9779 323.788 28.685 325.814C31.779 329.923 33.8744 332.335 33.8744 332.335C33.8744 332.335 54.3216 326.106 67.4347 309.969C63.4766 306.9 56.7189 301.047 58.0733 297.789C59.4532 294.471 67.9363 299.583 72.4338 302.6C76.2461 295.723 78.5876 287.479 78.1315 277.689C78.0463 275.869 77.8996 274.184 77.7027 272.615C74.853 273.286 71.8101 273.613 71.2082 272.158C70.3564 270.097 74.1687 268.104 76.6332 266.954C70.0279 241.861 44.999 261.036 44.999 261.036ZM19.5575 283.609C19.5575 283.609 24.1127 279.705 26.0056 281.462C27.9014 283.219 17.6059 287.968 19.5575 283.609Z" fill="#BDD95B"/>
<path fill-rule="evenodd" clip-rule="evenodd" d="M75.941 271.442C75.3713 271.288 74.9548 271.01 74.7703 270.563C74.3633 269.578 75.022 268.609 76.0887 267.739C75.8966 259.98 72.1022 251.722 54.1357 259.57C54.1357 259.57 73.2635 250.518 74.8006 277.674C74.8006 277.674 75.5956 274.944 75.941 271.442Z" fill="#D6EB86"/>
<path fill-rule="evenodd" clip-rule="evenodd" d="M4.45703 262.354C4.45703 262.354 8.77474 256.282 21.8613 254.259C21.8613 254.259 6.61589 250.481 4.45703 262.354Z" fill="#D6EB86"/>
<path fill-rule="evenodd" clip-rule="evenodd" d="M50.2576 307.501C51.0034 307.591 51.8685 308.267 52.1884 309.01C52.5092 309.752 52.1638 310.28 51.4189 310.189C50.6722 310.098 49.8081 309.422 49.4882 308.68C49.1654 307.937 49.5109 307.409 50.2576 307.501Z" fill="#D6EB86"/>
<path fill-rule="evenodd" clip-rule="evenodd" d="M46.4162 291.171C47.481 290.554 49.636 291.723 51.2299 293.783C52.8246 295.841 53.2534 298.01 52.1877 298.627C51.1229 299.243 48.9678 298.074 47.374 296.015C45.7802 293.956 45.3514 291.786 46.4162 291.171Z" fill="#D6EB86"/>
<path fill-rule="evenodd" clip-rule="evenodd" d="M28.2477 298.347C27.7442 298.056 26.7258 298.609 25.9724 299.581C25.2209 300.554 25.0175 301.579 25.52 301.87C26.0235 302.161 27.0419 301.609 27.7953 300.636C28.5487 299.663 28.7503 298.638 28.2477 298.347Z" fill="#D6EB86"/>
<path fill-rule="evenodd" clip-rule="evenodd" d="M103.142 379.252L94.5373 447.413H34.3714L25.913 378.439C25.7455 377.077 26.1335 375.839 27.0497 374.816C27.9649 373.794 29.1527 373.272 30.525 373.287L98.6374 374.083C99.9936 374.1 101.155 374.637 102.047 375.658C102.938 376.682 103.311 377.907 103.142 379.252Z" fill="#D6DAE6"/>
<path fill-rule="evenodd" clip-rule="evenodd" d="M41.9165 368.274C43.5671 368.274 45.0833 368.725 46.2739 369.474C49.6736 366.19 56.0971 363.977 63.4605 363.977C73.8024 363.977 82.2873 368.343 83.1515 373.905L34.9932 373.342C35.2156 370.514 38.23 368.274 41.9165 368.274ZM91.0837 370.678C93.4564 370.678 95.3796 372.162 95.3796 373.994L95.3787 374.049L86.7877 373.947C86.819 372.138 88.7308 370.678 91.0837 370.678Z" fill="#96C042"/>
<path fill-rule="evenodd" clip-rule="evenodd" d="M47.2649 364.59L48.094 361.69C48.6117 359.877 47.5545 357.973 45.742 357.455L42.8431 356.625C42.5175 356.532 42.1777 356.722 42.084 357.047L41.2549 359.946C40.7363 361.758 41.7944 363.663 43.605 364.182L46.5049 365.011C46.8324 365.104 47.1712 364.915 47.2649 364.59Z" fill="#96C042"/>
<path fill-rule="evenodd" clip-rule="evenodd" d="M280.081 302.864H272.544H270.223H260.502H258.182H250.644V299.347H258.182V284.489H236.819V279.579L258.182 279.442V272.463H260.502V279.428L270.223 279.364V274.182H272.544V279.349L293.906 279.212V284.49H272.544V299.348H280.081V302.864ZM260.502 284.489V299.346H270.223V284.489H260.502Z" fill="#3A3C6C"/>
<path fill-rule="evenodd" clip-rule="evenodd" d="M257.425 170.559H281.286C285.077 170.559 288.176 173.657 288.176 177.448C288.176 181.238 285.077 184.337 281.286 184.337H257.425C253.635 184.337 250.536 181.238 250.536 177.448C250.536 173.657 253.635 170.559 257.425 170.559Z" fill="#232446"/>
<path fill-rule="evenodd" clip-rule="evenodd" d="M183.534 176.867H347.194C349.691 176.867 351.732 178.909 351.732 181.405V277.853C351.732 280.349 349.691 282.391 347.194 282.391H183.534C181.038 282.391 178.996 280.349 178.996 277.853V181.405C178.995 178.909 181.038 176.867 183.534 176.867Z" fill="white"/>
<path fill-rule="evenodd" clip-rule="evenodd" d="M247.6 176.867H285.237L285.243 176.897C285.826 180.989 282.953 184.338 278.861 184.338H256.104C252.012 184.338 248.186 180.99 247.602 176.897L247.6 176.867Z" fill="#E4E4E4"/>
<path fill-rule="evenodd" clip-rule="evenodd" d="M253.433 169.455H277.294C281.084 169.455 284.183 172.554 284.183 176.344C284.183 180.135 281.085 183.234 277.294 183.234H253.433C249.644 183.234 246.544 180.135 246.544 176.344C246.544 172.554 249.644 169.455 253.433 169.455Z" fill="#3A3C6C"/>
<path fill-rule="evenodd" clip-rule="evenodd" d="M253.851 180.336C256.049 180.336 257.843 178.543 257.843 176.345C257.843 174.146 256.049 172.354 253.851 172.354C251.652 172.354 249.859 174.146 249.859 176.345C249.859 178.543 251.652 180.336 253.851 180.336Z" fill="#232446"/>
<path fill-rule="evenodd" clip-rule="evenodd" d="M261.915 178.611C263.163 178.611 264.181 177.592 264.181 176.345C264.181 175.097 263.163 174.078 261.915 174.078C260.668 174.078 259.649 175.097 259.649 176.345C259.649 177.592 260.668 178.611 261.915 178.611Z" fill="#232446"/>
<path fill-rule="evenodd" clip-rule="evenodd" d="M278.055 174.07C278.704 174.07 279.233 173.542 279.233 172.894C279.233 172.246 278.704 171.717 278.055 171.717C277.408 171.717 276.879 172.246 276.879 172.894C276.879 173.542 277.408 174.07 278.055 174.07Z" fill="white"/>
<path fill-rule="evenodd" clip-rule="evenodd" d="M253.85 177.56C254.52 177.56 255.065 177.015 255.065 176.345C255.065 175.675 254.52 175.129 253.85 175.129C253.18 175.129 252.635 175.674 252.635 176.345C252.634 177.014 253.18 177.56 253.85 177.56Z" fill="#CF4970"/>
<path fill-rule="evenodd" clip-rule="evenodd" d="M239.126 190.484H270.64C271.301 190.484 271.84 191.024 271.84 191.684V211.702C271.84 212.363 271.301 212.902 270.64 212.902H239.126C238.464 212.902 237.926 212.363 237.926 211.702V191.684C237.926 191.024 238.465 190.484 239.126 190.484Z" fill="#CF4970"/>
<path fill-rule="evenodd" clip-rule="evenodd" d="M260.318 203.219C260.318 203.219 260.038 207.489 260.073 210.64H253.808V206.649L260.318 203.219Z" fill="#DC8C8C"/>
<path fill-rule="evenodd" clip-rule="evenodd" d="M260.388 200.739L261.154 196.501C261.154 196.501 261.19 195.28 259.826 195.74C259.826 195.74 262.226 193.328 257.883 192.845C255.567 192.076 252.028 191.852 250.346 194.044C250.576 191.996 247.737 192.629 246.511 194.642C246.638 193.868 246.98 193.072 247.668 192.334C247.668 192.334 244.586 193.857 245.866 196.718C245.78 199.187 247.136 201.215 252.34 201.457C254.102 201.539 259.932 203.271 260.388 200.739ZM259.826 195.74C260.317 194.634 259.762 193.759 258.699 193.191C259.857 193.585 260.806 194.331 259.826 195.74Z" fill="#3A3C6C"/>
<path fill-rule="evenodd" clip-rule="evenodd" d="M248.862 192.896C249.18 192.83 249.441 192.899 249.441 193.051C249.441 193.202 249.18 193.378 248.862 193.444C248.543 193.509 248.283 193.439 248.283 193.288C248.283 193.137 248.542 192.961 248.862 192.896Z" fill="#60629A"/>
<path fill-rule="evenodd" clip-rule="evenodd" d="M253.752 192.501C254.624 192.415 255.331 192.506 255.331 192.702C255.331 192.899 254.624 193.128 253.752 193.213C252.88 193.298 252.172 193.208 252.172 193.012C252.172 192.816 252.88 192.587 253.752 192.501Z" fill="#60629A"/>
<path fill-rule="evenodd" clip-rule="evenodd" d="M248.757 198.926C248.757 198.926 248.12 207.635 252.582 209.761C252.582 209.761 259.45 209.973 259.875 203.6C262.75 203.3 261.723 198.846 259.662 200.963L258.946 199.023C258.946 199.023 253.148 199.953 248.757 198.926Z" fill="#DC8C8C"/>
<path fill-rule="evenodd" clip-rule="evenodd" d="M252.853 209.757C254.13 209.717 259.5 209.212 259.875 203.6C262.75 203.3 261.723 198.846 259.662 200.963L258.945 199.023C258.945 199.023 255.921 199.508 252.589 199.391C252.52 200.561 252.452 202.175 252.487 203.534C250.373 202.956 250.925 205.76 252.379 205.308L252.853 209.757Z" fill="#EBB39D"/>
<path fill-rule="evenodd" clip-rule="evenodd" d="M259.872 203.601C261.567 203.424 261.906 201.804 261.476 200.936C260.794 200.811 260.041 201.672 260.041 201.672C260.911 201.559 260.756 202.817 259.872 202.946V203.601Z" fill="#DC8C8C"/>
<path fill-rule="evenodd" clip-rule="evenodd" d="M259.659 200.963L258.942 199.023C258.942 199.023 253.145 199.953 248.755 198.926C248.755 198.926 253.491 200.874 258.589 199.529L259.659 200.963Z" fill="#DC8C8C"/>
<path fill-rule="evenodd" clip-rule="evenodd" d="M252.336 204.989C252.426 204.429 253.156 204.365 253.051 204.872C253.051 204.872 252.786 204.685 252.336 204.989Z" fill="#DC8C8C"/>
<path fill-rule="evenodd" clip-rule="evenodd" d="M248.258 200.841H251.236C251.236 200.841 251.749 200.531 251.481 200.008C251.481 200.008 251.38 200.286 251.251 200.366C251.251 200.366 251.193 199.955 250.53 199.811C250.53 199.811 249.021 199.66 248.258 200.841Z" fill="#3A3C6C"/>
<path fill-rule="evenodd" clip-rule="evenodd" d="M256.442 200.841H253.462C253.462 200.841 252.949 200.532 253.217 200.008C253.217 200.008 253.317 200.287 253.446 200.367C253.446 200.367 253.349 200.041 253.671 199.901C253.681 200.138 253.717 200.178 253.717 200.178C253.694 200.026 253.744 199.892 253.746 199.888C254.526 199.514 255.982 200.131 256.442 200.841ZM256.561 200.662C256.675 199.864 255.702 200.119 255.702 200.119C256.302 200.233 256.561 200.662 256.561 200.662Z" fill="#3A3C6C"/>
<path fill-rule="evenodd" clip-rule="evenodd" d="M249.816 200.447C250.334 200.447 250.803 200.657 251.142 200.996C251.481 201.336 251.691 201.805 251.691 202.322C251.691 202.84 251.481 203.309 251.142 203.649C250.803 203.987 250.335 204.198 249.816 204.198C249.299 204.198 248.829 203.987 248.491 203.649C248.152 203.309 247.942 202.84 247.942 202.322C247.942 201.805 248.152 201.336 248.491 200.996C248.829 200.657 249.299 200.447 249.816 200.447ZM251.073 201.065C250.751 200.744 250.307 200.544 249.816 200.544C249.325 200.544 248.88 200.744 248.559 201.065C248.237 201.387 248.038 201.832 248.038 202.322C248.038 202.813 248.237 203.258 248.559 203.58C248.88 203.902 249.324 204.101 249.816 204.101C250.307 204.101 250.751 203.902 251.073 203.58C251.395 203.258 251.595 202.813 251.595 202.322C251.595 201.832 251.395 201.387 251.073 201.065Z" fill="#232446"/>
<path fill-rule="evenodd" clip-rule="evenodd" d="M256.625 202.244L260.69 200.201C260.69 200.201 261.332 199.924 261.585 200.524L261.496 200.562C261.285 200.064 260.755 200.277 260.728 200.29L256.626 202.351C256.618 202.857 256.409 203.314 256.077 203.648C255.737 203.985 255.27 204.197 254.751 204.197C254.233 204.197 253.765 203.985 253.426 203.648C253.087 203.308 252.877 202.838 252.877 202.321C252.877 201.804 253.087 201.334 253.426 200.995C253.766 200.656 254.233 200.446 254.751 200.446C255.201 200.446 255.612 200.604 255.935 200.867C256.264 201.134 256.501 201.512 256.588 201.943C256.6 202.006 256.61 202.067 256.616 202.13C256.621 202.17 256.623 202.208 256.625 202.244ZM255.874 200.944C255.569 200.694 255.178 200.544 254.752 200.544C254.261 200.544 253.817 200.744 253.496 201.066C253.174 201.387 252.974 201.832 252.974 202.323C252.974 202.814 253.174 203.259 253.496 203.58C253.818 203.902 254.262 204.101 254.752 204.101C255.243 204.101 255.688 203.902 256.01 203.58C256.331 203.259 256.529 202.814 256.529 202.323C256.529 202.262 256.526 202.2 256.521 202.143C256.515 202.083 256.506 202.023 256.494 201.966C256.41 201.556 256.187 201.197 255.874 200.944Z" fill="#232446"/>
<path fill-rule="evenodd" clip-rule="evenodd" d="M252.022 206.301L255.041 205.843C255.138 205.829 255.227 205.863 255.288 205.939C255.349 206.012 255.367 206.108 255.333 206.2C254.768 207.78 252.855 208.063 251.848 206.729C251.79 206.651 251.777 206.556 251.814 206.466C251.851 206.376 251.926 206.317 252.022 206.301Z" fill="white"/>
<path fill-rule="evenodd" clip-rule="evenodd" d="M260.073 210.642C260.073 210.642 265.908 210.387 266.538 212.905H247.861C247.861 212.905 250.108 209.817 253.808 210.642H260.073Z" fill="#3A3C6C"/>
<path fill-rule="evenodd" clip-rule="evenodd" d="M277.437 190.484H308.951C309.613 190.484 310.152 191.024 310.152 191.684V211.702C310.152 212.363 309.613 212.902 308.951 212.902H277.437C276.777 212.902 276.237 212.363 276.237 211.702V191.684C276.237 191.024 276.777 190.484 277.437 190.484Z" fill="#6F89DB"/>
<path fill-rule="evenodd" clip-rule="evenodd" d="M298.691 194.497C301.924 196.772 302.23 208.575 297.546 210.769C297.546 210.769 290.896 208.418 286.432 211.084C282.069 206.344 285.11 197.277 286.775 195.103C291.343 192.751 293.931 192.589 297.407 194.461C298.01 194.785 298.153 194.152 298.691 194.497Z" fill="#3A3C6C"/>
<path fill-rule="evenodd" clip-rule="evenodd" d="M293.297 208.89L295.398 207.947L302.472 211.722L302.321 212.905H283.415L283.27 211.841L290.144 207.947L293.297 208.89Z" fill="#F1F2FF"/>
<path fill-rule="evenodd" clip-rule="evenodd" d="M293.299 208.89L295.4 207.948L296.771 208.68C296.403 210.407 294.752 211.71 292.772 211.71C290.809 211.71 289.17 210.428 288.783 208.72L290.145 207.947L293.299 208.89Z" fill="#EEC16E"/>
<path fill-rule="evenodd" clip-rule="evenodd" d="M290.145 205.408H295.399V207.948C295.399 209.346 294.257 210.49 292.859 210.49H292.685C291.289 210.49 290.145 209.346 290.145 207.948V205.408Z" fill="#D77F7F"/>
<path fill-rule="evenodd" clip-rule="evenodd" d="M298.134 200.655C299.022 198.965 300.47 193.809 297.389 194.1C297.274 193.741 296.775 192.333 295.856 191.876L295.824 191.94C296.606 192.328 297.078 193.435 297.261 193.942C293.57 189.2 282.14 192.33 288.127 202.067L298.134 200.655ZM300.216 197.43C300.222 197.445 302.73 202.933 300.547 208.342L300.481 208.315C302.652 202.934 300.158 197.474 300.151 197.458L300.216 197.43Z" fill="#3A3C6C"/>
<path fill-rule="evenodd" clip-rule="evenodd" d="M288.036 197.082H297.509V199.417C298.47 199.233 299.249 199.865 299.249 200.825C299.249 201.787 298.47 202.714 297.509 202.898C297.147 205.563 295.533 207.581 292.772 207.62C290.007 207.66 288.239 205.646 288.036 202.898C287.075 202.714 286.295 201.787 286.295 200.825C286.295 199.864 287.075 199.232 288.036 199.417V197.082Z" fill="#EAAB9F"/>
<path fill-rule="evenodd" clip-rule="evenodd" d="M288.037 197.082H295.087C295.087 197.082 292.885 202.518 287.933 199.401C287.967 199.406 288.002 199.41 288.037 199.417V197.082ZM295.087 197.082C295.287 198.701 296.99 199.018 297.509 199.076V197.082H295.087Z" fill="#D77F7F"/>
<path fill-rule="evenodd" clip-rule="evenodd" d="M299.109 200.165C299.2 200.358 299.25 200.579 299.25 200.825C299.25 201.786 298.471 202.714 297.51 202.897V202.154C298.136 202.083 298.827 200.681 297.605 200.731C297.605 200.731 298.188 199.761 299.109 200.165Z" fill="#D77F7F"/>
<path fill-rule="evenodd" clip-rule="evenodd" d="M293.393 195.301L295.127 196.905L295.187 196.921L295.189 196.938C295.189 196.938 295.191 196.984 295.202 197.058L297.815 196.541V198.345C296.41 198.615 295.597 197.808 295.265 197.359C295.446 198.033 296.044 199.233 297.981 198.766L297.992 198.811C295.895 199.318 295.336 197.905 295.19 197.253C295.12 197.15 295.087 197.082 295.087 197.082L295.155 197.069C295.15 197.031 295.147 197.001 295.144 196.98C294.92 197.399 292.787 201.087 287.931 199.4L287.856 196.367L293.393 195.301Z" fill="#3A3C6C"/>
<path fill-rule="evenodd" clip-rule="evenodd" d="M286.436 200.165C286.345 200.358 286.295 200.579 286.295 200.825C286.295 201.786 287.075 202.714 288.036 202.897V202.154C287.408 202.083 286.717 200.681 287.94 200.731C287.94 200.731 287.357 199.761 286.436 200.165Z" fill="#D77F7F"/>
<path fill-rule="evenodd" clip-rule="evenodd" d="M285.131 212.906C284.771 212.285 284.189 211.849 283.271 211.844C282.663 211.839 282.179 212.245 281.795 212.906H285.131Z" fill="#F1F2FF"/>
<path fill-rule="evenodd" clip-rule="evenodd" d="M300.549 212.905C300.905 212.22 301.5 211.729 302.474 211.723C303.119 211.72 303.625 212.174 304.017 212.905H300.549Z" fill="#F1F2FF"/>
<path fill-rule="evenodd" clip-rule="evenodd" d="M294.08 199.935H296.346C295.969 199.538 293.746 198.926 294.08 199.935ZM293.967 199.57C293.967 199.57 293.952 199.776 294.051 199.921C294.051 199.921 293.771 199.781 293.967 199.57Z" fill="#3A3C6C"/>
<path fill-rule="evenodd" clip-rule="evenodd" d="M294.197 201.603C294.201 201.628 294.998 201.066 296.074 201.582C296.002 201.366 294.953 200.473 294.197 201.603Z" fill="#3A3C6C"/>
<path fill-rule="evenodd" clip-rule="evenodd" d="M291.529 201.603C291.524 201.628 290.728 201.066 289.652 201.582C289.724 201.366 290.774 200.473 291.529 201.603Z" fill="#3A3C6C"/>
<path fill-rule="evenodd" clip-rule="evenodd" d="M291.775 203.33C291.775 203.33 292.4 203.817 293.776 203.425C293.776 203.425 292.615 204.82 291.775 203.33Z" fill="#D77F7F"/>
<path fill-rule="evenodd" clip-rule="evenodd" d="M291.354 205.23C291.354 205.23 292.978 205.552 294.192 205.23C294.096 205.408 292.617 206.05 291.354 205.23Z" fill="#3A3C6C"/>
<path fill-rule="evenodd" clip-rule="evenodd" d="M291.553 199.935H289.286C289.663 199.538 291.884 198.926 291.553 199.935ZM291.664 199.57C291.664 199.57 291.68 199.776 291.579 199.921C291.579 199.921 291.861 199.781 291.664 199.57Z" fill="#3A3C6C"/>
<path fill-rule="evenodd" clip-rule="evenodd" d="M290.999 192.232C292.291 192.061 293.339 192.224 293.339 192.597C293.339 192.969 292.291 193.408 290.999 193.578C289.707 193.749 288.66 193.586 288.66 193.213C288.659 192.841 289.707 192.403 290.999 192.232Z" fill="#60629A"/>
<path fill-rule="evenodd" clip-rule="evenodd" d="M239.813 216.404H289.375C290.414 216.404 291.262 217.253 291.262 218.292V249.773C291.262 250.813 290.414 251.661 289.375 251.661H239.813C238.774 251.661 237.926 250.813 237.926 249.773V218.292C237.925 217.253 238.774 216.404 239.813 216.404Z" fill="#E7EAF3"/>
<path fill-rule="evenodd" clip-rule="evenodd" d="M264.595 244.64C270.438 244.64 275.202 239.875 275.202 234.034C275.202 228.191 270.437 223.428 264.595 223.428C258.754 223.428 253.989 228.192 253.989 234.034C253.989 239.875 258.754 244.64 264.595 244.64Z" fill="white"/>
<path fill-rule="evenodd" clip-rule="evenodd" d="M264.594 226.803C267.212 226.803 269.335 228.925 269.335 231.544C269.335 234.16 267.212 236.282 264.594 236.282C261.975 236.282 259.853 234.16 259.853 231.544C259.854 228.925 261.975 226.803 264.594 226.803ZM271.644 241.956C269.769 243.626 267.3 244.64 264.594 244.64C261.886 244.64 259.418 243.626 257.544 241.956C258.792 239.317 261.479 237.488 264.594 237.488C267.709 237.489 270.397 239.317 271.644 241.956Z" fill="#E7EAF3"/>
<path fill-rule="evenodd" clip-rule="evenodd" d="M315.747 190.484H347.261C347.922 190.484 348.461 191.024 348.461 191.684V211.702C348.461 212.363 347.922 212.902 347.261 212.902H315.747C315.085 212.902 314.547 212.363 314.547 211.702V191.684C314.547 191.024 315.085 190.484 315.747 190.484Z" fill="#BDD95B"/>
<path fill-rule="evenodd" clip-rule="evenodd" d="M336.575 198.795C336.575 198.795 337.651 203.751 335.729 207.487C335.729 207.487 328.873 208.554 327.799 203.141C327.799 203.141 325.864 202.913 325.685 201.349C325.505 199.786 327.208 199.615 327.745 200.453L327.977 201.615L328.747 201.52L329.284 199.195C329.296 199.15 332.658 200.169 336.575 198.795Z" fill="#EBB39D"/>
<path fill-rule="evenodd" clip-rule="evenodd" d="M327.636 203.112C326.469 202.954 325.404 201.939 325.716 200.702C326.636 200.003 327.142 200.964 327.142 200.964C326.264 201.297 326.807 202.277 327.6 202.222L327.636 203.112Z" fill="#D77F7F"/>
<path fill-rule="evenodd" clip-rule="evenodd" d="M336.574 198.734C334.167 200.373 330.496 199.796 329.675 199.554L328.747 201.459L329.285 199.135C329.285 199.135 332.687 200.146 336.574 198.734Z" fill="#D77F7F"/>
<path fill-rule="evenodd" clip-rule="evenodd" d="M338.833 198.383C340.149 196.237 338.963 192.996 336.92 194.656C334.201 190.901 328.836 192.42 328.419 194.922C328.373 194.914 328.33 194.908 328.286 194.901C328.253 194.347 328.336 192.988 329.802 192.338L329.78 192.285C328.291 192.948 328.198 194.32 328.229 194.894H328.226C327.997 194.718 327.47 194.427 326.668 194.638L326.682 194.693C327.378 194.51 327.857 194.714 328.107 194.879C325.26 194.578 325.769 197.6 326.521 199.985C326.975 199.888 327.491 200.057 327.747 200.456L327.979 201.618L328.749 201.523L329.287 199.136C329.287 199.136 332.69 200.145 336.576 198.735C336.576 198.735 336.673 199.182 336.757 199.909C336.757 199.909 339.608 200.09 340.216 196.925C340.216 196.925 339.723 197.919 338.833 198.383Z" fill="#3A3C6C"/>
<path fill-rule="evenodd" clip-rule="evenodd" d="M327.57 203.037C327.938 204.081 328.517 206.309 328.569 210.065C328.569 210.065 330.476 210.751 333.563 210.065C333.563 210.065 333.775 208.936 333.783 207.495C331.669 207.386 328.5 206.617 327.797 203.079C327.797 203.079 327.71 203.069 327.57 203.037Z" fill="#EBB39D"/>
<path fill-rule="evenodd" clip-rule="evenodd" d="M327.771 203.664C327.934 204.229 328.11 204.981 328.255 205.943C328.901 207.378 330.378 208.864 333.695 209.113C333.74 208.675 333.781 208.114 333.785 207.496C331.671 207.387 328.501 206.618 327.799 203.08C327.799 203.08 327.767 203.304 327.771 203.664Z" fill="#D77F7F"/>
<path fill-rule="evenodd" clip-rule="evenodd" d="M330.028 203.343C330.028 203.343 335.102 201.91 337.009 203.512C337.009 203.512 336.695 206.004 335.952 207.415C335.952 207.415 332.958 209.034 329.447 205.731L327.62 203.094L327.75 203.03L329.528 205.567C329.741 204.933 329.889 204.101 329.895 203.433L327.772 200.847L327.881 200.754L330.028 203.343Z" fill="white"/>
<path fill-rule="evenodd" clip-rule="evenodd" d="M331.864 200.895C332.058 200.852 332.252 200.977 332.295 201.172L332.356 201.451C332.399 201.646 332.273 201.84 332.079 201.882H332.078C331.884 201.924 331.691 201.8 331.649 201.605L331.589 201.326C331.545 201.132 331.669 200.937 331.864 200.895Z" fill="#3A3C6C"/>
<path fill-rule="evenodd" clip-rule="evenodd" d="M332.548 201.061C332.548 201.061 332.072 200.901 331.125 201.17C331.125 201.17 331.93 200.516 332.548 201.061Z" fill="#3A3C6C"/>
<path fill-rule="evenodd" clip-rule="evenodd" d="M335.767 200.795H335.767C335.966 200.798 336.126 200.963 336.123 201.163L336.118 201.448C336.114 201.648 335.949 201.808 335.749 201.804C335.551 201.801 335.39 201.635 335.394 201.437L335.399 201.151C335.402 200.951 335.568 200.791 335.767 200.795Z" fill="#3A3C6C"/>
<path fill-rule="evenodd" clip-rule="evenodd" d="M336.372 200.972C336.372 200.972 335.895 200.812 334.948 201.082C334.948 201.082 335.753 200.428 336.372 200.972Z" fill="#3A3C6C"/>
<path fill-rule="evenodd" clip-rule="evenodd" d="M334.989 203.029C334.989 203.029 334.741 203.68 333.561 203.68C333.561 203.68 334.93 204.529 334.989 203.029Z" fill="#CFE5FD"/>
<path fill-rule="evenodd" clip-rule="evenodd" d="M328.57 210.067L322.325 212.906H340.155C340.116 212.757 340.076 212.61 340.034 212.463L333.564 210.066C330.476 210.753 328.57 210.067 328.57 210.067Z" fill="white"/>
<path fill-rule="evenodd" clip-rule="evenodd" d="M327.228 210.676L327.112 210.728C327.239 210.803 327.375 210.875 327.521 210.942C328.439 211.367 329.707 211.629 331.106 211.629C332.506 211.629 333.772 211.366 334.692 210.942C334.874 210.858 335.044 210.767 335.196 210.67L335.074 210.625C334.942 210.704 334.801 210.778 334.65 210.848C333.745 211.268 332.491 211.526 331.107 211.526C329.723 211.526 328.47 211.268 327.566 210.848C327.446 210.794 327.333 210.737 327.228 210.676Z" fill="#3A3C6C"/>
<path fill-rule="evenodd" clip-rule="evenodd" d="M322.561 212.907C322.473 212.901 322.388 212.901 322.304 212.907H322.561Z" fill="white"/>
<path fill-rule="evenodd" clip-rule="evenodd" d="M297.01 216.404H346.572C347.611 216.404 348.46 217.253 348.46 218.292V249.773C348.46 250.813 347.611 251.661 346.572 251.661H297.01C295.971 251.661 295.122 250.813 295.122 249.773V218.292C295.122 217.253 295.971 216.404 297.01 216.404Z" fill="#E7EAF3"/>
<path fill-rule="evenodd" clip-rule="evenodd" d="M321.794 244.64C327.637 244.64 332.4 239.875 332.4 234.034C332.4 228.191 327.637 223.428 321.794 223.428C315.952 223.428 311.188 228.192 311.188 234.034C311.188 239.875 315.952 244.64 321.794 244.64Z" fill="white"/>
<path fill-rule="evenodd" clip-rule="evenodd" d="M321.793 227.078C324.411 227.078 326.534 229.201 326.534 231.819C326.534 234.436 324.411 236.56 321.793 236.56C319.176 236.56 317.053 234.437 317.053 231.819C317.053 229.201 319.175 227.078 321.793 227.078ZM328.843 242.233C326.969 243.9 324.5 244.916 321.793 244.916C319.087 244.916 316.617 243.901 314.743 242.233C315.991 239.592 318.679 237.764 321.793 237.764C324.908 237.764 327.596 239.592 328.843 242.233Z" fill="#E7EAF3"/>
<path fill-rule="evenodd" clip-rule="evenodd" d="M187.301 190.486H230.909C232.348 190.486 233.524 191.664 233.524 193.101V272.166C233.524 273.605 232.347 274.782 230.909 274.782H187.301C185.862 274.782 184.686 273.605 184.686 272.166V193.101C184.686 191.663 185.862 190.486 187.301 190.486Z" fill="#E7EAF3"/>
<path fill-rule="evenodd" clip-rule="evenodd" d="M196.957 210.456C201.186 210.456 204.634 207.009 204.634 202.78C204.634 198.551 201.185 195.104 196.957 195.104C192.73 195.104 189.282 198.551 189.282 202.78C189.282 207.009 192.73 210.456 196.957 210.456Z" fill="#3A3C6C"/>
<path fill-rule="evenodd" clip-rule="evenodd" d="M196.956 197.547C198.851 197.547 200.387 199.083 200.387 200.978C200.387 202.872 198.851 204.409 196.956 204.409C195.06 204.409 193.524 202.873 193.524 200.978C193.524 199.083 195.061 197.547 196.956 197.547ZM202.058 208.515C200.702 209.722 198.914 210.456 196.956 210.456C194.996 210.456 193.209 209.722 191.853 208.515C192.755 206.603 194.7 205.281 196.956 205.281C199.21 205.281 201.155 206.603 202.058 208.515Z" fill="#E7EAF3"/>
<path d="M220.219 197.914H207.099V199.987H220.219V197.914Z" fill="#3A3C6C"/>
<path d="M225.632 201.84H207.099V203.913H225.632V201.84Z" fill="#3A3C6C"/>
<path d="M191.11 229.773C192.976 229.773 194.489 228.261 194.489 226.394C194.489 224.528 192.976 223.016 191.11 223.016C189.244 223.016 187.731 224.528 187.731 226.394C187.731 228.261 189.244 229.773 191.11 229.773Z" fill="#6F89DB"/>
<path fill-rule="evenodd" clip-rule="evenodd" d="M191.11 231.498C192.976 231.498 194.489 233.011 194.489 234.877C194.489 236.742 192.977 238.256 191.11 238.256C189.245 238.256 187.731 236.742 187.731 234.877C187.731 233.011 189.245 231.498 191.11 231.498Z" fill="#EEC16E"/>
<path fill-rule="evenodd" clip-rule="evenodd" d="M191.11 239.982C192.976 239.982 194.489 241.494 194.489 243.361C194.489 245.227 192.977 246.738 191.11 246.738C189.245 246.738 187.731 245.227 187.731 243.361C187.731 241.495 189.245 239.982 191.11 239.982Z" fill="#BDD95B"/>
<path d="M204.664 225.096H197.069V225.992H204.664V225.096Z" fill="#3A3C6C"/>
<path d="M200.695 226.795H197.069V227.691H200.695V226.795Z" fill="#3A3C6C"/>
<path d="M204.664 233.135H197.069V234.032H204.664V233.135Z" fill="#3A3C6C"/>
<path d="M202.158 234.834H197.069V235.731H202.158V234.834Z" fill="#3A3C6C"/>
<path fill-rule="evenodd" clip-rule="evenodd" d="M191.11 249.484C192.976 249.484 194.489 250.998 194.489 252.863C194.489 254.729 192.977 256.242 191.11 256.242C189.245 256.242 187.731 254.73 187.731 252.863C187.731 250.997 189.245 249.484 191.11 249.484Z" fill="#3A3C6C"/>
<path fill-rule="evenodd" clip-rule="evenodd" d="M191.11 257.967C192.976 257.967 194.489 259.478 194.489 261.344C194.489 263.209 192.977 264.723 191.11 264.723C189.245 264.723 187.731 263.21 187.731 261.344C187.731 259.478 189.245 257.967 191.11 257.967Z" fill="white"/>
<path d="M204.664 241.496H197.069V242.393H204.664V241.496Z" fill="#3A3C6C"/>
<path d="M199.406 243.195H197.069V244.093H199.406V243.195Z" fill="#3A3C6C"/>
<path d="M200.866 249.533H197.069V250.429H200.866V249.533Z" fill="#3A3C6C"/>
<path d="M202.158 251.232H197.069V252.129H202.158V251.232Z" fill="#3A3C6C"/>
<path d="M228.499 215.238H188.172V215.555H228.499V215.238Z" fill="white"/>
<path fill-rule="evenodd" clip-rule="evenodd" d="M227.221 223.869H227.223C227.796 223.869 228.266 224.339 228.266 224.912V229.149C228.266 229.723 227.796 230.191 227.223 230.191H227.221C226.647 230.191 226.178 229.722 226.178 229.149V224.912C226.178 224.339 226.646 223.869 227.221 223.869Z" fill="white"/>
<path d="M254.441 296.605H188.104V302.864H254.441V296.605Z" fill="white"/>
<path fill-rule="evenodd" clip-rule="evenodd" d="M115.646 302.865H371.312C373.034 302.865 374.441 304.273 374.441 305.994C374.441 307.716 373.034 309.124 371.312 309.124H115.646C113.924 309.124 112.517 307.717 112.517 305.995C112.517 304.274 113.924 302.865 115.646 302.865Z" fill="#6F89DB"/>
<path d="M371.314 309.125H264.983V447.419H371.314V309.125Z" fill="#D6DAE6"/>
<path fill-rule="evenodd" clip-rule="evenodd" d="M371.314 309.125H264.983V312.549L371.314 317.057V309.125Z" fill="#B3BCD3"/>
<path fill-rule="evenodd" clip-rule="evenodd" d="M264.983 378.942H307.161H329.136H371.313V380.1H329.136V382.607C329.136 384.623 327.486 386.273 325.47 386.273H310.827C308.81 386.273 307.161 384.623 307.161 382.607V380.1H264.983V378.942ZM329.137 421.105V423.611C329.137 425.627 327.487 427.277 325.471 427.277H310.828C308.811 427.277 307.162 425.627 307.162 423.611V421.105H264.984V419.945H307.162H329.137H371.314V421.105H329.137ZM329.137 339.098V341.604C329.137 343.62 327.487 345.269 325.471 345.269H310.828C308.811 345.269 307.162 343.619 307.162 341.604V339.098H264.984V337.938H307.162H329.137H371.314V339.098H329.137Z" fill="#B3BCD3"/>
<path fill-rule="evenodd" clip-rule="evenodd" d="M309.377 302.865H362.695V301.421H321.254C319.976 301.421 318.929 300.376 318.929 299.097C318.929 297.817 319.975 296.771 321.254 296.771H362.695V295.328H309.377C307.305 295.328 305.609 297.024 305.609 299.096C305.609 301.169 307.305 302.865 309.377 302.865Z" fill="#3A3C6C"/>
<path fill-rule="evenodd" clip-rule="evenodd" d="M321.253 301.422H360.821V296.771H321.253C319.975 296.771 318.928 297.817 318.928 299.096V299.097C318.928 300.377 319.974 301.422 321.253 301.422Z" fill="white"/>
<path fill-rule="evenodd" clip-rule="evenodd" d="M312.632 295.328H365.95V293.886H324.509C323.23 293.886 322.184 292.839 322.184 291.561C322.184 290.282 323.229 289.236 324.509 289.236H365.95V287.793H312.632C310.56 287.793 308.864 289.489 308.864 291.561C308.864 293.633 310.559 295.328 312.632 295.328Z" fill="#6F89DB"/>
<path fill-rule="evenodd" clip-rule="evenodd" d="M324.509 293.885H364.076V289.234H324.509C323.23 289.234 322.184 290.28 322.184 291.559V291.56C322.184 292.839 323.23 293.885 324.509 293.885Z" fill="white"/>
<path fill-rule="evenodd" clip-rule="evenodd" d="M326.233 291.186H331.423V299.538L328.769 297.956L326.233 299.538V291.186Z" fill="#CF4970"/>
<path fill-rule="evenodd" clip-rule="evenodd" d="M167.824 178.036C167.96 180.847 168.061 184.985 167.835 189.544C167.835 189.544 170.69 187.958 171.071 190.615C171.454 193.27 169.14 195.185 167.323 195.713C166.548 202.817 164.885 209.265 161.176 213.608C161.176 213.608 154.509 214.825 149.567 214.259L149.517 227.619L125.182 227.042C125.182 227.042 125.615 220.582 125.785 213.287C124.681 212.58 124.066 211.208 124.494 208.749C124.494 208.749 124.436 210.179 125.823 211.343C125.838 210.405 125.849 209.461 125.852 208.523C120.471 183.323 99.158 162.206 124.423 161.07C120.701 149.495 147.088 134.962 161.928 155.912C159.36 146.073 182.987 157.082 167.824 178.036Z" fill="white"/>
<path fill-rule="evenodd" clip-rule="evenodd" d="M166.573 175.348C166.573 175.348 167.327 182.273 167.011 190.586C167.011 190.586 169.849 189.001 170.262 191.657C170.674 194.314 168.384 196.229 166.572 196.757C165.88 203.86 164.293 210.309 160.635 214.652C160.635 214.652 153.983 215.867 149.035 215.302L149.14 228.663L124.798 228.084C124.798 228.084 125.327 218.55 125.251 209.566C130.332 209.565 135.41 209.565 140.49 209.563L141.691 195.707C141.691 195.707 134.621 198.11 133.349 190.759C132.077 183.407 138.863 178.035 140.843 182.276L142.68 186.094L144.484 185.918L146.852 178.318C146.852 178.318 159.151 178.459 166.573 175.348Z" fill="#EBB39D"/>
<path fill-rule="evenodd" clip-rule="evenodd" d="M166.575 175.348C166.575 175.348 166.641 175.95 166.725 177.009C162.796 178.944 156.555 180.79 148.301 179.345L144.484 185.916L146.852 178.316C146.852 178.316 159.153 178.459 166.575 175.348Z" fill="#DC8C8C"/>
<path fill-rule="evenodd" clip-rule="evenodd" d="M141.69 195.707L141.662 195.717C141.181 195.87 134.574 197.842 133.348 190.758C132.811 187.656 133.71 184.908 135.075 183.085C138.439 182.117 141.034 189.221 141.034 189.221C141.034 189.221 137.978 189.483 138.537 191.681C139.096 193.88 141.593 193.619 141.593 193.619L141.69 195.707Z" fill="#DC8C8C"/>
<path fill-rule="evenodd" clip-rule="evenodd" d="M149.034 215.3L149.076 220.473C146.756 220.567 143.577 221.158 140.415 221.892L125.069 221.701C125.186 218.26 125.288 213.849 125.251 209.563V209.564L140.49 209.561C143.434 213.455 149.034 215.3 149.034 215.3Z" fill="#DC8C8C"/>
<path fill-rule="evenodd" clip-rule="evenodd" d="M166.863 179.08C181.78 158.125 158.025 147.117 160.708 156.956C145.624 136.004 119.407 150.538 123.266 162.111C98.0124 163.248 119.573 184.364 125.247 209.566C125.242 213.887 140.021 213.225 140.486 209.563L141.687 195.707C141.687 195.707 134.617 198.11 133.345 190.759C132.073 183.407 138.859 178.035 140.839 182.276L142.676 186.094L144.48 185.918L146.848 178.318C146.848 178.318 159.148 178.459 166.571 175.348C166.571 175.348 166.724 176.762 166.863 179.08ZM123.892 209.792C123.892 209.792 123.737 215.09 134.028 213.593C134.028 213.593 122.476 218.512 123.892 209.792Z" fill="#3A3C6C"/>
<path fill-rule="evenodd" clip-rule="evenodd" d="M142.581 147.932C146.157 147.932 149.057 148.783 149.057 149.834C149.057 150.886 146.157 151.737 142.581 151.737C139.005 151.737 136.105 150.886 136.105 149.834C136.105 148.784 139.005 147.932 142.581 147.932ZM117.589 163.643C119.884 163.513 121.72 164.16 121.693 165.088C121.667 166.015 119.785 166.871 117.493 167.002C115.2 167.131 113.363 166.484 113.39 165.556C113.416 164.629 115.298 163.771 117.589 163.643Z" fill="#60629A"/>
<path fill-rule="evenodd" clip-rule="evenodd" d="M106.167 319.258L102.632 321.942C102.632 321.942 91.4612 362.637 130.182 364.628L142.855 430.681C141.656 430.811 140.715 431.835 140.715 433.069C140.715 434.391 141.796 435.471 143.119 435.471H143.775H162.982H164.133L164.129 435.176C164.876 434.768 165.383 433.974 165.383 433.068C165.383 432.139 164.851 431.331 164.075 430.93L163.002 345.553L151.433 347.644L136.139 321.237L106.167 319.258Z" fill="#232446"/>
<path fill-rule="evenodd" clip-rule="evenodd" d="M161.631 435.469C163.119 437.43 165.932 441.787 166.497 447.344H143.311C143.311 447.344 142.343 441.107 144.721 435.469H161.631Z" fill="#DC8C8C"/>
<path fill-rule="evenodd" clip-rule="evenodd" d="M174.452 321.943L228.079 334.251C229.136 334.494 230.699 338.228 232.568 344.205C240.007 368.011 244.927 393.568 251.909 429.92C256.412 431.361 253.259 436.044 253.259 436.044L253.08 436.017L253.086 436.044H231.563H231.203L231.185 436.003C223.534 435.083 228.77 430.417 228.77 430.417L198.671 360.83C174.287 362.592 121.98 367.628 122.545 327.155C150.668 331.21 174.452 321.943 174.452 321.943Z" fill="#3A3C6C"/>
<path fill-rule="evenodd" clip-rule="evenodd" d="M174.453 321.943L189.867 325.482C184.223 328.553 174.066 333.432 159.596 337.928C164.43 340.726 178.134 345.908 212.405 344.811L212.578 344.805L237.221 427.997L236.79 428.124L212.245 345.265C177.319 346.366 163.669 340.897 159.033 338.102C150.056 340.863 139.447 343.469 127.25 345.404C124.185 340.698 122.442 334.722 122.548 327.155C150.669 331.21 174.453 321.943 174.453 321.943Z" fill="#232446"/>
<path fill-rule="evenodd" clip-rule="evenodd" d="M261.518 447.418L261.519 447.42H230.556C230.556 447.42 229.165 443.472 231.204 436.045H253.259C253.259 436.045 268.455 441.056 268.596 447.418H261.518Z" fill="#EBB39D"/>
<path fill-rule="evenodd" clip-rule="evenodd" d="M109.226 284.037C109.226 284.037 119.943 234.049 101.52 233.01C83.5332 231.996 85.3503 288.199 93.3488 300.638C101.348 313.077 144.277 293.57 144.277 293.57C144.277 293.57 146.625 286.59 139.093 282.337L109.226 284.037Z" fill="#DADEE9"/>
<path fill-rule="evenodd" clip-rule="evenodd" d="M152.435 223.003C158.828 224.539 169.87 227.898 175.302 233.719C183.219 242.202 171.626 295.361 174.453 321.939C171.343 328.726 130.798 342.194 102.633 321.939C102.633 321.939 94.5746 274.153 98.5336 234.567C98.5336 234.567 106.055 229.9 113.743 226.11C116.018 219.031 124.799 221.697 124.799 221.697C130.868 222.679 152.921 218.369 152.608 221.711C152.618 222.031 152.559 222.47 152.435 223.003Z" fill="white"/>
<path fill-rule="evenodd" clip-rule="evenodd" d="M169.894 232.757C171.971 233.925 173.84 235.253 175.302 236.752C181.638 243.246 175.479 277.104 174.215 303.401C174.007 303.242 173.802 303.073 173.6 302.885C162.414 292.47 154.704 232.471 169.712 232.747C169.774 232.748 169.833 232.754 169.894 232.757Z" fill="#E7EAF3"/>
<path fill-rule="evenodd" clip-rule="evenodd" d="M123.769 221.457C124.405 221.578 124.795 221.696 124.795 221.696L125.066 221.698C133.257 221.801 143.697 220.183 150.184 220.467C154.903 224.507 121.794 237.46 120.558 223.719C120.356 221.474 122.367 221.308 123.769 221.457ZM151.34 224.855C151.34 224.855 150.109 231.106 142.641 234.112C142.641 234.112 153.792 233.961 151.34 224.855ZM115.005 228.937C111.184 243.929 124.62 239.297 124.62 239.297C115.154 239.669 115.005 228.937 115.005 228.937Z" fill="#DADEE9"/>
<path fill-rule="evenodd" clip-rule="evenodd" d="M169.71 229.532C154.674 229.243 165.476 300.187 181.625 302.862C200.554 305.999 208.456 283.051 211.511 260.956L199.909 256.511C199.909 256.511 189.245 269.323 187.307 274.779C183.956 261.457 184.744 229.82 169.71 229.532Z" fill="white"/>
<path fill-rule="evenodd" clip-rule="evenodd" d="M190.538 268.943C189.44 270.657 188.371 272.49 187.478 274.29C189.208 279.318 189.265 287.528 189.265 287.528C193.141 278.744 191.793 272.058 190.538 268.943Z" fill="#E7EAF3"/>
<path fill-rule="evenodd" clip-rule="evenodd" d="M188.882 290.501C188.885 290.479 189.809 282.758 187.2 274.814C186.512 272.721 185.948 268.84 185.276 264.212C183.385 251.199 180.633 232.267 171.941 230.977L171.975 230.754C180.83 232.069 183.598 251.099 185.498 264.181C186.169 268.796 186.732 272.669 187.414 274.744C190.038 282.733 189.106 290.501 189.104 290.523L188.882 290.501Z" fill="#3A3C6C"/>
<path fill-rule="evenodd" clip-rule="evenodd" d="M211.506 260.956L218.462 248.833L218.129 244.899C216.436 243.185 210.114 239.111 210.114 239.111C210.114 239.111 210.202 237.434 210.718 234.267C211.234 231.099 207.064 230.54 206.59 232.305L200.076 256.51L211.506 260.956Z" fill="white"/>
<path fill-rule="evenodd" clip-rule="evenodd" d="M211.507 260.956L217.995 248.833L217.509 244.899C215.75 243.185 209.27 239.111 209.27 239.111C209.27 239.111 209.294 237.434 209.688 234.267C210.081 231.099 205.889 230.54 205.483 232.305L199.905 256.51L211.507 260.956Z" fill="#EBB39D"/>
<path fill-rule="evenodd" clip-rule="evenodd" d="M211.506 260.955L213.7 256.857C206.554 257.896 202.413 256.055 200.351 254.58L199.905 256.51L211.506 260.955Z" fill="#DC8C8C"/>
<path fill-rule="evenodd" clip-rule="evenodd" d="M89.876 362.566H168.029V368.828C168.029 372.272 165.214 375.088 161.769 375.088H96.1368C92.6926 375.088 89.876 372.272 89.876 368.828V362.566Z" fill="#3A3C6C"/>
<path fill-rule="evenodd" clip-rule="evenodd" d="M68.3629 270.662H72.0493H126.721H130.408C134.462 270.662 137.78 273.979 137.78 278.035V279.351L145.13 346.567C145.13 346.567 143.366 359.558 152.184 359.558C159.872 359.558 183.087 359.051 193.391 358.818C194.762 358.788 195.953 359.258 196.934 360.217C197.915 361.177 198.411 362.357 198.411 363.728V367.354L77.0854 368.207C77.0854 368.207 68.5626 367.178 68.2683 354.54L60.9844 279.35H60.9901V278.034C60.9901 273.979 64.3074 270.662 68.3629 270.662Z" fill="#9AB4FB"/>
<path fill-rule="evenodd" clip-rule="evenodd" d="M127.197 270.662L134.547 353.283C134.547 353.283 134.489 353.779 134.445 354.592C134.22 358.903 134.573 368.208 141.701 368.208C163.125 368.208 176.987 367.355 198.41 367.355V363.637C198.41 362.277 197.922 361.107 196.957 360.149C195.991 359.191 194.816 358.713 193.456 358.726C178.427 358.859 168.395 359.557 152.183 359.557C147.634 359.557 145.497 355.811 145.129 351.675C144.806 348.951 145.129 346.567 145.129 346.567L143.723 333.456H190.021C191.426 333.456 191.984 332.386 191.984 331.061C191.984 325.651 187.572 321.239 182.163 321.239H142.412L137.78 278.035C137.347 274.003 134.461 270.662 130.407 270.662H127.197Z" fill="#6F89DB"/>
<path fill-rule="evenodd" clip-rule="evenodd" d="M125.512 371.404H132.387V441.502H147.957C150.22 441.502 152.071 443.353 152.071 445.616V449.729H132.387H125.512H105.828V445.616C105.828 443.353 107.679 441.502 109.941 441.502H125.512V371.404Z" fill="#3A3C6C"/>
<path fill-rule="evenodd" clip-rule="evenodd" d="M64.6665 209.642C66.3956 209.701 67.8465 208.348 67.9062 206.619C67.9658 204.889 66.6133 203.438 64.8832 203.379C63.154 203.319 61.7031 204.672 61.6435 206.402C61.5839 208.131 62.9373 209.582 64.6665 209.642Z" fill="#3A3C6C"/>
<path fill-rule="evenodd" clip-rule="evenodd" d="M76.1635 210.092C77.8927 210.151 79.3436 208.799 79.4032 207.07C79.4629 205.341 78.1104 203.891 76.3803 203.83C74.6511 203.77 73.2002 205.123 73.1406 206.852C73.0809 208.582 74.4344 210.032 76.1635 210.092Z" fill="#3A3C6C"/>
<path fill-rule="evenodd" clip-rule="evenodd" d="M87.6596 209.868C89.3888 209.928 90.8397 208.575 90.8993 206.845C90.959 205.115 89.6055 203.665 87.8764 203.605C86.1472 203.546 84.6963 204.899 84.6367 206.628C84.577 208.358 85.9305 209.807 87.6596 209.868Z" fill="#3A3C6C"/>
<path fill-rule="evenodd" clip-rule="evenodd" d="M171.476 136.861L168.646 141.325L166.688 140.084L169.518 135.619L171.476 136.861ZM173.126 144.811L178.099 142.294L179.142 144.361L174.169 146.877L173.126 144.811Z" fill="white"/>
<path fill-rule="evenodd" clip-rule="evenodd" d="M278.217 162.54L276.376 164.505L275.534 163.712L277.375 161.748L278.217 162.54ZM236.674 173.835L239.12 174.363L238.876 175.496L236.43 174.968L236.674 173.835ZM249.34 155.811L252.416 161.138L251.415 161.713L248.339 156.386L249.34 155.811Z" fill="white"/>
<path fill-rule="evenodd" clip-rule="evenodd" d="M71.4957 243.518C72.1109 243.518 72.6134 243.015 72.6134 242.4C72.6134 241.785 72.1109 241.281 71.4957 241.281C70.8805 241.281 70.377 241.785 70.377 242.4C70.376 243.016 70.8795 243.518 71.4957 243.518Z" fill="#96C042"/>
<path fill-rule="evenodd" clip-rule="evenodd" d="M11.648 327.138C13.1254 327.138 14.3303 325.932 14.3303 324.455C14.3303 322.977 13.1254 321.771 11.648 321.771C10.1706 321.771 8.96484 322.977 8.96484 324.455C8.96484 325.933 10.1706 327.138 11.648 327.138Z" fill="#96C042"/>
<path fill-rule="evenodd" clip-rule="evenodd" d="M362.985 230.57C364.387 230.57 365.53 229.428 365.53 228.026C365.53 226.625 364.387 225.48 362.985 225.48C361.584 225.48 360.439 226.624 360.439 228.026C360.439 229.428 361.583 230.57 362.985 230.57Z" fill="#3A3C6C"/>
<path fill-rule="evenodd" clip-rule="evenodd" d="M231.357 321.176C232.178 321.176 232.848 320.506 232.848 319.685C232.848 318.864 232.178 318.195 231.357 318.195C230.536 318.195 229.868 318.864 229.868 319.685C229.868 320.506 230.536 321.176 231.357 321.176Z" fill="#3A3C6C"/>
<path fill-rule="evenodd" clip-rule="evenodd" d="M372.812 253.803C373.386 253.803 373.855 253.335 373.855 252.761C373.855 252.186 373.386 251.717 372.812 251.717C372.237 251.717 371.768 252.186 371.768 252.761C371.768 253.335 372.236 253.803 372.812 253.803Z" fill="#3A3C6C"/>
</g>
</g>
<defs>
<clipPath id="clip0_987_5033">
<rect width="390" height="525.833" fill="white" transform="translate(0 0.666016)"/>
</clipPath>
<clipPath id="clip1_987_5033">
<rect width="473.226" height="473.226" fill="white" transform="translate(-42.4688 59.9883)"/>
</clipPath>
</defs>
</svg>
