<svg width="390" height="527" viewBox="0 0 390 527" fill="none" xmlns="http://www.w3.org/2000/svg">
<g clip-path="url(#clip0_987_4832)">
<rect width="390" height="525.833" transform="translate(0 0.833984)" fill="#E1E1FC"/>
<g clip-path="url(#clip1_987_4832)">
<rect width="448.958" height="448.958" transform="translate(-29.6611 97.9062)" fill="#1E1E1E"/>
<path d="M419.296 97.9062H-29.6621V546.864H419.296V97.9062Z" fill="#E1E1FC"/>
<path opacity="0.68" d="M324.072 449.472H65.5595C54.0752 449.472 44.7656 440.162 44.7656 428.678V206.849C44.7656 195.364 54.0752 186.055 65.5595 186.055H324.072C335.556 186.055 344.866 195.364 344.866 206.849V428.678C344.866 440.162 335.556 449.472 324.072 449.472Z" fill="#F0F0FC"/>
<path d="M321.959 179.587C324.555 179.587 326.66 177.482 326.66 174.886C326.66 172.29 324.555 170.186 321.959 170.186C319.363 170.186 317.259 172.29 317.259 174.886C317.259 177.482 319.363 179.587 321.959 179.587Z" fill="#F0F0FC"/>
<path d="M309.346 179.587C311.942 179.587 314.047 177.482 314.047 174.886C314.047 172.29 311.942 170.186 309.346 170.186C306.75 170.186 304.646 172.29 304.646 174.886C304.646 177.482 306.75 179.587 309.346 179.587Z" fill="#F0F0FC"/>
<path d="M296.736 179.587C299.332 179.587 301.436 177.482 301.436 174.886C301.436 172.29 299.332 170.186 296.736 170.186C294.14 170.186 292.035 172.29 292.035 174.886C292.035 177.482 294.14 179.587 296.736 179.587Z" fill="#F0F0FC"/>
<path d="M31.3545 328.299C31.3545 325.702 33.4592 323.598 36.0551 323.598C38.6519 323.598 40.7566 325.702 40.7566 328.299C40.7566 330.895 38.6519 333 36.0551 333C33.4592 333 31.3545 330.895 31.3545 328.299Z" fill="#F0F0FC"/>
<path d="M31.3545 341.162C31.3545 338.566 33.4592 336.461 36.0551 336.461C38.6519 336.461 40.7566 338.566 40.7566 341.162C40.7566 343.759 38.6519 345.864 36.0551 345.864C33.4592 345.863 31.3545 343.758 31.3545 341.162Z" fill="#F0F0FC"/>
<path d="M31.3545 354.024C31.3545 351.427 33.4592 349.322 36.0551 349.322C38.6519 349.322 40.7566 351.427 40.7566 354.024C40.7566 356.62 38.6519 358.724 36.0551 358.724C33.4592 358.725 31.3545 356.621 31.3545 354.024Z" fill="#F0F0FC"/>
<path d="M211.106 479.477C214.478 479.477 217.212 476.087 217.212 471.906C217.212 467.725 214.478 464.336 211.106 464.336C207.733 464.336 204.999 467.725 204.999 471.906C204.999 476.087 207.733 479.477 211.106 479.477Z" fill="#040962"/>
<path d="M274.925 479.477C278.298 479.477 281.032 476.087 281.032 471.906C281.032 467.725 278.298 464.336 274.925 464.336C271.552 464.336 268.818 467.725 268.818 471.906C268.818 476.087 271.552 479.477 274.925 479.477Z" fill="#040962"/>
<path d="M275.661 455.521H257.44C252.369 455.521 248.26 451.411 248.26 446.34V374.062H236.545V446.34C236.545 451.411 232.435 455.521 227.364 455.521H210.368H208.584C205.828 455.521 203.595 457.755 203.595 460.509V461.561V470.513C203.595 471.129 204.094 471.628 204.71 471.628H209.252C209.868 471.628 210.368 471.129 210.368 470.513V466.55C210.368 463.794 212.602 461.561 215.357 461.561H270.671C273.427 461.561 275.66 463.795 275.66 466.55V470.513C275.66 471.129 276.159 471.628 276.775 471.628H281.317C281.933 471.628 282.433 471.129 282.433 470.513V461.561V460.509C282.433 457.754 280.199 455.521 277.444 455.521H275.661Z" fill="white"/>
<path d="M249.089 382.379H234.8C233.843 382.379 233.066 381.604 233.066 380.646V376.058C233.066 375.101 233.842 374.324 234.8 374.324H249.089C250.046 374.324 250.823 375.1 250.823 376.058V380.646C250.823 381.604 250.046 382.379 249.089 382.379Z" fill="#3C4AA0"/>
<path d="M300.7 365.664V373.027C300.7 374.859 299.219 376.34 297.387 376.34H195.752L195.851 365.664H300.7Z" fill="#111A75"/>
<path d="M323.524 242.003L300.699 365.664H273.717C273.717 365.664 281.358 363.042 282.436 345.676C282.983 336.903 281.852 324.369 277.219 306.509H278.557C283.747 306.509 287.958 302.298 287.958 297.108V231.605C287.958 230.59 287.832 229.621 287.608 228.678H312.426C319.484 228.678 324.799 235.071 323.524 242.003Z" fill="#111A75"/>
<path d="M313.001 242.003L290.176 365.664H273.717C273.717 365.664 281.358 363.042 282.436 345.676C282.983 336.903 281.852 324.369 277.219 306.509H278.557C283.747 306.509 287.958 302.298 287.958 297.108V231.605C287.958 230.59 287.832 229.621 287.608 228.678H301.902C308.96 228.678 314.276 235.071 313.001 242.003Z" fill="#B4B0FA"/>
<path d="M277.272 219.411C277.272 219.411 270.878 197.774 270.878 174.468C270.878 151.163 261.814 143.209 252.012 143.209H231.178C219.767 143.209 210.354 152.112 209.686 163.504C209.127 173.026 208.28 183.555 207.066 189.45C204.476 202.027 199.131 226.266 194.497 239.025C189.864 251.783 193.564 262.696 204.846 262.88C204.846 262.88 203.921 286.001 234.625 279.712C263.742 273.748 283.377 264.967 280.282 229.843C279.962 226.205 278.95 222.656 277.272 219.411Z" fill="#040962"/>
<path d="M220.242 169.485C218.343 169.485 216.437 169.167 214.992 168.214C213.554 167.264 212.744 165.8 212.582 163.864C211.855 155.143 218.966 149.645 219.269 149.415C219.467 149.265 219.748 149.306 219.898 149.501C220.048 149.699 220.009 149.98 219.812 150.131C219.741 150.184 212.792 155.569 213.476 163.79C213.615 165.461 214.273 166.663 215.485 167.464C219.361 170.022 227.416 167.398 227.498 167.371C227.732 167.292 227.988 167.421 228.065 167.655C228.143 167.891 228.015 168.145 227.781 168.223C227.552 168.299 223.911 169.485 220.242 169.485Z" fill="#101A77"/>
<path d="M250.4 166.595C250.159 166.595 249.96 166.404 249.952 166.162C249.949 166.075 249.657 157.51 248.885 154.657C248.82 154.417 248.961 154.171 249.201 154.106C249.444 154.04 249.688 154.183 249.751 154.422C250.55 157.376 250.837 165.776 250.849 166.132C250.858 166.38 250.664 166.587 250.416 166.595C250.409 166.595 250.404 166.595 250.4 166.595Z" fill="#101A77"/>
<path d="M285.21 223.863C248.647 243.177 221.413 235.661 212.003 231.899C213.161 230.938 214.391 230.049 215.693 229.268C220.901 226.152 228.094 221.797 232.431 218.96C235.834 216.733 237.019 213.025 237.306 209.666C237.638 205.761 236.749 202.34 236.749 202.34H233.706C224.807 202.34 217.597 195.129 217.597 186.231V166.145H250.398L254.86 205.644C255.74 213.429 262.322 219.301 270.152 219.301H275.656C279.517 219.301 282.956 221.079 285.21 223.863Z" fill="#FCE8D4"/>
<path d="M249.397 330.171C255.668 333.401 266.064 347.664 282.435 345.675C282.98 336.902 281.852 324.373 277.219 306.508H278.557C283.747 306.508 287.958 302.297 287.958 297.107V231.604C287.958 228.669 286.925 225.975 285.209 223.859C248.649 243.179 221.411 235.664 212.007 231.902C209.457 234.026 207.267 236.563 205.556 239.434L182.974 277.398C181.573 279.741 179.05 281.178 176.32 281.178H174.111V302.458H180.145C183.575 302.458 186.844 300.959 189.08 298.364L214.455 268.885C214.455 268.885 220.694 290.289 213.244 324.469L213.247 324.473C213.245 324.474 242.166 326.446 249.397 330.171Z" fill="#FE5A75"/>
<path d="M184.328 468.859C184.328 468.859 182.708 470.825 179.912 473.235C181.841 474.321 184.011 476.038 185.638 478.719C185.638 478.719 190.786 473.432 197.846 473.015C197.046 470.798 196.076 468.687 194.95 467.082L195.101 450.018H181.698L184.328 468.859Z" fill="#FCE8D4"/>
<path d="M185.639 478.718C184.012 476.038 181.841 474.32 179.913 473.235C176.039 476.573 169.903 480.767 162.644 481.789C162.644 481.789 158.864 481.484 157.14 484.043C156.556 484.914 157.14 486.099 158.172 486.279C163.111 487.105 178.016 489.026 198.318 486.27C199.584 486.09 200.5 484.968 200.383 483.702C200.164 481.304 199.281 476.986 197.847 473.014C190.787 473.431 185.639 478.718 185.639 478.718Z" fill="white"/>
<path d="M167.457 350.109C157.159 352.957 163.513 384.726 163.513 384.726L163.51 384.738C163.576 385.249 168.32 422.43 166.795 425.258C165.268 428.104 162.853 434.461 170.081 439.283C170.081 439.283 166.795 451.333 178.414 450.013H181.7L181.701 450.018H195.105L195.852 365.663H216.634C203.874 359.971 175.373 347.918 167.457 350.109Z" fill="#00BDFF"/>
<path d="M249.398 330.169C242.168 326.444 213.247 324.473 213.247 324.473L213.244 324.468C213.243 324.471 213.243 324.473 213.243 324.474C213.243 324.474 179.509 317.022 171.841 324.474C164.172 331.918 133.275 366.542 130.644 376.176C128.947 382.399 130.644 386.475 130.644 386.475C130.644 386.475 124.709 388.828 122.976 392.393C119.259 400.043 126.666 405.949 126.701 405.977H126.703C126.703 405.977 131.202 406.91 137.196 414.252L163.507 384.725C163.507 384.725 163.508 384.733 163.509 384.736L163.512 384.725C163.512 384.725 157.158 352.955 167.455 350.107C175.371 347.917 203.873 359.97 216.632 365.662H273.717C273.717 365.662 281.358 363.043 282.436 345.674C266.065 347.662 255.669 333.4 249.398 330.169Z" fill="#00AEF9"/>
<path d="M126.702 405.979H126.699L126.701 405.979L116.626 424.162C116.626 424.162 114.535 423.639 111.432 422.747C112.591 425.13 113.705 428.183 113.118 430.299C113.118 430.299 117.608 429.719 122.349 433.272C122.915 432.004 123.492 430.594 124.071 428.984L137.196 414.254C131.2 406.911 126.702 405.979 126.702 405.979Z" fill="#FCE8D4"/>
<path d="M113.118 430.297C113.706 428.183 112.591 425.129 111.432 422.746C105.192 420.953 94.8386 417.663 89.0335 414.095C88.2523 413.61 87.2467 413.763 86.663 414.481C86.3847 414.813 86.25 415.218 86.25 415.631C86.25 416.035 86.3847 416.439 86.6541 416.771C90.0841 420.964 102.386 435.483 112.963 441.122C114.911 442.164 117.345 441.67 118.647 439.883C119.693 438.45 120.987 436.317 122.348 433.27C117.608 429.718 113.118 430.297 113.118 430.297Z" fill="white"/>
<path d="M246.079 202.34C246.079 202.34 241.644 209.712 237.307 209.667C237.639 205.761 236.75 202.34 236.75 202.34H246.079Z" fill="#FFCB9C"/>
<path d="M214.457 269.337C214.271 269.337 214.097 269.22 214.032 269.034C213.982 268.889 209.12 254.373 217.24 240.768C217.368 240.553 217.643 240.486 217.856 240.613C218.069 240.739 218.139 241.015 218.012 241.229C210.112 254.466 214.833 268.601 214.881 268.742C214.962 268.977 214.837 269.233 214.603 269.314C214.556 269.329 214.505 269.337 214.457 269.337Z" fill="#FF8DA3"/>
<path d="M224.856 293.811C224.636 293.811 224.443 293.648 224.413 293.424C224.378 293.179 224.549 292.952 224.796 292.917L271.71 286.401L268.886 239.052C268.871 238.805 269.06 238.592 269.308 238.577C269.553 238.559 269.768 238.752 269.782 238.998L272.631 286.762C272.645 286.997 272.476 287.201 272.244 287.234L224.918 293.806C224.898 293.809 224.878 293.811 224.856 293.811Z" fill="#FF8DA3"/>
<path d="M224.858 306.836C224.703 306.836 224.56 306.757 224.478 306.627L223.479 305.041C223.347 304.831 223.41 304.554 223.619 304.422C223.829 304.291 224.107 304.352 224.238 304.562L225.104 305.938L276.059 305.806H276.06C276.307 305.806 276.508 306.006 276.509 306.254C276.51 306.502 276.309 306.704 276.061 306.704L224.858 306.836Z" fill="#FF8DA3"/>
<path d="M231.611 188.283C231.611 188.283 227.561 186.537 226.926 187.569C226.291 188.601 228.912 189.871 232.406 189.871C235.899 189.871 238.598 187.727 237.885 186.536C237.169 185.345 231.611 188.283 231.611 188.283Z" fill="white"/>
<path d="M232.708 192.846C231.337 192.846 230.358 192.368 230.297 192.338C230.076 192.227 229.986 191.959 230.096 191.736C230.206 191.513 230.476 191.425 230.697 191.533C230.715 191.543 232.611 192.453 234.682 191.526C234.907 191.424 235.173 191.525 235.275 191.751C235.376 191.978 235.275 192.243 235.048 192.345C234.213 192.72 233.41 192.846 232.708 192.846Z" fill="#FFCB9C"/>
<path d="M230.938 184.645C230.052 184.645 229.35 184.255 229.001 183.926C228.911 183.841 228.861 183.723 228.861 183.6V172.483C228.861 170.237 226.743 169.668 226.721 169.663C226.481 169.602 226.336 169.357 226.398 169.117C226.459 168.877 226.701 168.731 226.944 168.794C227.917 169.043 229.759 170.136 229.759 172.484V183.383C230.118 183.628 231.127 184.135 232.429 183.232C232.632 183.091 232.912 183.142 233.054 183.345C233.195 183.548 233.144 183.829 232.941 183.97C232.223 184.466 231.538 184.645 230.938 184.645Z" fill="#FFCB9C"/>
<path d="M237.426 174.1C236.38 174.1 235.528 174.951 235.528 175.998C235.528 177.044 236.38 177.896 237.426 177.896C238.473 177.896 239.324 177.045 239.324 175.998C239.324 174.951 238.473 174.1 237.426 174.1Z" fill="#040962"/>
<path d="M222.963 174.1C221.916 174.1 221.064 174.951 221.064 175.998C221.064 177.044 221.916 177.896 222.963 177.896C224.009 177.896 224.86 177.045 224.86 175.998C224.86 174.951 224.009 174.1 222.963 174.1Z" fill="#040962"/>
<path d="M243.014 183.578C244.707 183.578 246.08 182.205 246.08 180.512C246.08 178.818 244.707 177.445 243.014 177.445C241.32 177.445 239.947 178.818 239.947 180.512C239.947 182.205 241.32 183.578 243.014 183.578Z" fill="#FCBFAC"/>
<path d="M222.966 180.512C222.966 182.209 221.592 183.574 219.895 183.574C218.979 183.574 218.153 183.17 217.597 182.533V178.483C218.153 177.845 218.979 177.441 219.895 177.441C221.592 177.441 222.966 178.815 222.966 180.512Z" fill="#FCBFAC"/>
<path d="M242.169 170.153C242.128 170.153 242.085 170.148 242.043 170.136C236.675 168.57 234.6 170.048 234.581 170.062C234.382 170.208 234.101 170.171 233.954 169.975C233.805 169.779 233.839 169.502 234.034 169.351C234.128 169.277 236.428 167.564 242.295 169.274C242.533 169.344 242.67 169.593 242.601 169.831C242.542 170.027 242.364 170.153 242.169 170.153Z" fill="#040962"/>
<path d="M219.143 170.153C218.979 170.153 218.821 170.062 218.742 169.905C218.631 169.683 218.721 169.414 218.943 169.302C221.928 167.809 225.33 168.86 225.473 168.905C225.709 168.981 225.84 169.232 225.765 169.468C225.691 169.705 225.438 169.837 225.202 169.761C225.171 169.752 221.998 168.779 219.344 170.105C219.279 170.137 219.21 170.153 219.143 170.153Z" fill="#040962"/>
<path d="M261.053 151.051L246.392 142.659C244.947 140.256 242.321 138.639 239.32 138.639C236.571 138.639 234.138 139.995 232.636 142.067C228.818 140.291 226.492 141.348 225.614 141.944C224.106 139.942 221.717 138.64 219.023 138.64C214.472 138.64 210.769 142.343 210.769 146.895C210.769 151.447 214.472 155.15 219.023 155.15C223.575 155.15 227.279 151.447 227.279 146.895C227.279 145.357 226.848 143.921 226.112 142.686C226.792 142.223 228.764 141.299 232.143 142.829C231.459 144.031 231.063 145.416 231.063 146.895C231.063 151.447 234.767 155.15 239.319 155.15C243.87 155.15 247.573 151.447 247.573 146.895C247.573 145.906 247.389 144.962 247.069 144.083L260.606 151.832C260.676 151.872 260.753 151.891 260.829 151.891C260.984 151.891 261.136 151.81 261.219 151.665C261.343 151.448 261.268 151.174 261.053 151.051ZM219.023 154.252C214.966 154.252 211.666 150.951 211.666 146.894C211.666 142.837 214.967 139.537 219.023 139.537C223.081 139.537 226.381 142.837 226.381 146.894C226.381 150.951 223.081 154.252 219.023 154.252ZM239.32 154.252C235.262 154.252 231.962 150.951 231.962 146.894C231.962 142.837 235.263 139.537 239.32 139.537C243.376 139.537 246.676 142.837 246.676 146.894C246.676 150.951 243.375 154.252 239.32 154.252Z" fill="white"/>
<path d="M322.048 293.105C322.036 293.105 322.025 293.107 322.013 293.107V289.933C322.013 289.516 321.675 289.18 321.26 289.18H305.923C305.508 289.18 305.17 289.517 305.17 289.933V308.69C305.17 309.106 305.508 309.444 305.923 309.444H321.26C321.675 309.444 322.013 309.106 322.013 308.69V304.769C322.025 304.769 322.036 304.771 322.048 304.771C324.735 304.771 326.922 302.154 326.922 298.937C326.922 295.722 324.736 293.105 322.048 293.105ZM322.048 302.976C322.036 302.976 322.025 302.972 322.013 302.972V294.906C322.025 294.906 322.036 294.901 322.048 294.901C323.745 294.901 325.126 296.712 325.126 298.939C325.126 301.165 323.745 302.976 322.048 302.976Z" fill="#F9FBFC"/>
<path d="M310.69 321.162H304.923L250.297 482.274H255.986L307.807 329.437L359.627 482.274H365.316L310.69 321.162Z" fill="#040962"/>
<path d="M78.9488 321.162L24.3223 482.274H30.0115L81.832 329.437L133.652 482.274H139.342L84.7152 321.162H78.9488Z" fill="#040962"/>
<path d="M98.624 266.695L93.47 287.751L88.738 307.119H61.0283L71.956 275.459L74.9819 266.695H98.624Z" fill="#6161C9"/>
<path d="M100.375 266.695L95.0145 288.631L90.489 307.119H62.7793L73.4286 276.294L76.7419 266.695H100.375Z" fill="white"/>
<path d="M97.1707 304.801H51.9741C51.1157 304.801 50.4189 305.497 50.4189 306.356V307.89C50.4189 308.748 51.1148 309.445 51.9741 309.445H97.1707C98.0291 309.445 98.7259 308.749 98.7259 307.89V306.356C98.725 305.497 98.0291 304.801 97.1707 304.801Z" fill="#7F7FDD"/>
<path opacity="0.28" d="M100.375 266.695L95.0145 288.631L93.4701 287.751L73.4286 276.294L71.9561 275.459L74.982 266.695H100.375Z" fill="#6161C9"/>
<path d="M145.836 272.806H45.0028C43.5446 272.806 42.1376 271.624 41.8601 270.166L29.5219 205.4C29.389 204.7 29.5389 204.028 29.9394 203.533L30.2779 203.115C30.6784 202.62 31.297 202.342 31.9974 202.342H132.831C134.289 202.342 135.696 203.523 135.973 204.982L148.311 269.748C148.444 270.449 148.294 271.12 147.893 271.615L147.555 272.034C147.155 272.527 146.536 272.806 145.836 272.806Z" fill="#7F7FDD"/>
<path d="M145.883 270.839H46.5957C45.1375 270.839 43.7305 269.657 43.453 268.199L31.4102 204.98C31.1327 203.522 32.089 202.34 33.5472 202.34H132.834C134.292 202.34 135.699 203.522 135.977 204.98L148.02 268.199C148.297 269.657 147.34 270.839 145.883 270.839Z" fill="white"/>
<path d="M144.471 268.527H47.1221C46.604 268.527 46.1038 268.107 46.0051 267.589L34.1948 205.591C34.096 205.073 34.4363 204.652 34.9544 204.652H132.304C132.822 204.652 133.322 205.073 133.421 205.591L145.231 267.589C145.33 268.107 144.99 268.527 144.471 268.527Z" fill="#553F77"/>
<path d="M38.5837 211.157H40.0661C40.4756 211.157 40.744 210.825 40.6659 210.416C40.5878 210.006 40.1927 209.674 39.7833 209.674H38.3008C37.8914 209.674 37.6229 210.006 37.701 210.416C37.7791 210.825 38.1742 211.157 38.5837 211.157Z" fill="#5A91FF"/>
<path d="M53.4089 211.157H68.2343C68.6438 211.157 68.9123 210.825 68.8342 210.416C68.756 210.006 68.361 209.674 67.9515 209.674H53.126C52.7166 209.674 52.4481 210.006 52.5262 210.416C52.6043 210.825 52.9994 211.157 53.4089 211.157Z" fill="#362656"/>
<path d="M71.1989 211.157H72.6814C73.0908 211.157 73.3593 210.825 73.2812 210.416C73.203 210.006 72.808 209.674 72.3985 209.674H70.9161C70.5066 209.674 70.2381 210.006 70.3162 210.416C70.3944 210.825 70.7895 211.157 71.1989 211.157Z" fill="#7859B5"/>
<path d="M86.0241 211.157H90.8863C91.2958 211.157 91.5642 210.825 91.4861 210.416C91.408 210.006 91.0129 209.674 90.6035 209.674H85.7413C85.3318 209.674 85.0633 210.006 85.1414 210.416C85.2196 210.825 85.6146 211.157 86.0241 211.157Z" fill="#7859B5"/>
<path d="M75.6462 211.157H83.0594C83.4689 211.157 83.7374 210.825 83.6592 210.416C83.5811 210.006 83.186 209.674 82.7766 209.674H75.3643C74.9548 209.674 74.6864 210.006 74.7645 210.416C74.8417 210.825 75.2368 211.157 75.6462 211.157Z" fill="#735F99"/>
<path d="M43.0309 211.157H50.4432C50.8527 211.157 51.1211 210.825 51.043 210.416C50.9649 210.006 50.5698 209.674 50.1604 209.674H42.7481C42.3386 209.674 42.0702 210.006 42.1483 210.416C42.2264 210.825 42.6215 211.157 43.0309 211.157Z" fill="#735F99"/>
<path d="M61.5237 214.847C61.4456 214.438 61.0505 214.105 60.6411 214.105H44.334C43.9246 214.105 43.6561 214.438 43.7342 214.847C43.8123 215.257 44.2074 215.589 44.6169 215.589H60.9248C61.3334 215.589 61.6018 215.257 61.5237 214.847Z" fill="#735F99"/>
<path d="M41.3698 214.107H39.1465C38.7371 214.107 38.4686 214.44 38.5467 214.849C38.6248 215.259 39.0199 215.591 39.4294 215.591H41.6535C42.063 215.591 42.3314 215.259 42.2533 214.849C42.1743 214.439 41.7792 214.107 41.3698 214.107Z" fill="#FF6498"/>
<path d="M78.432 214.107H63.6065C63.197 214.107 62.9286 214.44 63.0067 214.849C63.0848 215.259 63.4799 215.591 63.8893 215.591H78.7148C79.1243 215.591 79.3927 215.259 79.3146 214.849C79.2365 214.439 78.8405 214.107 78.432 214.107Z" fill="#735F99"/>
<path d="M83.9064 215.589C84.3159 215.589 84.5844 215.257 84.5062 214.847C84.4281 214.438 84.033 214.105 83.6236 214.105H81.3995C80.99 214.105 80.7215 214.438 80.7996 214.847C80.8778 215.257 81.2729 215.589 81.6823 215.589H83.9064Z" fill="#7859B5"/>
<path d="M91.4492 214.107H86.587C86.1775 214.107 85.909 214.44 85.9871 214.849C86.0653 215.259 86.4604 215.591 86.8698 215.591H91.732C92.1415 215.591 92.4099 215.259 92.3318 214.849C92.2537 214.439 91.8586 214.107 91.4492 214.107Z" fill="#735F99"/>
<path d="M74.3698 220.02C74.7793 220.02 75.0478 219.688 74.9696 219.279C74.8915 218.869 74.4964 218.537 74.087 218.537H72.6045C72.1951 218.537 71.9266 218.869 72.0047 219.279C72.0828 219.688 72.4779 220.02 72.8874 220.02H74.3698Z" fill="#7859B5"/>
<path d="M40.2721 220.02H41.7546C42.1641 220.02 42.4325 219.688 42.3544 219.279C42.2763 218.869 41.8812 218.537 41.4718 218.537H39.9893C39.5798 218.537 39.3114 218.869 39.3895 219.279C39.4676 219.689 39.8627 220.02 40.2721 220.02Z" fill="#FFEE4D"/>
<path d="M76.452 219.281C76.5301 219.69 76.9252 220.022 77.3346 220.022H84.7469C85.1564 220.022 85.4249 219.69 85.3467 219.281C85.2686 218.871 84.8735 218.539 84.4641 218.539H77.0509C76.6424 218.539 76.3739 218.871 76.452 219.281Z" fill="#5A91FF"/>
<path d="M44.7194 220.02H52.1317C52.5411 220.02 52.8096 219.688 52.7315 219.279C52.6534 218.869 52.2583 218.537 51.8489 218.537H44.4366C44.0271 218.537 43.7586 218.869 43.8368 219.279C43.9149 219.689 44.31 220.02 44.7194 220.02Z" fill="#5A91FF"/>
<path d="M92.2939 218.539H87.4317C87.0222 218.539 86.7538 218.871 86.8319 219.281C86.91 219.69 87.3051 220.022 87.7145 220.022H92.5767C92.9862 220.022 93.2547 219.69 93.1765 219.281C93.0984 218.871 92.7034 218.539 92.2939 218.539Z" fill="#5A91FF"/>
<path d="M55.0993 220.02H69.9248C70.3342 220.02 70.6027 219.688 70.5246 219.279C70.4465 218.869 70.0514 218.537 69.6419 218.537H54.8164C54.407 218.537 54.1385 218.869 54.2166 219.279C54.2948 219.689 54.6898 220.02 55.0993 220.02Z" fill="#7859B5"/>
<path d="M93.1367 222.973H88.2745C87.865 222.973 87.5965 223.305 87.6746 223.714C87.7528 224.124 88.1479 224.456 88.5573 224.456H93.4195C93.829 224.456 94.0974 224.124 94.0193 223.714C93.9403 223.304 93.5452 222.973 93.1367 222.973Z" fill="#735F99"/>
<path d="M85.3111 222.973H83.087C82.6775 222.973 82.409 223.305 82.4871 223.714C82.5653 224.124 82.9603 224.456 83.3698 224.456H85.5939C86.0034 224.456 86.2719 224.124 86.1937 223.714C86.1156 223.304 85.7205 222.973 85.3111 222.973Z" fill="#362656"/>
<path d="M81.0021 223.712C80.924 223.303 80.5289 222.971 80.1195 222.971H65.294C64.8845 222.971 64.6161 223.303 64.6942 223.712C64.7723 224.122 65.1674 224.454 65.5768 224.454H80.4023C80.8118 224.454 81.0802 224.122 81.0021 223.712Z" fill="#735F99"/>
<path d="M45.4246 223.712C45.5028 224.122 45.8978 224.454 46.3073 224.454H62.6152C63.0247 224.454 63.2932 224.122 63.215 223.712C63.1369 223.303 62.7418 222.971 62.3324 222.971H46.0245C45.615 222.972 45.3465 223.303 45.4246 223.712Z" fill="#735F99"/>
<path d="M43.0582 222.973H40.834C40.4246 222.973 40.1561 223.305 40.2342 223.714C40.3123 224.124 40.7074 224.456 41.1169 224.456H43.341C43.7505 224.456 44.0189 224.124 43.9408 223.714C43.8627 223.304 43.4676 222.973 43.0582 222.973Z" fill="#5A91FF"/>
<path d="M93.9823 227.404H92.085C91.6756 227.404 91.4071 227.737 91.4852 228.146C91.5633 228.555 91.9584 228.888 92.3678 228.888H94.2651C94.6746 228.888 94.9431 228.555 94.865 228.146C94.7868 227.737 94.3918 227.404 93.9823 227.404Z" fill="#5A91FF"/>
<path d="M78.1425 228.146C78.0644 227.737 77.6693 227.404 77.2598 227.404H75.7774C75.3679 227.404 75.0995 227.737 75.1776 228.146C75.2557 228.555 75.6508 228.888 76.0602 228.888H77.5427C77.9512 228.887 78.2206 228.555 78.1425 228.146Z" fill="#5A91FF"/>
<path d="M72.8128 227.404H57.9873C57.5779 227.404 57.3094 227.737 57.3875 228.146C57.4657 228.555 57.8607 228.888 58.2702 228.888H73.0957C73.5051 228.888 73.7736 228.555 73.6955 228.146C73.6174 227.737 73.2223 227.404 72.8128 227.404Z" fill="#735F99"/>
<path d="M90.0021 228.146C89.9239 227.737 89.5289 227.404 89.1194 227.404H80.2247C79.8152 227.404 79.5467 227.737 79.6248 228.146C79.703 228.555 80.098 228.888 80.5075 228.888H89.4023C89.8117 228.887 90.0802 228.555 90.0021 228.146Z" fill="#735F99"/>
<path d="M46.4089 228.886H55.3046C55.714 228.886 55.9825 228.553 55.9044 228.144C55.8263 227.735 55.4312 227.402 55.0217 227.402H46.127C45.7175 227.402 45.4491 227.735 45.5272 228.144C45.6044 228.554 45.9995 228.886 46.4089 228.886Z" fill="#7859B5"/>
<path d="M41.9596 228.886H43.4421C43.8516 228.886 44.12 228.553 44.0419 228.144C43.9638 227.735 43.5687 227.402 43.1593 227.402H41.6768C41.2673 227.402 40.9989 227.735 41.077 228.144C41.156 228.554 41.5511 228.886 41.9596 228.886Z" fill="#FF6498"/>
<path d="M42.8053 233.319H44.2878C44.6973 233.319 44.9657 232.987 44.8876 232.578C44.8095 232.168 44.4144 231.836 44.005 231.836H42.5225C42.1131 231.836 41.8446 232.168 41.9227 232.578C42.0008 232.987 42.3959 233.319 42.8053 233.319Z" fill="#FFEE4D"/>
<path d="M47.2517 233.319H54.6649C55.0744 233.319 55.3428 232.987 55.2647 232.578C55.1866 232.168 54.7915 231.836 54.3821 231.836H46.9698C46.5603 231.836 46.2918 232.168 46.37 232.578C46.4472 232.987 46.8423 233.319 47.2517 233.319Z" fill="#362656"/>
<path d="M87.0002 231.836H79.5879C79.1785 231.836 78.91 232.168 78.9881 232.578C79.0662 232.987 79.4613 233.319 79.8708 233.319H87.2831C87.6925 233.319 87.961 232.987 87.8829 232.578C87.8048 232.167 87.4097 231.836 87.0002 231.836Z" fill="#735F99"/>
<path d="M94.8252 231.836H89.9629C89.5535 231.836 89.285 232.168 89.3631 232.578C89.4412 232.987 89.8363 233.319 90.2458 233.319H95.108C95.5174 233.319 95.7859 232.987 95.7078 232.578C95.6297 232.167 95.2346 231.836 94.8252 231.836Z" fill="#735F99"/>
<path d="M75.4225 233.319H76.905C77.3144 233.319 77.5829 232.987 77.5048 232.578C77.4267 232.168 77.0316 231.836 76.6221 231.836H75.1397C74.7302 231.836 74.4618 232.168 74.5399 232.578C74.618 232.987 75.0131 233.319 75.4225 233.319Z" fill="#5A91FF"/>
<path d="M57.6305 233.319H72.456C72.8655 233.319 73.134 232.987 73.0558 232.578C72.9777 232.168 72.5826 231.836 72.1732 231.836H57.3477C56.9382 231.836 56.6698 232.168 56.7479 232.578C56.826 232.987 57.2211 233.319 57.6305 233.319Z" fill="#735F99"/>
<path d="M47.9578 237.009C48.0359 237.419 48.431 237.751 48.8405 237.751H65.1484C65.5579 237.751 65.8263 237.419 65.7482 237.009C65.6701 236.6 65.275 236.268 64.8656 236.268H48.5576C48.1491 236.268 47.8797 236.601 47.9578 237.009Z" fill="#735F99"/>
<path d="M45.5884 236.27H43.3643C42.9548 236.27 42.6864 236.602 42.7645 237.011C42.8426 237.421 43.2377 237.753 43.6471 237.753H45.8713C46.2807 237.753 46.5492 237.421 46.4711 237.011C46.393 236.602 45.9979 236.27 45.5884 236.27Z" fill="#FF6498"/>
<path d="M83.5353 237.009C83.4572 236.6 83.0621 236.268 82.6527 236.268H67.8272C67.4177 236.268 67.1493 236.6 67.2274 237.009C67.3055 237.419 67.7006 237.751 68.11 237.751H82.9355C83.345 237.751 83.6134 237.419 83.5353 237.009Z" fill="#735F99"/>
<path d="M88.1271 237.751C88.5366 237.751 88.8051 237.419 88.7269 237.009C88.6488 236.6 88.2537 236.268 87.8443 236.268H85.6202C85.2107 236.268 84.9422 236.6 85.0204 237.009C85.0985 237.419 85.4935 237.751 85.903 237.751H88.1271Z" fill="#362656"/>
<path d="M95.6699 236.27H90.8077C90.3982 236.27 90.1297 236.602 90.2079 237.011C90.286 237.421 90.6811 237.753 91.0905 237.753H95.9527C96.3622 237.753 96.6306 237.421 96.5525 237.011C96.4744 236.602 96.0784 236.27 95.6699 236.27Z" fill="#735F99"/>
<path d="M79.1933 241.443C79.1152 241.033 78.7201 240.701 78.3106 240.701H76.8282C76.4187 240.701 76.1502 241.033 76.2284 241.443C76.3065 241.852 76.7016 242.185 77.111 242.185H78.5935C79.002 242.185 79.2714 241.852 79.1933 241.443Z" fill="#7859B5"/>
<path d="M96.5156 240.701H91.6534C91.2439 240.701 90.9754 241.033 91.0536 241.443C91.1317 241.852 91.5268 242.185 91.9362 242.185H96.7984C97.2079 242.185 97.4764 241.852 97.3982 241.443C97.3201 241.032 96.925 240.701 96.5156 240.701Z" fill="#362656"/>
<path d="M59.3201 242.185H74.1456C74.555 242.185 74.8235 241.852 74.7454 241.443C74.6672 241.033 74.2722 240.701 73.8627 240.701H59.0381C58.6287 240.701 58.3602 241.033 58.4383 241.443C58.5164 241.852 58.9115 242.185 59.3201 242.185Z" fill="#5A91FF"/>
<path d="M48.9421 242.185H56.3553C56.7648 242.185 57.0333 241.852 56.9551 241.443C56.877 241.033 56.4819 240.701 56.0725 240.701H48.6602C48.2507 240.701 47.9823 241.033 48.0604 241.443C48.1376 241.852 48.5327 242.185 48.9421 242.185Z" fill="#735F99"/>
<path d="M44.4958 242.185H45.9782C46.3877 242.185 46.6562 241.852 46.578 241.443C46.4999 241.033 46.1048 240.701 45.6954 240.701H44.2129C43.8035 240.701 43.535 241.033 43.6131 241.443C43.6912 241.852 44.0863 242.185 44.4958 242.185Z" fill="#FFEE4D"/>
<path d="M81.5583 242.185H88.9706C89.38 242.185 89.6485 241.852 89.5704 241.443C89.4923 241.033 89.0972 240.701 88.6877 240.701H81.2754C80.866 240.701 80.5975 241.033 80.6756 241.443C80.7537 241.852 81.1488 242.185 81.5583 242.185Z" fill="#7859B5"/>
<path d="M58.6815 246.616C59.0909 246.616 59.3594 246.284 59.2813 245.874C59.2032 245.465 58.8081 245.133 58.3986 245.133H49.503C49.0935 245.133 48.825 245.465 48.9032 245.874C48.9813 246.284 49.3764 246.616 49.7858 246.616H58.6815Z" fill="#7859B5"/>
<path d="M97.3612 245.133H95.4639C95.0545 245.133 94.786 245.465 94.8641 245.874C94.9422 246.284 95.3373 246.616 95.7468 246.616H97.644C98.0535 246.616 98.322 246.284 98.2439 245.874C98.1657 245.465 97.7707 245.133 97.3612 245.133Z" fill="#7859B5"/>
<path d="M79.4382 246.616H80.9206C81.3301 246.616 81.5985 246.284 81.5204 245.874C81.4423 245.465 81.0472 245.133 80.6378 245.133H79.1553C78.7459 245.133 78.4774 245.465 78.5555 245.874C78.6336 246.284 79.0287 246.616 79.4382 246.616Z" fill="#5A91FF"/>
<path d="M61.6462 246.616H76.4716C76.8811 246.616 77.1496 246.284 77.0715 245.874C76.9933 245.465 76.5983 245.133 76.1888 245.133H61.3633C60.9539 245.133 60.6854 245.465 60.7635 245.874C60.8416 246.284 61.2367 246.616 61.6462 246.616Z" fill="#735F99"/>
<path d="M45.3405 246.616H46.823C47.2324 246.616 47.5009 246.284 47.4228 245.874C47.3447 245.465 46.9496 245.133 46.5401 245.133H45.0577C44.6482 245.133 44.3797 245.465 44.4579 245.874C44.536 246.284 44.9311 246.616 45.3405 246.616Z" fill="#FF6498"/>
<path d="M83.8864 246.616H92.782C93.1915 246.616 93.46 246.284 93.3819 245.874C93.3037 245.465 92.9087 245.133 92.4992 245.133H83.6036C83.1941 245.133 82.9256 245.465 83.0037 245.874C83.0819 246.284 83.477 246.616 83.8864 246.616Z" fill="#735F99"/>
<path d="M98.206 249.566H93.3438C92.9343 249.566 92.6659 249.899 92.744 250.308C92.8221 250.718 93.2172 251.05 93.6266 251.05H98.4888C98.8983 251.05 99.1668 250.718 99.0886 250.308C99.0105 249.899 98.6154 249.566 98.206 249.566Z" fill="#7859B5"/>
<path d="M90.3755 249.566H88.1514C87.742 249.566 87.4735 249.899 87.5516 250.308C87.6297 250.718 88.0248 251.05 88.4343 251.05H90.6584C91.0678 251.05 91.3363 250.718 91.2582 250.308C91.1801 249.899 90.785 249.566 90.3755 249.566Z" fill="#5A91FF"/>
<path d="M67.3988 249.566H51.0909C50.6814 249.566 50.4129 249.899 50.4911 250.308C50.5692 250.718 50.9643 251.05 51.3737 251.05H67.6816C68.0911 251.05 68.3596 250.718 68.2815 250.308C68.2024 249.899 67.8074 249.566 67.3988 249.566Z" fill="#362656"/>
<path d="M85.1888 249.566H70.3633C69.9539 249.566 69.6854 249.899 69.7635 250.308C69.8416 250.718 70.2367 251.05 70.6462 251.05H85.4717C85.8811 251.05 86.1496 250.718 86.0715 250.308C85.9933 249.899 85.5974 249.566 85.1888 249.566Z" fill="#735F99"/>
<path d="M104.089 211.157H118.914C119.323 211.157 119.592 210.825 119.514 210.416C119.436 210.006 119.041 209.674 118.631 209.674H103.806C103.396 209.674 103.128 210.006 103.206 210.416C103.284 210.825 103.679 211.157 104.089 211.157Z" fill="#362656"/>
<path d="M121.879 211.157H123.361C123.77 211.157 124.039 210.825 123.961 210.416C123.883 210.006 123.488 209.674 123.078 209.674H121.596C121.186 209.674 120.918 210.006 120.996 210.416C121.074 210.825 121.469 211.157 121.879 211.157Z" fill="#7859B5"/>
<path d="M126.326 211.157H130.672C131.081 211.157 131.35 210.825 131.272 210.416C131.193 210.006 130.798 209.674 130.389 209.674H126.043C125.634 209.674 125.365 210.006 125.443 210.416C125.521 210.825 125.916 211.157 126.326 211.157Z" fill="#735F99"/>
<path d="M93.7106 211.157H101.123C101.532 211.157 101.801 210.825 101.723 210.416C101.645 210.006 101.25 209.674 100.84 209.674H93.4278C93.0183 209.674 92.7498 210.006 92.828 210.416C92.9061 210.825 93.3012 211.157 93.7106 211.157Z" fill="#735F99"/>
<path d="M111.345 214.847C111.267 214.438 110.872 214.105 110.462 214.105H94.1543C93.7449 214.105 93.4764 214.438 93.5545 214.847C93.6326 215.257 94.0277 215.589 94.4372 215.589H110.745C111.154 215.589 111.422 215.257 111.345 214.847Z" fill="#735F99"/>
<path d="M131.234 214.107H113.428C113.018 214.107 112.75 214.44 112.828 214.849C112.906 215.259 113.301 215.591 113.711 215.591H131.517C131.927 215.591 132.195 215.259 132.117 214.849C132.039 214.439 131.644 214.107 131.234 214.107Z" fill="#735F99"/>
<path d="M125.049 220.02C125.458 220.02 125.726 219.688 125.648 219.279C125.57 218.869 125.175 218.537 124.766 218.537H123.283C122.874 218.537 122.605 218.869 122.683 219.279C122.762 219.688 123.157 220.02 123.566 220.02H125.049Z" fill="#7859B5"/>
<path d="M127.132 219.281C127.21 219.69 127.605 220.022 128.014 220.022H131.989C132.399 220.022 132.667 219.69 132.589 219.281C132.511 218.871 132.116 218.539 131.707 218.539H127.731C127.323 218.539 127.054 218.871 127.132 219.281Z" fill="#5A91FF"/>
<path d="M95.3991 220.02H102.811C103.221 220.02 103.489 219.688 103.411 219.279C103.333 218.869 102.938 218.537 102.529 218.537H95.1163C94.7068 218.537 94.4383 218.869 94.5164 219.279C94.5946 219.689 94.9896 220.02 95.3991 220.02Z" fill="#5A91FF"/>
<path d="M105.779 220.02H120.604C121.014 220.02 121.282 219.688 121.204 219.279C121.126 218.869 120.731 218.537 120.322 218.537H105.496C105.087 218.537 104.818 218.869 104.896 219.279C104.974 219.689 105.37 220.02 105.779 220.02Z" fill="#7859B5"/>
<path d="M133.535 223.712C133.457 223.303 133.062 222.971 132.652 222.971H115.974C115.564 222.971 115.296 223.303 115.374 223.712C115.452 224.122 115.847 224.454 116.257 224.454H132.935C133.345 224.454 133.613 224.122 133.535 223.712Z" fill="#735F99"/>
<path d="M96.1043 223.712C96.1825 224.122 96.5775 224.454 96.987 224.454H113.295C113.704 224.454 113.973 224.122 113.895 223.712C113.817 223.303 113.422 222.971 113.012 222.971H96.7041C96.2947 222.972 96.0262 223.303 96.1043 223.712Z" fill="#735F99"/>
<path d="M128.822 228.146C128.744 227.737 128.349 227.404 127.94 227.404H126.457C126.048 227.404 125.779 227.737 125.857 228.146C125.935 228.555 126.33 228.888 126.74 228.888H128.222C128.632 228.887 128.9 228.555 128.822 228.146Z" fill="#5A91FF"/>
<path d="M123.493 227.404H108.667C108.258 227.404 107.989 227.737 108.067 228.146C108.145 228.555 108.54 228.888 108.95 228.888H123.775C124.185 228.888 124.453 228.555 124.375 228.146C124.297 227.737 123.902 227.404 123.493 227.404Z" fill="#735F99"/>
<path d="M134.749 228.146C134.671 227.737 134.276 227.404 133.866 227.404H130.901C130.492 227.404 130.223 227.737 130.302 228.146C130.38 228.555 130.775 228.888 131.184 228.888H134.149C134.559 228.887 134.827 228.555 134.749 228.146Z" fill="#735F99"/>
<path d="M97.0875 228.886H105.982C106.392 228.886 106.66 228.553 106.582 228.144C106.504 227.735 106.109 227.402 105.699 227.402H96.8038C96.3943 227.402 96.1258 227.735 96.2039 228.144C96.283 228.554 96.6781 228.886 97.0875 228.886Z" fill="#7859B5"/>
<path d="M97.9314 233.319H105.345C105.754 233.319 106.023 232.987 105.944 232.578C105.866 232.168 105.471 231.836 105.062 231.836H97.6495C97.24 231.836 96.9715 232.168 97.0496 232.578C97.1269 232.987 97.522 233.319 97.9314 233.319Z" fill="#362656"/>
<path d="M134.124 231.836H130.267C129.857 231.836 129.589 232.168 129.667 232.578C129.745 232.987 130.14 233.319 130.549 233.319H134.407C134.816 233.319 135.085 232.987 135.007 232.578C134.929 232.167 134.534 231.836 134.124 231.836Z" fill="#735F99"/>
<path d="M126.102 233.319H127.585C127.994 233.319 128.263 232.987 128.184 232.578C128.106 232.168 127.711 231.836 127.302 231.836H125.819C125.41 231.836 125.141 232.168 125.22 232.578C125.298 232.987 125.693 233.319 126.102 233.319Z" fill="#5A91FF"/>
<path d="M108.309 233.319H123.135C123.544 233.319 123.813 232.987 123.735 232.578C123.656 232.168 123.261 231.836 122.852 231.836H108.026C107.617 231.836 107.348 232.168 107.427 232.578C107.505 232.987 107.9 233.319 108.309 233.319Z" fill="#735F99"/>
<path d="M98.6373 237.009C98.7154 237.419 99.1105 237.751 99.5199 237.751H115.828C116.237 237.751 116.506 237.419 116.428 237.009C116.35 236.6 115.954 236.268 115.545 236.268H99.2371C98.8285 236.268 98.56 236.601 98.6373 237.009Z" fill="#735F99"/>
<path d="M136.438 237.009C136.36 236.6 135.965 236.268 135.556 236.268H118.507C118.097 236.268 117.829 236.6 117.907 237.009C117.985 237.419 118.38 237.751 118.79 237.751H135.838C136.248 237.751 136.516 237.419 136.438 237.009Z" fill="#735F99"/>
<path d="M129.873 241.443C129.795 241.033 129.4 240.701 128.99 240.701H127.508C127.098 240.701 126.83 241.033 126.908 241.443C126.986 241.852 127.381 242.185 127.791 242.185H129.273C129.683 242.185 129.951 241.852 129.873 241.443Z" fill="#7859B5"/>
<path d="M110 242.185H124.825C125.235 242.185 125.503 241.852 125.425 241.443C125.347 241.033 124.952 240.701 124.542 240.701H109.717C109.307 240.701 109.039 241.033 109.117 241.443C109.195 241.852 109.59 242.185 110 242.185Z" fill="#5A91FF"/>
<path d="M99.6198 242.185H107.032C107.442 242.185 107.71 241.852 107.632 241.443C107.554 241.033 107.159 240.701 106.749 240.701H99.337C98.9275 240.701 98.659 241.033 98.7371 241.443C98.8153 241.852 99.2104 242.185 99.6198 242.185Z" fill="#735F99"/>
<path d="M132.238 242.185H136.685C137.095 242.185 137.363 241.852 137.285 241.443C137.207 241.033 136.812 240.701 136.402 240.701H131.955C131.546 240.701 131.277 241.033 131.355 241.443C131.433 241.852 131.829 242.185 132.238 242.185Z" fill="#7859B5"/>
<path d="M109.361 246.616C109.771 246.616 110.039 246.284 109.961 245.874C109.883 245.465 109.488 245.133 109.078 245.133H100.183C99.7732 245.133 99.5047 245.465 99.5829 245.874C99.661 246.284 100.056 246.616 100.466 246.616H109.361Z" fill="#7859B5"/>
<path d="M130.118 246.616H131.6C132.01 246.616 132.278 246.284 132.2 245.874C132.122 245.465 131.727 245.133 131.317 245.133H129.835C129.426 245.133 129.157 245.465 129.235 245.874C129.313 246.284 129.708 246.616 130.118 246.616Z" fill="#5A91FF"/>
<path d="M112.325 246.616H127.15C127.56 246.616 127.828 246.284 127.75 245.874C127.672 245.465 127.277 245.133 126.868 245.133H112.042C111.633 245.133 111.364 245.465 111.442 245.874C111.52 246.284 111.915 246.616 112.325 246.616Z" fill="#735F99"/>
<path d="M134.565 246.616H137.799C138.209 246.616 138.477 246.284 138.399 245.874C138.321 245.465 137.926 245.133 137.517 245.133H134.283C133.874 245.133 133.605 245.465 133.683 245.874C133.762 246.284 134.157 246.616 134.565 246.616Z" fill="#735F99"/>
<path d="M138.463 249.566H137.975C137.565 249.566 137.297 249.899 137.375 250.308C137.453 250.718 137.848 251.05 138.257 251.05H138.746C139.155 251.05 139.424 250.718 139.346 250.308C139.268 249.899 138.873 249.566 138.463 249.566Z" fill="#5A91FF"/>
<path d="M118.078 249.566H101.771C101.361 249.566 101.093 249.899 101.171 250.308C101.249 250.718 101.644 251.05 102.053 251.05H118.361C118.771 251.05 119.039 250.718 118.961 250.308C118.883 249.899 118.488 249.566 118.078 249.566Z" fill="#362656"/>
<path d="M135.868 249.566H121.043C120.634 249.566 120.365 249.899 120.443 250.308C120.521 250.718 120.916 251.05 121.326 251.05H136.151C136.561 251.05 136.829 250.718 136.751 250.308C136.673 249.899 136.278 249.566 135.868 249.566Z" fill="#735F99"/>
<path d="M48.1246 249.566H45.9004C45.491 249.566 45.2225 249.899 45.3006 250.308C45.3787 250.718 45.7738 251.05 46.1833 251.05H48.4074C48.8169 251.05 49.0853 250.718 49.0072 250.308C48.9291 249.899 48.534 249.566 48.1246 249.566Z" fill="#5A91FF"/>
<path d="M46.8669 254.64H48.3493C48.7588 254.64 49.0272 254.307 48.9491 253.898C48.871 253.488 48.4759 253.156 48.0665 253.156H46.584C46.1746 253.156 45.9061 253.488 45.9842 253.898C46.0623 254.307 46.4583 254.64 46.8669 254.64Z" fill="#5A91FF"/>
<path d="M61.6921 254.64H76.5175C76.927 254.64 77.1955 254.307 77.1174 253.898C77.0392 253.488 76.6441 253.156 76.2347 253.156H61.4092C60.9998 253.156 60.7313 253.488 60.8094 253.898C60.8875 254.307 61.2826 254.64 61.6921 254.64Z" fill="#362656"/>
<path d="M79.4821 254.64H80.9646C81.374 254.64 81.6425 254.307 81.5644 253.898C81.4863 253.488 81.0912 253.156 80.6817 253.156H79.1993C78.7898 253.156 78.5213 253.488 78.5995 253.898C78.6776 254.307 79.0727 254.64 79.4821 254.64Z" fill="#7859B5"/>
<path d="M94.3073 254.64H99.1695C99.579 254.64 99.8474 254.307 99.7693 253.898C99.6912 253.488 99.2961 253.156 98.8867 253.156H94.0245C93.615 253.156 93.3465 253.488 93.4246 253.898C93.5028 254.307 93.8979 254.64 94.3073 254.64Z" fill="#7859B5"/>
<path d="M83.9294 254.64H91.3417C91.7511 254.64 92.0196 254.307 91.9415 253.898C91.8633 253.488 91.4683 253.156 91.0588 253.156H83.6465C83.2371 253.156 82.9686 253.488 83.0467 253.898C83.1248 254.307 83.5199 254.64 83.9294 254.64Z" fill="#735F99"/>
<path d="M51.3162 254.64H58.7294C59.1388 254.64 59.4073 254.307 59.3292 253.898C59.2511 253.488 58.856 253.156 58.4465 253.156H51.0342C50.6248 253.156 50.3563 253.488 50.4344 253.898C50.5116 254.307 50.9067 254.64 51.3162 254.64Z" fill="#735F99"/>
<path d="M69.8078 258.332C69.7297 257.922 69.3346 257.59 68.9252 257.59H52.6172C52.2078 257.59 51.9393 257.922 52.0174 258.332C52.0955 258.741 52.4906 259.073 52.9001 259.073H69.208C69.6166 259.072 69.8859 258.741 69.8078 258.332Z" fill="#735F99"/>
<path d="M49.6539 257.59H47.4297C47.0203 257.59 46.7518 257.922 46.8299 258.332C46.908 258.741 47.3031 259.073 47.7126 259.073H49.9367C50.3462 259.073 50.6146 258.741 50.5365 258.332C50.4584 257.922 50.0633 257.59 49.6539 257.59Z" fill="#FF6498"/>
<path d="M86.7152 257.59H71.8897C71.4802 257.59 71.2118 257.922 71.2899 258.332C71.368 258.741 71.7631 259.073 72.1725 259.073H86.998C87.4075 259.073 87.6759 258.741 87.5978 258.332C87.5197 257.922 87.1246 257.59 86.7152 257.59Z" fill="#735F99"/>
<path d="M92.1896 259.071C92.5991 259.071 92.8676 258.739 92.7894 258.33C92.7113 257.92 92.3162 257.588 91.9068 257.588H89.6827C89.2732 257.588 89.0047 257.92 89.0829 258.33C89.161 258.739 89.5561 259.071 89.9655 259.071H92.1896Z" fill="#7859B5"/>
<path d="M99.7324 257.59H94.8702C94.4607 257.59 94.1922 257.922 94.2704 258.332C94.3485 258.741 94.7436 259.073 95.153 259.073H100.015C100.425 259.073 100.693 258.741 100.615 258.332C100.537 257.922 100.142 257.59 99.7324 257.59Z" fill="#735F99"/>
<path d="M82.653 263.505C83.0625 263.505 83.331 263.173 83.2528 262.763C83.1747 262.354 82.7796 262.021 82.3702 262.021H80.8877C80.4783 262.021 80.2098 262.354 80.2879 262.763C80.366 263.173 80.7611 263.505 81.1706 263.505H82.653Z" fill="#7859B5"/>
<path d="M48.5544 263.505H50.0368C50.4463 263.505 50.7148 263.173 50.6366 262.763C50.5585 262.354 50.1634 262.021 49.754 262.021H48.2715C47.8621 262.021 47.5936 262.354 47.6717 262.763C47.7498 263.173 48.1449 263.505 48.5544 263.505Z" fill="#FFEE4D"/>
<path d="M84.7349 262.763C84.813 263.173 85.2081 263.505 85.6176 263.505H93.0299C93.4393 263.505 93.7078 263.173 93.6297 262.763C93.5515 262.354 93.1565 262.021 92.747 262.021H85.3347C84.9262 262.021 84.6577 262.354 84.7349 262.763Z" fill="#5A91FF"/>
<path d="M53.0037 263.505H60.4169C60.8263 263.505 61.0948 263.173 61.0167 262.763C60.9385 262.354 60.5435 262.021 60.134 262.021H52.7217C52.3123 262.021 52.0438 262.354 52.1219 262.763C52.1991 263.173 52.5942 263.505 53.0037 263.505Z" fill="#5A91FF"/>
<path d="M100.577 262.021H95.7149C95.3054 262.021 95.037 262.354 95.1151 262.763C95.1932 263.173 95.5883 263.505 95.9977 263.505H100.86C101.269 263.505 101.538 263.173 101.46 262.763C101.381 262.354 100.986 262.021 100.577 262.021Z" fill="#5A91FF"/>
<path d="M63.3825 263.505H78.208C78.6174 263.505 78.8859 263.173 78.8078 262.763C78.7297 262.354 78.3346 262.021 77.9251 262.021H63.0997C62.6902 262.021 62.4217 262.354 62.4998 262.763C62.578 263.173 62.973 263.505 63.3825 263.505Z" fill="#7859B5"/>
<path d="M112.374 254.64H127.199C127.609 254.64 127.877 254.307 127.799 253.898C127.721 253.488 127.326 253.156 126.916 253.156H112.091C111.681 253.156 111.413 253.488 111.491 253.898C111.569 254.307 111.964 254.64 112.374 254.64Z" fill="#362656"/>
<path d="M130.162 254.64H131.644C132.054 254.64 132.322 254.307 132.244 253.898C132.166 253.488 131.771 253.156 131.361 253.156H129.879C129.469 253.156 129.201 253.488 129.279 253.898C129.357 254.307 129.752 254.64 130.162 254.64Z" fill="#7859B5"/>
<path d="M134.609 254.64H139.427C139.837 254.64 140.105 254.307 140.027 253.898C139.949 253.488 139.554 253.156 139.144 253.156H134.326C133.917 253.156 133.648 253.488 133.726 253.898C133.805 254.307 134.2 254.64 134.609 254.64Z" fill="#735F99"/>
<path d="M101.994 254.64H109.406C109.816 254.64 110.084 254.307 110.006 253.898C109.928 253.488 109.533 253.156 109.123 253.156H101.711C101.302 253.156 101.033 253.488 101.111 253.898C101.189 254.307 101.584 254.64 101.994 254.64Z" fill="#735F99"/>
<path d="M119.628 258.332C119.55 257.922 119.155 257.59 118.745 257.59H102.438C102.028 257.59 101.76 257.922 101.838 258.332C101.916 258.741 102.311 259.073 102.72 259.073H119.028C119.438 259.072 119.706 258.741 119.628 258.332Z" fill="#735F99"/>
<path d="M139.888 257.59H121.711C121.302 257.59 121.033 257.922 121.111 258.332C121.189 258.741 121.584 259.073 121.994 259.073H140.171C140.581 259.073 140.849 258.741 140.771 258.332C140.693 257.922 140.298 257.59 139.888 257.59Z" fill="#735F99"/>
<path d="M133.332 263.505C133.741 263.505 134.01 263.173 133.932 262.763C133.853 262.354 133.458 262.021 133.049 262.021H131.566C131.157 262.021 130.889 262.354 130.967 262.763C131.045 263.173 131.44 263.505 131.849 263.505H133.332Z" fill="#7859B5"/>
<path d="M135.417 262.763C135.495 263.173 135.89 263.505 136.299 263.505H141.118C141.527 263.505 141.796 263.173 141.718 262.763C141.639 262.354 141.244 262.021 140.835 262.021H136.017C135.607 262.021 135.339 262.354 135.417 262.763Z" fill="#5A91FF"/>
<path d="M103.684 263.505H111.097C111.506 263.505 111.774 263.173 111.696 262.763C111.618 262.354 111.223 262.021 110.814 262.021H103.401C102.992 262.021 102.723 262.354 102.802 262.763C102.88 263.173 103.275 263.505 103.684 263.505Z" fill="#5A91FF"/>
<path d="M114.062 263.505H128.888C129.297 263.505 129.566 263.173 129.487 262.763C129.409 262.354 129.014 262.021 128.605 262.021H113.779C113.37 262.021 113.101 262.354 113.18 262.763C113.258 263.173 113.653 263.505 114.062 263.505Z" fill="#7859B5"/>
<path d="M345.191 321.334H44.4433C43.4574 321.334 42.6592 320.535 42.6592 319.55C42.6592 318.564 43.4583 317.766 44.4433 317.766H345.191C346.177 317.766 346.975 318.565 346.975 319.55C346.976 320.535 346.177 321.334 345.191 321.334Z" fill="#6161C9"/>
<path d="M365.813 318.579H23.8222C22.8363 318.579 22.0381 317.78 22.0381 316.795V311.229C22.0381 310.244 22.8372 309.445 23.8222 309.445H365.813C366.799 309.445 367.597 310.244 367.597 311.229V316.795C367.597 317.78 366.799 318.579 365.813 318.579Z" fill="#040962"/>
<path d="M223.868 293.361C223.868 293.361 216.629 290.972 212.307 289.567C207.985 288.163 201.071 290.756 196.101 294.429C196.101 294.429 192.644 297.347 193.832 298.319C195.02 299.292 200.746 294.646 205.716 294.105C205.716 294.105 194.156 301.452 195.345 304.045C195.74 304.909 197.18 304.715 198.922 304.076C198.66 304.551 198.579 304.963 198.823 305.233C199.437 305.915 202.772 304.709 205.799 303.412C205.211 303.841 204.826 304.282 204.853 304.694C204.96 306.314 214.252 302.1 214.252 302.1C214.252 302.1 220.194 305.99 224.3 303.505C224.3 303.505 225.921 296.722 223.868 293.361Z" fill="#FCE8D4"/>
<path d="M219.942 304.801H88.3135C87.2297 304.801 86.3516 305.679 86.3516 306.763V307.482C86.3516 308.566 87.2297 309.444 88.3135 309.444H219.942C221.025 309.444 221.904 308.566 221.904 307.482V306.763C221.904 305.679 221.025 304.801 219.942 304.801Z" fill="#B4B0FA"/>
<path d="M181.295 237.52L194.757 301.254C195.17 303.212 193.917 304.801 191.968 304.801H88.3309C86.3734 304.801 84.4483 303.212 84.0352 301.254L70.5728 237.52C70.1597 235.563 71.415 233.982 73.3725 233.982H177.01C178.958 233.982 180.882 235.563 181.295 237.52Z" fill="#7F7FDD"/>
<path d="M178.035 237.52L191.498 301.254C191.912 303.212 190.666 304.801 188.709 304.801H88.3309C86.3734 304.801 84.4483 303.212 84.0352 301.254L70.5728 237.52C70.1597 235.563 71.415 233.982 73.3725 233.982H173.75C175.708 233.982 177.622 235.563 178.035 237.52Z" fill="#A4A4F4"/>
<path d="M127.796 276.03C124.15 276.03 121.185 273.065 121.185 269.42C121.185 265.774 124.15 262.809 127.796 262.809C131.441 262.809 134.406 265.774 134.406 269.42C134.406 273.065 131.441 276.03 127.796 276.03ZM127.796 265.501C125.636 265.501 123.878 267.259 123.878 269.419C123.878 271.579 125.636 273.336 127.796 273.336C129.955 273.336 131.713 271.579 131.713 269.419C131.713 267.259 129.955 265.501 127.796 265.501Z" fill="white"/>
</g>
</g>
<defs>
<clipPath id="clip0_987_4832">
<rect width="390" height="525.833" fill="white" transform="translate(0 0.833984)"/>
</clipPath>
<clipPath id="clip1_987_4832">
<rect width="448.958" height="448.958" fill="white" transform="translate(-29.6611 97.9062)"/>
</clipPath>
</defs>
</svg>
