<svg width="390" height="526" viewBox="0 0 390 526" fill="none" xmlns="http://www.w3.org/2000/svg">
<g clip-path="url(#clip0_987_4713)">
<rect width="390" height="525.833" fill="#FEE2DF"/>
<g clip-path="url(#clip1_987_4713)">
<path d="M-66.3594 18.8763L-66.3594 551.424H457.111V18.8763H-66.3594Z" fill="#FEE2DF"/>
<path d="M91.5487 122.829H172.071C174.317 122.829 176.137 120.977 176.137 118.692V91.4005C176.137 89.1159 174.317 87.2637 172.071 87.2637H91.5487C89.303 87.2637 87.4834 89.1159 87.4834 91.3994V118.691C87.4824 120.978 89.303 122.829 91.5487 122.829Z" fill="white"/>
<path d="M160.534 100.893H101.615" stroke="#F1D5CE" stroke-width="1.90554" stroke-miterlimit="10" stroke-linecap="round" stroke-linejoin="round"/>
<path d="M121.986 110.344H101.812" stroke="#F1D5CE" stroke-width="1.90554" stroke-miterlimit="10" stroke-linecap="round" stroke-linejoin="round"/>
<path d="M163.678 118.096V134.181L143.524 118.096H163.678Z" fill="white"/>
<path d="M339.324 144.761H258.802C256.556 144.761 254.735 142.909 254.735 140.624V113.332C254.735 111.048 256.556 109.195 258.802 109.195H339.324C341.57 109.195 343.39 111.048 343.39 113.331V140.624C343.389 142.909 341.569 144.761 339.324 144.761Z" fill="white"/>
<path d="M270.336 122.822H329.255" stroke="#F1D5CE" stroke-width="1.90554" stroke-miterlimit="10" stroke-linecap="round" stroke-linejoin="round"/>
<path d="M308.887 132.273H329.06" stroke="#F1D5CE" stroke-width="1.90554" stroke-miterlimit="10" stroke-linecap="round" stroke-linejoin="round"/>
<path d="M267.194 140.029V156.113L287.348 140.029H267.194Z" fill="white"/>
<path d="M330.103 169.204H354.557C357.821 169.204 360.467 166.511 360.467 163.191C360.467 159.87 357.821 157.178 354.557 157.178H330.103C326.839 157.178 324.192 159.87 324.192 163.191C324.192 166.511 326.839 169.204 330.103 169.204Z" fill="#FC8491"/>
<path d="M347.517 163.207C347.513 164.093 348.218 164.814 349.089 164.817C349.96 164.82 350.669 164.103 350.671 163.217C350.674 162.331 349.97 161.61 349.099 161.607C348.228 161.604 347.52 162.321 347.517 163.207Z" fill="white"/>
<path d="M340.752 163.182C340.749 164.068 341.453 164.789 342.324 164.791C343.196 164.794 343.904 164.078 343.906 163.191C343.91 162.305 343.205 161.584 342.334 161.582C341.464 161.579 340.755 162.295 340.752 163.182Z" fill="white"/>
<path d="M333.984 163.162C333.981 164.048 334.686 164.77 335.557 164.772C336.428 164.775 337.137 164.058 337.139 163.172C337.142 162.286 336.437 161.565 335.566 161.563C334.695 161.56 333.986 162.276 333.984 163.162Z" fill="white"/>
<path d="M218.299 151.31C223.947 151.31 228.526 146.651 228.526 140.905C228.526 135.158 223.947 130.5 218.299 130.5C212.65 130.5 208.071 135.158 208.071 140.905C208.071 146.651 212.65 151.31 218.299 151.31Z" fill="#FCA542"/>
<path d="M214.196 141.913L217.096 143.924L222.4 137.709" stroke="white" stroke-width="1.69824" stroke-miterlimit="10" stroke-linecap="round" stroke-linejoin="round"/>
<path d="M192.594 355.923H137.202C103.159 355.923 78.3762 333.953 72.5217 298.589L58.7807 215.573C58.1661 211.863 60.6254 208.348 64.2719 207.725C67.91 207.09 71.3733 209.601 71.9868 213.313L85.7278 296.326C90.4935 325.112 109.736 342.298 137.202 342.298H192.594C196.292 342.298 199.29 345.347 199.29 349.11C199.292 352.873 196.292 355.923 192.594 355.923Z" fill="#F9F6F2"/>
<path d="M191.966 468.811L167.112 354.112C164.197 340.657 152.477 331.074 138.932 331.074C125.187 331.074 113.349 340.938 110.642 354.648L88.0889 468.811" stroke="#55382E" stroke-width="2.15335" stroke-miterlimit="10"/>
<path d="M129.177 195.033C129.177 195.033 124.14 198.806 122.371 192.912C120.602 187.016 117.85 191.349 115.734 187C114.091 183.623 116.034 181.351 114.131 178.801C111.013 174.62 114.458 170.982 120.891 170.982C127.323 170.982 141.461 187.252 129.177 195.033Z" fill="#33354A"/>
<path d="M151.751 175.672C150.217 168.503 144.05 163.184 136.837 163.195C134.648 163.199 132.397 163.692 130.289 165C125.286 168.102 124.192 176.289 124.122 182.451L125.288 190.053L127.448 221.667C133.839 240.83 148.943 238.719 146.873 214.623L145.242 198.875C154.19 195.362 153.473 183.721 151.751 175.672Z" fill="#BA7053"/>
<path d="M145.238 198.873C145.238 198.873 141.108 200.832 134.755 197.385C134.755 197.385 138.766 204.058 145.954 205.88L145.238 198.873Z" fill="#A55D43"/>
<path d="M125.151 180.223C125.338 181.793 124.542 183.183 123.374 183.328C122.205 183.472 121.105 182.317 120.918 180.747C120.731 179.177 121.526 177.787 122.695 177.643C123.864 177.498 124.963 178.654 125.151 180.223Z" fill="#BA7053"/>
<path d="M145.239 198.873C144.489 199.452 143.535 199.705 142.606 199.823C141.665 199.939 140.716 199.858 139.794 199.693C138.869 199.522 137.981 199.214 137.13 198.839C136.708 198.643 136.301 198.415 135.897 198.19C135.508 197.931 135.12 197.677 134.756 197.385C135.214 197.485 135.649 197.622 136.082 197.756C136.521 197.876 136.953 198.001 137.382 198.131C138.249 198.35 139.1 198.603 139.968 198.746C140.829 198.92 141.699 199.034 142.577 199.074C143.452 199.096 144.337 199.08 145.239 198.873Z" fill="#36384A"/>
<path d="M123.652 179.61C123.652 179.61 122.388 179.517 122.367 180.564C122.345 181.611 123.568 181.315 123.568 181.315" stroke="#33354A" stroke-width="1.01354" stroke-miterlimit="10" stroke-linecap="round"/>
<path d="M138.456 185.761C139.226 186.527 140.055 187.174 140.941 187.635C141.837 188.077 142.791 188.291 143.738 188.185C144.69 188.073 145.593 187.651 146.482 187.154L147.764 186.27C148.172 185.935 148.581 185.597 149.032 185.279C148.752 185.746 148.43 186.189 148.107 186.637C147.74 187.043 147.353 187.444 146.936 187.813C146.058 188.501 145.019 189.055 143.845 189.209C142.669 189.327 141.469 188.986 140.539 188.325C139.614 187.664 138.884 186.774 138.456 185.761Z" fill="#33354A"/>
<path d="M142.645 175.266C143.967 175.955 145.017 176.91 146.084 177.725C146.219 177.814 146.342 177.925 146.47 178.001C146.536 178.05 146.591 178.072 146.65 178.104C146.687 178.123 146.672 178.123 146.821 178.188C146.932 178.238 147.066 178.38 147.111 178.533C147.177 178.829 147.089 178.957 147.046 179.072C146.992 179.187 146.935 179.276 146.875 179.36C146.758 179.528 146.63 179.669 146.498 179.803C145.977 180.337 145.403 180.776 144.786 181.162C145.2 180.562 145.631 179.982 146.009 179.401C146.099 179.255 146.185 179.107 146.255 178.97C146.289 178.902 146.318 178.833 146.331 178.78C146.354 178.731 146.323 178.675 146.339 178.794C146.383 178.959 146.574 178.988 146.375 178.935C146.268 178.902 146.154 178.869 146.067 178.825C145.875 178.743 145.703 178.657 145.539 178.553C144.899 178.14 144.357 177.648 143.869 177.104C143.396 176.548 142.955 175.963 142.645 175.266Z" fill="#33354A"/>
<path d="M138.262 175.727C138.648 176.539 138.918 177.382 139.043 178.299C139.107 178.757 139.119 179.237 139.013 179.739C138.916 180.231 138.639 180.797 138.129 181.119C137.615 181.455 136.958 181.423 136.489 181.257C136.002 181.091 135.599 180.838 135.242 180.548C134.53 179.962 133.955 179.295 133.469 178.536C133.371 178.383 133.413 178.181 133.563 178.082C133.694 177.995 133.863 178.017 133.969 178.127L133.982 178.139C134.552 178.728 135.161 179.321 135.807 179.774C136.439 180.236 137.191 180.54 137.605 180.246C138.079 180.001 138.206 179.173 138.165 178.381C138.126 177.578 137.956 176.738 137.756 175.93L137.753 175.917C137.716 175.768 137.805 175.616 137.95 175.579C138.078 175.546 138.208 175.61 138.262 175.727Z" fill="#33354A"/>
<path d="M149.08 172.141C149.453 172.89 149.731 173.665 149.91 174.503C150.003 174.922 150.049 175.358 150.019 175.831C149.984 176.273 149.848 176.92 149.244 177.266C148.956 177.433 148.606 177.446 148.337 177.39C148.061 177.334 147.835 177.226 147.632 177.107C147.23 176.865 146.899 176.584 146.608 176.272C146.024 175.652 145.542 174.989 145.136 174.254C145.049 174.095 145.104 173.895 145.26 173.807C145.395 173.73 145.561 173.762 145.66 173.875L145.668 173.885C146.178 174.471 146.704 175.071 147.262 175.578C147.545 175.824 147.826 176.072 148.117 176.23C148.411 176.4 148.669 176.427 148.77 176.36C148.902 176.317 149.026 176.076 149.063 175.738C149.101 175.403 149.071 175.028 149.036 174.649C148.946 173.891 148.764 173.109 148.572 172.346L148.569 172.336C148.531 172.187 148.62 172.035 148.767 171.997C148.895 171.964 149.023 172.027 149.08 172.141Z" fill="#33354A"/>
<path d="M130.391 168.251C130.391 168.251 135.843 172.679 138.451 168.251C138.451 168.251 144.722 173.521 149.028 166.996C153.335 160.471 142.644 160.22 142.644 160.22C142.644 160.22 145.03 151.436 138.451 151.436C131.871 151.436 130.037 147.594 126.535 151.156C120.265 157.534 122.369 160.926 116.881 165.048C113.308 167.732 111.033 173.831 118.807 176.486C120.42 177.037 122.002 176.486 124.326 178.331C126.167 179.792 132.706 178.211 130.391 168.251Z" fill="#33354A"/>
<path d="M159.917 212.413C157.702 211.318 152.822 210.625 146.796 211.669C146.796 211.669 145.96 214.036 139.728 214.651C133.644 215.252 126.779 211 126.779 211C121.427 210.836 112.416 208.545 108.79 213.625C93.0761 235.638 96.9498 301.245 100.811 304.703C105.276 308.702 111.891 310.25 117.994 309.357C124.098 308.464 126.616 308.425 145.966 311.457C160.182 313.684 167.437 309.184 169.607 307.151C174.78 302.306 167.738 216.278 159.917 212.413Z" fill="#C5BA9F"/>
<path d="M126.771 211C126.771 211 132.28 215.536 139.719 214.651C147.159 213.765 146.787 211.669 146.787 211.669" stroke="#33354A" stroke-width="1.01354" stroke-miterlimit="10" stroke-linecap="round"/>
<path d="M234.815 438.507L236.206 461.706H221.624L218.309 438.453L234.815 438.507Z" fill="#BA7053"/>
<path d="M220.849 468.872L220.37 460.559L227.297 460.147C227.297 460.147 234.728 451.502 236.131 452.624C237.534 453.745 236.489 456.972 240.261 459.987C244.033 463.001 254.619 461.663 255.019 466.838C255.316 470.697 220.849 468.872 220.849 468.872Z" fill="#282738"/>
<path d="M218.304 444.219L219.693 448.198L235.24 445.681L235.752 440.377C235.752 440.377 223.969 436.819 218.304 444.219Z" fill="#5E4A42"/>
<path d="M248.804 380.679L262.227 401.103L273.761 394.076L265.764 374.705L248.804 380.679Z" fill="#BA7053"/>
<path d="M264.714 407.989L261.473 400.343L267.843 397.547C267.843 397.547 271.923 386.84 273.618 387.406C275.313 387.972 275.416 391.369 279.973 392.89C284.53 394.412 296.168 388.691 298.402 393.357C300.072 396.846 264.714 407.989 264.714 407.989Z" fill="#282738"/>
<path d="M251.998 388.185L256.657 392.631L270.077 385.157L268.475 378.785L251.998 388.185Z" fill="#5E4A42"/>
<path d="M100.802 304.702C100.802 304.702 196.135 286.97 214.594 295.448C244.094 308.996 272.564 364.688 270.271 378.684C269.114 385.741 265.058 379.56 254.913 389.881C245.879 399.071 216.658 342.031 216.658 342.031C192.169 342.031 166.65 344.823 120.531 342.017C100.064 340.772 97.47 313.683 100.802 304.702Z" fill="#7B6155"/>
<path d="M161.562 340.078C161.562 340.078 186.819 339.073 192.311 366.526C198.697 398.445 208.599 447.583 219.102 444.035C223.365 442.595 228.423 441.346 236.711 441.346C248.589 441.346 233.468 392.753 230.419 364.525C226.873 331.713 188.101 315.647 163.988 337.733C163.179 338.475 162.371 339.255 161.562 340.078Z" fill="#7B6155"/>
<path d="M157.629 290.041L163.417 294.269L204.482 259.007L304.476 202.847L299.076 198.861L230.48 220.302L157.629 290.041Z" fill="#CB9DA8"/>
<path d="M171.815 202.116L155.537 284.396C154.84 287.918 157.487 291.207 161.017 291.207H278.2C280.836 291.207 283.116 289.332 283.667 286.71L300.979 204.429C301.725 200.889 299.071 197.551 295.512 197.551H177.297C174.635 197.551 172.341 199.46 171.815 202.116Z" fill="#F2B655"/>
<path d="M177.098 205.997L160.819 288.277C160.123 291.799 162.769 295.088 166.299 295.088H283.481C286.119 295.088 288.397 293.214 288.948 290.591L306.261 208.31C307.006 204.77 304.352 201.432 300.794 201.432H182.578C179.916 201.432 177.623 203.341 177.098 205.997Z" fill="#FFDCA4"/>
<path d="M219.755 273.33L217.569 295.087H227.079L219.755 273.33Z" fill="#D19A4A"/>
<path d="M219.758 272.881L229.462 321.6H264.838L248.245 272.881H219.758Z" fill="#FDCE79"/>
<path d="M245.982 237.242C246.981 232.95 244.371 228.647 240.152 227.63C235.933 226.614 231.703 229.269 230.704 233.561C229.705 237.853 232.315 242.156 236.533 243.173C240.752 244.189 244.982 241.534 245.982 237.242Z" fill="#FFEDD2"/>
<path d="M285.763 317.066H202.374C201.097 317.066 200.061 318.12 200.061 319.42C200.061 320.72 201.096 321.774 202.374 321.774H285.763C287.041 321.774 288.077 320.72 288.077 319.42C288.077 318.12 287.041 317.066 285.763 317.066Z" fill="#F2B655"/>
<path d="M181.802 317.066H137.636C136.359 317.066 135.322 318.12 135.322 319.42C135.322 320.72 136.358 321.774 137.636 321.774H181.802C183.081 321.774 184.116 320.72 184.116 319.42C184.116 318.12 183.081 317.066 181.802 317.066Z" fill="#F2B655"/>
<path d="M156.791 317.388C156.791 317.388 158.233 312.988 166.018 312.988C173.803 312.988 176.974 314.895 178.128 317.388H156.791Z" fill="#F2B655"/>
<path d="M134.367 301.689L153.693 308.62C156.061 309.217 158.475 309.588 160.907 309.786C165.445 310.155 173.319 311.293 175.394 314.8L157.913 315.192C152.084 315.192 126.564 312.064 126.564 312.064L134.367 301.689Z" fill="#BA7053"/>
<path d="M128.986 215.332C128.986 215.332 114.678 207.624 108.779 213.624C103.27 219.228 90.9364 242.726 85.4253 261.203C82.3577 271.486 73.6639 287.661 99.5862 303.231C110.269 309.648 111.349 308.089 121.997 313.763C124.317 314.998 136.677 314.749 139.254 315.422L145.061 304.428C145.061 304.428 140.632 301.542 140.021 299.776C136.986 290.997 117.688 285.359 117.688 276.596C117.69 264.527 128.986 215.332 128.986 215.332Z" fill="#C5BA9F"/>
<path d="M117.238 263.383C117.238 263.383 105.066 278.242 122.463 285.098C126.56 286.713 133.718 290.04 136.169 294.504" stroke="#33354A" stroke-width="1.01354" stroke-miterlimit="10" stroke-linecap="round"/>
<path d="M396.675 468.307H-17.7119" stroke="#213033" stroke-width="1.04694" stroke-miterlimit="10"/>
<path d="M334.147 289.451C334.147 289.451 346.54 278.349 340.818 267.611C335.095 256.873 332.284 258.237 336.979 249.115C341.674 239.992 340.675 237.493 334.565 228.874C328.456 220.254 334.288 203.136 330.884 195.046C327.768 187.638 321.738 182.827 321.738 195.533C321.738 209.64 326.163 212.416 322.085 225.802C318.008 239.188 310.449 252.507 320.099 258.005C329.749 263.503 320.496 274.311 323.46 283.578C326.422 292.846 334.147 289.451 334.147 289.451Z" stroke="#5F9399" stroke-width="0.890422" stroke-miterlimit="10"/>
<path d="M321.734 278.452C321.035 276.829 322.779 269.899 318.863 264.65C314.948 259.401 314.713 258.961 317.056 249.692C319.4 240.422 315.548 233.715 315.852 222.722C316.157 211.728 322.939 203.431 325.665 212.753C328.392 222.077 329.195 223.058 327.419 232.869C325.643 242.679 329.603 239.072 330.67 251.589C331.735 264.106 328.88 295.023 321.734 278.452Z" fill="#308480"/>
<path d="M312.295 279.394L346.03 279.203L335.719 321.514L320.257 321.601L312.295 279.394Z" fill="#FCA542"/>
<path d="M127.213 329.277V468.21" stroke="#55382E" stroke-width="2.15335" stroke-miterlimit="10"/>
<path d="M40.6504 329.277V468.21" stroke="#55382E" stroke-width="2.15335" stroke-miterlimit="10"/>
<path d="M337.27 329.277V468.21" stroke="#55382E" stroke-width="2.15335" stroke-miterlimit="10"/>
<path d="M250.715 329.277V468.21" stroke="#55382E" stroke-width="2.15335" stroke-miterlimit="10"/>
<path d="M102.417 321.607H20.5273V332.779H102.417V321.607Z" fill="#BBCCD7"/>
<path d="M359.533 321.607H102.264V332.779H359.533V321.607Z" fill="#F9F6F2"/>
</g>
</g>
<defs>
<clipPath id="clip0_987_4713">
<rect width="390" height="525.833" fill="white"/>
</clipPath>
<clipPath id="clip1_987_4713">
<rect width="523.47" height="532.547" fill="white" transform="translate(-66.3574 18.875)"/>
</clipPath>
</defs>
</svg>
