<svg width="117" height="124" viewBox="0 0 117 124" fill="none" xmlns="http://www.w3.org/2000/svg">
<g clip-path="url(#clip0_1971_26527)">
<path d="M114.915 88.2002C114.299 86.7207 113.682 85.1179 113.066 83.7617C112.08 81.5425 111.093 79.4465 110.23 77.4739L110.107 77.3506C101.6 58.8569 92.4763 40.1167 82.8596 21.623L82.4897 20.8833C81.5034 19.0339 80.5171 17.0613 79.5307 15.0886C78.2978 12.8694 77.0649 10.5269 75.0923 8.30762C71.1469 3.37598 65.4756 0.663574 59.4343 0.663574C53.2698 0.663574 47.7217 3.37598 43.6531 8.06104C41.8037 10.2803 40.4475 12.6228 39.2146 14.842C38.2283 16.8147 37.2419 18.7874 36.2556 20.6367L35.8857 21.3765C26.3923 39.8701 17.1455 58.6104 8.63845 77.104L8.51515 77.3506C7.65212 79.3232 6.66579 81.4192 5.67946 83.6384C5.06301 84.9946 4.44655 86.4741 3.8301 88.0769C2.22731 92.6387 1.73415 96.9539 2.3506 101.392C3.70681 110.639 9.87136 118.407 18.3784 121.859C21.584 123.215 24.9128 123.831 28.365 123.831C29.3513 123.831 30.5842 123.708 31.5705 123.585C35.6391 123.092 39.831 121.735 43.8996 119.393C48.9546 116.557 53.7629 112.489 59.1877 106.571C64.6125 112.489 69.5442 116.557 74.4758 119.393C78.5444 121.735 82.7363 123.092 86.8049 123.585C87.7912 123.708 89.0241 123.831 90.0105 123.831C93.4626 123.831 96.9148 123.215 99.997 121.859C108.627 118.407 114.669 110.516 116.025 101.392C117.011 97.0771 116.518 92.762 114.915 88.2002ZM59.311 94.6113C52.6533 86.2275 48.3381 78.3369 46.8586 71.6792C46.2422 68.8435 46.1189 66.3777 46.4887 64.1584C46.7353 62.1858 47.4751 60.4597 48.4614 58.9802C50.8039 55.6514 54.7492 53.5554 59.311 53.5554C63.8728 53.5554 67.9414 55.5281 70.1606 58.9802C71.1469 60.4597 71.8867 62.1858 72.1333 64.1584C72.5031 66.3777 72.3799 68.9668 71.7634 71.6792C70.2839 78.2136 65.9687 86.1042 59.311 94.6113ZM108.504 100.406C107.641 106.817 103.326 112.365 97.2846 114.831C94.3257 116.064 91.1201 116.434 87.9145 116.064C84.8322 115.694 81.75 114.708 78.5444 112.858C74.1059 110.393 69.6674 106.571 64.4892 100.899C72.6264 90.9126 77.5581 81.7891 79.4074 73.6519C80.2705 69.8298 80.3938 66.3777 80.0239 63.1721C79.5307 60.0898 78.4211 57.2542 76.695 54.7883C72.873 49.2402 66.4619 46.0347 59.311 46.0347C52.1601 46.0347 45.749 49.3635 41.927 54.7883C40.2009 57.2542 39.0913 60.0898 38.5981 63.1721C38.105 66.3777 38.2283 69.9531 39.2146 73.6519C41.0639 81.7891 46.1189 91.0359 54.1328 101.022C49.0779 106.694 44.5161 110.516 40.0776 112.982C36.872 114.831 33.7898 115.817 30.7075 116.187C27.3786 116.557 24.1731 116.064 21.3374 114.954C15.2961 112.489 10.981 106.94 10.1179 100.529C9.74806 97.447 9.99465 94.3647 11.2276 90.9126C11.5974 89.6797 12.2139 88.4468 12.8303 86.9673C13.6933 84.9946 14.6797 82.8987 15.666 80.8027L15.7893 80.5562C24.2964 62.1858 33.4199 43.4456 42.9133 25.1985L43.2832 24.4587C44.2695 22.6094 45.2558 20.6367 46.2422 18.7874C47.2285 16.8147 48.3381 14.9653 49.6943 13.3625C52.2834 10.4036 55.7356 8.80078 59.5576 8.80078C63.3796 8.80078 66.8318 10.4036 69.4209 13.3625C70.7771 14.9653 71.8867 16.8147 72.873 18.7874C73.8594 20.6367 74.8457 22.6094 75.832 24.4587L76.2019 25.1985C85.572 43.5688 94.6955 62.3091 103.203 80.6794V80.8027C104.189 82.7754 105.052 84.9946 106.038 86.9673C106.655 88.4468 107.271 89.6797 107.641 90.9126C108.627 94.1182 108.997 97.2004 108.504 100.406Z" fill="#FF5A5F"/>
</g>
<defs>
<clipPath id="clip0_1971_26527">
<rect width="115.894" height="123.291" fill="white" transform="translate(0.871094 0.665039)"/>
</clipPath>
</defs>
</svg>
