<svg width="124" height="124" viewBox="0 0 124 124" fill="none" xmlns="http://www.w3.org/2000/svg">
<g clip-path="url(#clip0_1971_26529)">
<path d="M106.806 100.2C56.8983 123.952 25.9248 104.079 6.09775 92.009C4.87086 91.2483 2.78557 92.1869 4.59484 94.2651C11.2002 102.274 32.8475 121.579 61.1035 121.579C89.3789 121.579 106.2 106.15 108.304 103.459C110.394 100.79 108.918 99.3182 106.806 100.2H106.806ZM120.823 92.4591C119.483 90.7139 112.673 90.3885 108.388 90.915C104.096 91.4262 97.6536 94.0493 98.2137 95.6243C98.5011 96.2142 99.0878 95.9496 102.036 95.6845C104.993 95.3895 113.275 94.3443 115.001 96.6003C116.735 98.872 112.359 109.693 111.56 111.439C110.788 113.184 111.855 113.634 113.305 112.472C114.736 111.31 117.325 108.301 119.063 104.042C120.789 99.7607 121.841 93.788 120.822 92.4591H120.823Z" fill="#FF9900"/>
<path fill-rule="evenodd" clip-rule="evenodd" d="M73.2493 51.7402C73.2493 57.9724 73.4067 63.1697 70.2567 68.7042C67.7143 73.2044 63.6869 75.9717 59.1872 75.9717C53.0447 75.9717 49.4674 71.2918 49.4674 64.3847C49.4674 50.75 61.6841 48.2753 73.2493 48.2753V51.7402ZM89.381 90.7314C88.3234 91.6761 86.7934 91.7439 85.6012 91.1136C80.2914 86.704 79.3462 84.6567 76.4215 80.4491C67.6469 89.4039 61.437 92.0811 50.0526 92.0811C36.5981 92.0811 26.1133 83.7788 26.1133 67.152C26.1133 54.1703 33.1559 45.3278 43.1674 41.0083C51.8524 37.183 63.9795 36.5082 73.2493 35.451V33.3809C73.2493 29.5784 73.5414 25.0787 71.3143 21.794C69.3566 18.8465 65.6218 17.6315 62.3367 17.6315C56.2397 17.6315 50.7948 20.7587 49.4674 27.2384C49.1971 28.6787 48.1399 30.0963 46.7001 30.1636L31.1755 28.499C29.8708 28.2059 28.431 27.1488 28.7909 25.146C32.3682 6.33716 49.3545 0.666992 64.5638 0.666992C72.3486 0.666992 82.5181 2.7371 88.6606 8.63207C96.4454 15.899 95.7027 25.5961 95.7027 36.1482V61.0773C95.7027 68.5695 98.8077 71.8542 101.732 75.9043C102.767 77.3442 102.992 79.0771 101.687 80.1565C98.4249 82.8787 92.6201 87.9413 89.4255 90.7764L89.3805 90.7314" fill="black"/>
<path d="M106.806 100.2C56.8983 123.952 25.9248 104.079 6.09775 92.009C4.87086 91.2483 2.78557 92.1869 4.59484 94.2651C11.2002 102.274 32.8475 121.579 61.1035 121.579C89.3789 121.579 106.2 106.15 108.304 103.459C110.394 100.79 108.918 99.3182 106.806 100.2H106.806ZM120.823 92.4591C119.483 90.7139 112.673 90.3885 108.388 90.915C104.096 91.4262 97.6536 94.0493 98.2137 95.6243C98.5011 96.2142 99.0878 95.9496 102.036 95.6845C104.993 95.3895 113.275 94.3443 115.001 96.6003C116.735 98.872 112.359 109.693 111.56 111.439C110.788 113.184 111.855 113.634 113.305 112.472C114.736 111.31 117.325 108.301 119.063 104.042C120.789 99.7607 121.841 93.788 120.822 92.4591H120.823Z" fill="#FF9900"/>
<path fill-rule="evenodd" clip-rule="evenodd" d="M73.2493 51.7402C73.2493 57.9724 73.4067 63.1697 70.2567 68.7042C67.7143 73.2044 63.6869 75.9717 59.1872 75.9717C53.0447 75.9717 49.4674 71.2918 49.4674 64.3847C49.4674 50.75 61.6841 48.2753 73.2493 48.2753V51.7402ZM89.381 90.7314C88.3234 91.6761 86.7934 91.7439 85.6012 91.1136C80.2914 86.704 79.3462 84.6567 76.4215 80.4491C67.6469 89.4039 61.437 92.0811 50.0526 92.0811C36.5981 92.0811 26.1133 83.7788 26.1133 67.152C26.1133 54.1703 33.1559 45.3278 43.1674 41.0083C51.8524 37.183 63.9795 36.5082 73.2493 35.451V33.3809C73.2493 29.5784 73.5414 25.0787 71.3143 21.794C69.3566 18.8465 65.6218 17.6315 62.3367 17.6315C56.2397 17.6315 50.7948 20.7587 49.4674 27.2384C49.1971 28.6787 48.1399 30.0963 46.7001 30.1636L31.1755 28.499C29.8708 28.2059 28.431 27.1488 28.7909 25.146C32.3682 6.33716 49.3545 0.666992 64.5638 0.666992C72.3486 0.666992 82.5181 2.7371 88.6606 8.63207C96.4454 15.899 95.7027 25.5961 95.7027 36.1482V61.0773C95.7027 68.5695 98.8077 71.8542 101.732 75.9043C102.767 77.3442 102.992 79.0771 101.687 80.1565C98.4249 82.8787 92.6201 87.9413 89.4255 90.7764L89.3805 90.7314" fill="black"/>
</g>
<defs>
<clipPath id="clip0_1971_26529">
<rect width="123.291" height="123.291" fill="white" transform="translate(0.667969 0.665039)"/>
</clipPath>
</defs>
</svg>
