<svg width="293" height="294" viewBox="0 0 293 294" fill="none" xmlns="http://www.w3.org/2000/svg">
<path d="M293 146.852C293 185.706 277.565 222.969 250.091 250.443C222.617 277.917 185.354 293.352 146.5 293.352C107.646 293.352 70.3829 277.917 42.9089 250.443C15.4348 222.969 5.86682e-06 185.706 0 146.852L51.905 146.852C51.905 171.94 61.8712 196.001 79.6112 213.741C97.3512 231.481 121.412 241.447 146.5 241.447C171.588 241.447 195.649 231.481 213.389 213.741C231.129 196.001 241.095 171.94 241.095 146.852H293Z" fill="white"/>
<g filter="url(#filter0_d_553_1074)">
<circle cx="146" cy="147.352" r="93" fill="white" fill-opacity="0.1" shape-rendering="crispEdges"/>
<circle cx="146" cy="147.352" r="93" stroke="white" stroke-opacity="0.1" stroke-width="1.25676" shape-rendering="crispEdges"/>
</g>
<defs>
<filter id="filter0_d_553_1074" x="28.8179" y="41.2773" width="223.257" height="223.257" filterUnits="userSpaceOnUse" color-interpolation-filters="sRGB">
<feFlood flood-opacity="0" result="BackgroundImageFix"/>
<feColorMatrix in="SourceAlpha" type="matrix" values="0 0 0 0 0 0 0 0 0 0 0 0 0 0 0 0 0 0 127 0" result="hardAlpha"/>
<feOffset dx="-5.55367" dy="5.55367"/>
<feGaussianBlur stdDeviation="9"/>
<feComposite in2="hardAlpha" operator="out"/>
<feColorMatrix type="matrix" values="0 0 0 0 0 0 0 0 0 0 0 0 0 0 0 0 0 0 1 0"/>
<feBlend mode="normal" in2="BackgroundImageFix" result="effect1_dropShadow_553_1074"/>
<feBlend mode="normal" in="SourceGraphic" in2="effect1_dropShadow_553_1074" result="shape"/>
</filter>
</defs>
</svg>
