<svg width="749" height="982" viewBox="0 0 749 982" fill="none" xmlns="http://www.w3.org/2000/svg">
<g clip-path="url(#clip0_1212_13460)">
<rect width="749" height="982" fill="#FEE2DF"/>
<g clip-path="url(#clip1_1212_13460)">
<path d="M-68.3711 37.0671L-68.3711 938.005H817.209V37.0671H-68.3711Z" fill="#FEE2DF"/>
<path d="M198.777 212.929H335C338.8 212.929 341.88 209.795 341.88 205.93V159.759C341.88 155.894 338.8 152.761 335 152.761H198.777C194.978 152.761 191.899 155.894 191.899 159.757V205.929C191.898 209.797 194.978 212.929 198.777 212.929Z" fill="white"/>
<path d="M315.486 175.819H215.811" stroke="#F1D5CE" stroke-width="3.22369" stroke-miterlimit="10" stroke-linecap="round" stroke-linejoin="round"/>
<path d="M250.273 191.808H216.145" stroke="#F1D5CE" stroke-width="3.22369" stroke-miterlimit="10" stroke-linecap="round" stroke-linejoin="round"/>
<path d="M320.799 204.922V232.134L286.704 204.922H320.799Z" fill="white"/>
<path d="M617.95 250.035H481.727C477.928 250.035 474.848 246.902 474.848 243.037V196.865C474.848 193 477.928 189.867 481.727 189.867H617.95C621.75 189.867 624.83 193 624.83 196.864V243.037C624.828 246.902 621.748 250.035 617.95 250.035Z" fill="white"/>
<path d="M501.239 212.922H600.915" stroke="#F1D5CE" stroke-width="3.22369" stroke-miterlimit="10" stroke-linecap="round" stroke-linejoin="round"/>
<path d="M566.458 228.91H600.587" stroke="#F1D5CE" stroke-width="3.22369" stroke-miterlimit="10" stroke-linecap="round" stroke-linejoin="round"/>
<path d="M495.926 242.029V269.239L530.021 242.029H495.926Z" fill="white"/>
<path d="M602.348 291.385H643.717C649.239 291.385 653.715 286.83 653.715 281.213C653.715 275.595 649.239 271.04 643.717 271.04H602.348C596.825 271.04 592.348 275.595 592.348 281.213C592.348 286.83 596.825 291.385 602.348 291.385Z" fill="#FC8491"/>
<path d="M631.807 281.24C631.801 282.739 632.993 283.959 634.467 283.962C635.941 283.968 637.14 282.755 637.143 281.256C637.148 279.757 635.957 278.537 634.483 278.533C633.009 278.528 631.812 279.74 631.807 281.24Z" fill="white"/>
<path d="M620.361 281.198C620.356 282.698 621.548 283.917 623.022 283.921C624.495 283.926 625.694 282.714 625.698 281.215C625.703 279.715 624.511 278.496 623.038 278.492C621.566 278.487 620.367 279.697 620.361 281.198Z" fill="white"/>
<path d="M608.912 281.163C608.907 282.663 610.099 283.882 611.572 283.886C613.046 283.891 614.245 282.679 614.249 281.18C614.254 279.681 613.062 278.461 611.588 278.457C610.115 278.453 608.916 279.664 608.912 281.163Z" fill="white"/>
<path d="M413.203 261.111C422.759 261.111 430.505 253.23 430.505 243.508C430.505 233.786 422.759 225.906 413.203 225.906C403.647 225.906 395.9 233.786 395.9 243.508C395.9 253.23 403.647 261.111 413.203 261.111Z" fill="#FCA542"/>
<path d="M406.262 245.213L411.168 248.615L420.141 238.101" stroke="white" stroke-width="2.873" stroke-miterlimit="10" stroke-linecap="round" stroke-linejoin="round"/>
<path d="M369.722 607.263H276.012C218.421 607.263 176.494 570.096 166.589 510.268L143.343 369.827C142.303 363.551 146.464 357.604 152.633 356.55C158.787 355.475 164.646 359.723 165.684 366.003L188.931 506.441C196.993 555.139 229.547 584.214 276.012 584.214H369.722C375.978 584.214 381.05 589.372 381.05 595.738C381.052 602.104 375.978 607.263 369.722 607.263Z" fill="#F9F6F2"/>
<path d="M368.657 798.241L326.61 604.198C321.679 581.435 301.851 565.224 278.938 565.224C255.684 565.224 235.657 581.911 231.077 605.105L192.923 798.241" stroke="#55382E" stroke-width="3.64292" stroke-miterlimit="10"/>
<path d="M262.44 335.078C262.44 335.078 253.919 341.461 250.926 331.489C247.933 321.516 243.278 328.846 239.699 321.489C236.918 315.775 240.205 311.932 236.987 307.618C231.711 300.544 237.54 294.39 248.422 294.39C259.304 294.39 283.221 321.914 262.44 335.078Z" fill="#33354A"/>
<path d="M300.625 302.325C298.03 290.197 287.596 281.198 275.395 281.218C271.691 281.224 267.883 282.058 264.316 284.271C255.853 289.52 254.002 303.369 253.884 313.794L255.857 326.654L259.511 380.138C270.322 412.557 295.874 408.986 292.373 368.222L289.613 341.579C304.752 335.637 303.538 315.942 300.625 302.325Z" fill="#BA7053"/>
<path d="M289.615 341.576C289.615 341.576 282.628 344.891 271.881 339.059C271.881 339.059 278.666 350.347 290.827 353.43L289.615 341.576Z" fill="#A55D43"/>
<path d="M255.628 310.023C255.945 312.679 254.599 315.03 252.622 315.276C250.644 315.521 248.784 313.566 248.467 310.91C248.15 308.254 249.496 305.902 251.473 305.659C253.451 305.414 255.311 307.369 255.628 310.023Z" fill="#BA7053"/>
<path d="M289.612 341.576C288.343 342.556 286.73 342.983 285.157 343.183C283.565 343.379 281.96 343.243 280.4 342.963C278.836 342.675 277.334 342.152 275.894 341.518C275.18 341.187 274.491 340.801 273.808 340.421C273.149 339.983 272.493 339.552 271.877 339.059C272.653 339.228 273.388 339.46 274.121 339.687C274.863 339.889 275.595 340.102 276.319 340.322C277.787 340.691 279.225 341.12 280.694 341.361C282.151 341.655 283.623 341.848 285.108 341.916C286.588 341.954 288.087 341.927 289.612 341.576Z" fill="#36384A"/>
<path d="M253.093 308.986C253.093 308.986 250.956 308.829 250.918 310.6C250.881 312.372 252.952 311.871 252.952 311.871" stroke="#33354A" stroke-width="1.71466" stroke-miterlimit="10" stroke-linecap="round"/>
<path d="M278.142 319.394C279.443 320.689 280.846 321.785 282.346 322.565C283.861 323.313 285.476 323.675 287.077 323.495C288.687 323.306 290.216 322.592 291.719 321.751L293.889 320.255C294.578 319.689 295.271 319.116 296.034 318.579C295.559 319.369 295.015 320.118 294.468 320.877C293.848 321.563 293.193 322.241 292.488 322.866C291.002 324.03 289.245 324.967 287.258 325.228C285.269 325.426 283.239 324.85 281.666 323.733C280.101 322.614 278.866 321.107 278.142 319.394Z" fill="#33354A"/>
<path d="M285.222 301.638C287.459 302.804 289.235 304.42 291.04 305.799C291.268 305.95 291.477 306.137 291.694 306.265C291.805 306.348 291.899 306.386 291.998 306.44C292.06 306.473 292.035 306.473 292.287 306.583C292.475 306.667 292.701 306.907 292.777 307.166C292.889 307.667 292.74 307.883 292.668 308.078C292.577 308.273 292.48 308.422 292.379 308.565C292.181 308.849 291.964 309.087 291.741 309.314C290.859 310.217 289.889 310.961 288.844 311.613C289.545 310.599 290.275 309.617 290.914 308.635C291.067 308.388 291.212 308.138 291.33 307.905C291.387 307.79 291.437 307.673 291.458 307.584C291.497 307.501 291.446 307.406 291.472 307.608C291.547 307.887 291.869 307.936 291.532 307.846C291.352 307.79 291.159 307.734 291.012 307.66C290.687 307.521 290.395 307.375 290.119 307.199C289.035 306.501 288.119 305.669 287.294 304.748C286.493 303.808 285.748 302.818 285.222 301.638Z" fill="#33354A"/>
<path d="M277.813 302.419C278.465 303.792 278.922 305.219 279.134 306.771C279.243 307.546 279.262 308.356 279.083 309.207C278.918 310.039 278.451 310.996 277.588 311.54C276.719 312.11 275.606 312.056 274.813 311.774C273.989 311.493 273.307 311.066 272.703 310.574C271.499 309.583 270.527 308.455 269.703 307.171C269.538 306.913 269.609 306.571 269.862 306.403C270.084 306.255 270.371 306.293 270.55 306.479L270.571 306.5C271.536 307.497 272.567 308.499 273.66 309.266C274.728 310.046 276.001 310.562 276.701 310.065C277.503 309.65 277.718 308.248 277.648 306.909C277.583 305.551 277.294 304.129 276.956 302.763L276.951 302.74C276.889 302.488 277.039 302.232 277.285 302.169C277.501 302.113 277.721 302.221 277.813 302.419Z" fill="#33354A"/>
<path d="M296.111 296.351C296.742 297.617 297.213 298.929 297.516 300.347C297.673 301.055 297.751 301.794 297.7 302.594C297.641 303.342 297.411 304.436 296.389 305.021C295.902 305.304 295.309 305.326 294.853 305.23C294.388 305.137 294.005 304.953 293.661 304.753C292.981 304.342 292.422 303.868 291.929 303.34C290.941 302.291 290.126 301.169 289.439 299.926C289.292 299.657 289.384 299.318 289.648 299.169C289.876 299.039 290.158 299.093 290.325 299.284L290.339 299.302C291.201 300.293 292.092 301.308 293.036 302.165C293.514 302.582 293.989 303.001 294.482 303.268C294.979 303.556 295.417 303.601 295.587 303.488C295.81 303.416 296.021 303.009 296.083 302.436C296.146 301.87 296.097 301.236 296.037 300.594C295.884 299.311 295.576 297.989 295.252 296.698L295.247 296.68C295.183 296.428 295.333 296.172 295.581 296.107C295.797 296.052 296.015 296.158 296.111 296.351Z" fill="#33354A"/>
<path d="M264.493 289.769C264.493 289.769 273.717 297.261 278.129 289.769C278.129 289.769 288.738 298.685 296.023 287.646C303.308 276.608 285.222 276.183 285.222 276.183C285.222 276.183 289.259 261.323 278.129 261.323C266.997 261.323 263.894 254.824 257.97 260.849C247.362 271.639 250.922 277.378 241.638 284.351C235.593 288.892 231.744 299.209 244.897 303.701C247.624 304.633 250.301 303.701 254.232 306.822C257.348 309.294 268.409 306.618 264.493 289.769Z" fill="#33354A"/>
<path d="M314.448 364.481C310.7 362.629 302.445 361.456 292.25 363.221C292.25 363.221 290.837 367.227 280.293 368.267C270.001 369.283 258.387 362.09 258.387 362.09C249.333 361.812 234.089 357.936 227.954 366.531C201.37 403.771 207.923 514.763 214.456 520.612C222.01 527.378 233.2 529.996 243.526 528.486C253.851 526.976 258.111 526.909 290.847 532.039C314.896 535.807 327.17 528.194 330.842 524.754C339.593 516.557 327.679 371.02 314.448 364.481Z" fill="#C5BA9F"/>
<path d="M258.369 362.089C258.369 362.089 267.689 369.763 280.275 368.266C292.861 366.767 292.232 363.22 292.232 363.22" stroke="#33354A" stroke-width="1.71466" stroke-miterlimit="10" stroke-linecap="round"/>
<path d="M441.147 746.974L443.501 786.221H418.832L413.223 746.882L441.147 746.974Z" fill="#BA7053"/>
<path d="M417.521 798.344L416.712 784.28L428.43 783.583C428.43 783.583 441.002 768.959 443.375 770.856C445.748 772.754 443.981 778.212 450.362 783.313C456.744 788.412 474.652 786.149 475.328 794.902C475.831 801.432 417.521 798.344 417.521 798.344Z" fill="#282738"/>
<path d="M413.215 756.638L415.565 763.368L441.867 759.11L442.733 750.136C442.733 750.136 422.799 744.118 413.215 756.638Z" fill="#5E4A42"/>
<path d="M464.817 649.144L487.525 683.697L507.038 671.808L493.51 639.037L464.817 649.144Z" fill="#BA7053"/>
<path d="M491.73 695.347L486.246 682.411L497.024 677.681C497.024 677.681 503.926 659.567 506.793 660.526C509.661 661.482 509.834 667.228 517.544 669.802C525.254 672.376 544.942 662.699 548.722 670.593C551.547 676.495 491.73 695.347 491.73 695.347Z" fill="#282738"/>
<path d="M470.219 661.842L478.1 669.365L500.803 656.719L498.093 645.94L470.219 661.842Z" fill="#5E4A42"/>
<path d="M214.434 520.61C214.434 520.61 375.712 490.612 406.941 504.955C456.847 527.875 505.012 622.091 501.132 645.77C499.175 657.707 492.313 647.251 475.151 664.711C459.867 680.26 410.432 583.762 410.432 583.762C369.003 583.762 325.831 588.485 247.81 583.739C213.185 581.632 208.796 535.803 214.434 520.61Z" fill="#7B6155"/>
<path d="M317.222 580.459C317.222 580.459 359.949 578.759 369.241 625.203C380.045 679.201 396.796 762.331 414.565 756.329C421.777 753.893 430.333 751.779 444.354 751.779C464.449 751.779 438.869 669.572 433.709 621.817C427.71 566.308 362.119 539.127 321.325 576.493C319.956 577.747 318.589 579.068 317.222 580.459Z" fill="#7B6155"/>
<path d="M310.573 495.809L320.366 502.962L389.836 443.307L559.002 348.298L549.866 341.555L433.819 377.827L310.573 495.809Z" fill="#CB9DA8"/>
<path d="M334.573 347.059L307.034 486.258C305.856 492.215 310.333 497.779 316.306 497.779H514.55C519.01 497.779 522.866 494.608 523.799 490.172L553.087 350.973C554.348 344.984 549.858 339.337 543.838 339.337H343.847C339.343 339.337 335.463 342.567 334.573 347.059Z" fill="#F2B655"/>
<path d="M343.51 353.623L315.97 492.822C314.792 498.779 319.27 504.343 325.242 504.343H523.485C527.946 504.343 531.8 501.173 532.734 496.735L562.022 357.537C563.283 351.547 558.793 345.9 552.773 345.9H352.782C348.278 345.9 344.399 349.131 343.51 353.623Z" fill="#FFDCA4"/>
<path d="M415.679 467.538L411.98 504.345H428.068L415.679 467.538Z" fill="#D19A4A"/>
<path d="M415.68 466.777L432.097 549.199H491.944L463.873 466.777H415.68Z" fill="#FDCE79"/>
<path d="M460.046 406.484C461.736 399.223 457.321 391.943 450.184 390.223C443.047 388.503 435.89 392.995 434.2 400.256C432.509 407.517 436.924 414.797 444.062 416.517C451.199 418.237 458.355 413.745 460.046 406.484Z" fill="#FFEDD2"/>
<path d="M527.347 541.528H386.274C384.113 541.528 382.359 543.31 382.359 545.51C382.359 547.708 384.111 549.492 386.274 549.492H527.347C529.509 549.492 531.261 547.708 531.261 545.51C531.261 543.31 529.509 541.528 527.347 541.528Z" fill="#F2B655"/>
<path d="M351.469 541.528H276.751C274.59 541.528 272.837 543.31 272.837 545.51C272.837 547.708 274.589 549.492 276.751 549.492H351.469C353.632 549.492 355.384 547.708 355.384 545.51C355.384 543.31 353.632 541.528 351.469 541.528Z" fill="#F2B655"/>
<path d="M309.15 542.071C309.15 542.071 311.589 534.627 324.76 534.627C337.93 534.627 343.295 537.853 345.247 542.071H309.15Z" fill="#F2B655"/>
<path d="M271.213 515.51L303.907 527.235C307.913 528.244 311.998 528.873 316.112 529.208C323.788 529.831 337.109 531.757 340.62 537.689L311.047 538.352C301.185 538.352 258.013 533.06 258.013 533.06L271.213 515.51Z" fill="#BA7053"/>
<path d="M262.11 369.416C262.11 369.416 237.903 356.376 227.925 366.526C218.605 376.007 197.739 415.76 188.415 447.017C183.226 464.415 168.518 491.778 212.372 518.119C230.445 528.976 232.271 526.338 250.286 535.936C254.211 538.027 275.121 537.605 279.48 538.744L289.304 520.145C289.304 520.145 281.812 515.262 280.778 512.274C275.643 497.423 242.996 487.884 242.996 473.06C242.999 452.641 262.11 369.416 262.11 369.416Z" fill="#C5BA9F"/>
<path d="M242.234 450.705C242.234 450.705 221.643 475.843 251.074 487.442C258.005 490.173 270.114 495.802 274.262 503.354" stroke="#33354A" stroke-width="1.71466" stroke-miterlimit="10" stroke-linecap="round"/>
<path d="M714.971 797.39H13.9316" stroke="#213033" stroke-width="1.77116" stroke-miterlimit="10"/>
<path d="M609.186 494.811C609.186 494.811 630.153 476.03 620.472 457.864C610.791 439.697 606.035 442.006 613.977 426.572C621.921 411.139 620.231 406.912 609.895 392.33C599.558 377.747 609.426 348.787 603.667 335.102C598.395 322.57 588.195 314.431 588.195 335.926C588.195 359.791 595.68 364.487 588.781 387.133C581.884 409.779 569.096 432.311 585.421 441.613C601.746 450.914 586.092 469.198 591.106 484.876C596.119 500.556 609.186 494.811 609.186 494.811Z" stroke="#5F9399" stroke-width="1.50637" stroke-miterlimit="10"/>
<path d="M588.188 476.203C587.005 473.459 589.955 461.734 583.331 452.854C576.707 443.975 576.31 443.23 580.274 427.549C584.24 411.867 577.722 400.521 578.237 381.922C578.753 363.323 590.226 349.286 594.839 365.058C599.451 380.831 600.809 382.491 597.805 399.088C594.801 415.685 601.5 409.582 603.305 430.758C605.108 451.933 600.278 504.238 588.188 476.203Z" fill="#308480"/>
<path d="M572.214 477.797L629.286 477.475L611.842 549.054L585.684 549.202L572.214 477.797Z" fill="#FCA542"/>
<path d="M259.105 562.186V797.226" stroke="#55382E" stroke-width="3.64292" stroke-miterlimit="10"/>
<path d="M112.663 562.186V797.226" stroke="#55382E" stroke-width="3.64292" stroke-miterlimit="10"/>
<path d="M614.47 562.186V797.226" stroke="#55382E" stroke-width="3.64292" stroke-miterlimit="10"/>
<path d="M468.041 562.186V797.226" stroke="#55382E" stroke-width="3.64292" stroke-miterlimit="10"/>
<path d="M217.158 549.211H78.6211V568.111H217.158V549.211Z" fill="#BBCCD7"/>
<path d="M652.132 549.211H216.896V568.111H652.132V549.211Z" fill="#F9F6F2"/>
</g>
<path d="M98.296 915.064H104.232V921H98.296V915.064ZM117.819 881.8H127.115C130.289 881.8 132.603 882.547 134.059 884.04C135.515 885.496 136.243 887.755 136.243 890.816V892.384C136.243 894.4 135.907 896.043 135.235 897.312C134.601 898.581 133.611 899.496 132.267 900.056V900.168C135.329 901.213 136.859 903.939 136.859 908.344V911.704C136.859 914.728 136.057 917.043 134.451 918.648C132.883 920.216 130.569 921 127.507 921H117.819V881.8ZM126.387 897.76C127.619 897.76 128.534 897.443 129.131 896.808C129.766 896.173 130.083 895.109 130.083 893.616V891.432C130.083 890.013 129.822 888.987 129.299 888.352C128.814 887.717 128.03 887.4 126.947 887.4H123.979V897.76H126.387ZM127.507 915.4C128.59 915.4 129.393 915.12 129.915 914.56C130.438 913.963 130.699 912.955 130.699 911.536V908.12C130.699 906.328 130.382 905.096 129.747 904.424C129.15 903.715 128.142 903.36 126.723 903.36H123.979V915.4H127.507ZM145.276 887.4H138.836V881.8H157.876V887.4H151.436V921H145.276V887.4ZM160.859 881.8H177.659V887.4H167.019V897.76H175.475V903.36H167.019V915.4H177.659V921H160.859V881.8ZM189.882 921.56C186.933 921.56 184.674 920.72 183.106 919.04C181.576 917.36 180.81 914.989 180.81 911.928V890.872C180.81 887.811 181.576 885.44 183.106 883.76C184.674 882.08 186.933 881.24 189.882 881.24C192.832 881.24 195.072 882.08 196.602 883.76C198.17 885.44 198.954 887.811 198.954 890.872V895.016H193.13V890.48C193.13 888.053 192.104 886.84 190.05 886.84C187.997 886.84 186.97 888.053 186.97 890.48V912.376C186.97 914.765 187.997 915.96 190.05 915.96C192.104 915.96 193.13 914.765 193.13 912.376V906.384H198.954V911.928C198.954 914.989 198.17 917.36 196.602 919.04C195.072 920.72 192.832 921.56 189.882 921.56ZM202.64 881.8H208.8V897.76H215.408V881.8H221.568V921H215.408V903.36H208.8V921H202.64V881.8ZM243.804 921.56C240.855 921.56 238.596 920.72 237.028 919.04C235.497 917.36 234.732 914.989 234.732 911.928V890.872C234.732 887.811 235.497 885.44 237.028 883.76C238.596 882.08 240.855 881.24 243.804 881.24C246.753 881.24 248.993 882.08 250.524 883.76C252.092 885.44 252.876 887.811 252.876 890.872V895.016H247.052V890.48C247.052 888.053 246.025 886.84 243.972 886.84C241.919 886.84 240.892 888.053 240.892 890.48V912.376C240.892 914.765 241.919 915.96 243.972 915.96C246.025 915.96 247.052 914.765 247.052 912.376V906.384H252.876V911.928C252.876 914.989 252.092 917.36 250.524 919.04C248.993 920.72 246.753 921.56 243.804 921.56ZM265.575 921.56C262.551 921.56 260.236 920.701 258.631 918.984C257.026 917.267 256.223 914.84 256.223 911.704V891.096C256.223 887.96 257.026 885.533 258.631 883.816C260.236 882.099 262.551 881.24 265.575 881.24C268.599 881.24 270.914 882.099 272.519 883.816C274.124 885.533 274.927 887.96 274.927 891.096V911.704C274.927 914.84 274.124 917.267 272.519 918.984C270.914 920.701 268.599 921.56 265.575 921.56ZM265.575 915.96C267.703 915.96 268.767 914.672 268.767 912.096V890.704C268.767 888.128 267.703 886.84 265.575 886.84C263.447 886.84 262.383 888.128 262.383 890.704V912.096C262.383 914.672 263.447 915.96 265.575 915.96ZM279.093 881.8H287.885L291.805 909.856H291.917L295.837 881.8H304.629V921H298.805V891.32H298.693L294.213 921H289.061L284.581 891.32H284.469V921H279.093V881.8ZM309.226 881.8H318.298C321.359 881.8 323.655 882.621 325.186 884.264C326.716 885.907 327.482 888.315 327.482 891.488V895.352C327.482 898.525 326.716 900.933 325.186 902.576C323.655 904.219 321.359 905.04 318.298 905.04H315.386V921H309.226V881.8ZM318.298 899.44C319.306 899.44 320.052 899.16 320.538 898.6C321.06 898.04 321.322 897.088 321.322 895.744V891.096C321.322 889.752 321.06 888.8 320.538 888.24C320.052 887.68 319.306 887.4 318.298 887.4H315.386V899.44H318.298ZM339.787 921.56C336.801 921.56 334.523 920.72 332.955 919.04C331.387 917.323 330.603 914.877 330.603 911.704V881.8H336.763V912.152C336.763 913.496 337.025 914.467 337.547 915.064C338.107 915.661 338.891 915.96 339.899 915.96C340.907 915.96 341.673 915.661 342.195 915.064C342.755 914.467 343.035 913.496 343.035 912.152V881.8H348.971V911.704C348.971 914.877 348.187 917.323 346.619 919.04C345.051 920.72 342.774 921.56 339.787 921.56ZM358.175 887.4H351.735V881.8H370.775V887.4H364.335V921H358.175V887.4ZM373.757 881.8H390.557V887.4H379.917V897.76H388.373V903.36H379.917V915.4H390.557V921H373.757V881.8ZM394.101 881.8H403.229C406.402 881.8 408.717 882.547 410.173 884.04C411.629 885.496 412.357 887.755 412.357 890.816V893.224C412.357 897.293 411.013 899.869 408.325 900.952V901.064C409.818 901.512 410.863 902.427 411.461 903.808C412.095 905.189 412.413 907.037 412.413 909.352V916.24C412.413 917.36 412.45 918.275 412.525 918.984C412.599 919.656 412.786 920.328 413.085 921H406.813C406.589 920.365 406.439 919.768 406.365 919.208C406.29 918.648 406.253 917.64 406.253 916.184V909.016C406.253 907.224 405.954 905.973 405.357 905.264C404.797 904.555 403.807 904.2 402.389 904.2H400.261V921H394.101V881.8ZM402.501 898.6C403.733 898.6 404.647 898.283 405.245 897.648C405.879 897.013 406.197 895.949 406.197 894.456V891.432C406.197 890.013 405.935 888.987 405.413 888.352C404.927 887.717 404.143 887.4 403.061 887.4H400.261V898.6H402.501ZM433.663 921.56C430.677 921.56 428.418 920.72 426.887 919.04C425.357 917.323 424.591 914.877 424.591 911.704V909.464H430.415V912.152C430.415 914.691 431.479 915.96 433.607 915.96C434.653 915.96 435.437 915.661 435.959 915.064C436.519 914.429 436.799 913.421 436.799 912.04C436.799 910.397 436.426 908.96 435.679 907.728C434.933 906.459 433.551 904.947 431.535 903.192C428.997 900.952 427.223 898.936 426.215 897.144C425.207 895.315 424.703 893.261 424.703 890.984C424.703 887.885 425.487 885.496 427.055 883.816C428.623 882.099 430.901 881.24 433.887 881.24C436.837 881.24 439.058 882.099 440.551 883.816C442.082 885.496 442.847 887.923 442.847 891.096V892.72H437.023V890.704C437.023 889.36 436.762 888.389 436.239 887.792C435.717 887.157 434.951 886.84 433.943 886.84C431.89 886.84 430.863 888.091 430.863 890.592C430.863 892.011 431.237 893.336 431.983 894.568C432.767 895.8 434.167 897.293 436.183 899.048C438.759 901.288 440.533 903.323 441.503 905.152C442.474 906.981 442.959 909.128 442.959 911.592C442.959 914.803 442.157 917.267 440.551 918.984C438.983 920.701 436.687 921.56 433.663 921.56ZM455.171 921.56C452.222 921.56 449.963 920.72 448.395 919.04C446.865 917.36 446.099 914.989 446.099 911.928V890.872C446.099 887.811 446.865 885.44 448.395 883.76C449.963 882.08 452.222 881.24 455.171 881.24C458.121 881.24 460.361 882.08 461.891 883.76C463.459 885.44 464.243 887.811 464.243 890.872V895.016H458.419V890.48C458.419 888.053 457.393 886.84 455.339 886.84C453.286 886.84 452.259 888.053 452.259 890.48V912.376C452.259 914.765 453.286 915.96 455.339 915.96C457.393 915.96 458.419 914.765 458.419 912.376V906.384H464.243V911.928C464.243 914.989 463.459 917.36 461.891 919.04C460.361 920.72 458.121 921.56 455.171 921.56ZM467.929 881.8H474.089V921H467.929V881.8ZM478.702 881.8H495.502V887.4H484.862V897.76H493.318V903.36H484.862V915.4H495.502V921H478.702V881.8ZM499.046 881.8H506.774L512.766 905.264H512.878V881.8H518.366V921H512.038L504.646 892.384H504.534V921H499.046V881.8ZM531.624 921.56C528.675 921.56 526.416 920.72 524.848 919.04C523.318 917.36 522.552 914.989 522.552 911.928V890.872C522.552 887.811 523.318 885.44 524.848 883.76C526.416 882.08 528.675 881.24 531.624 881.24C534.574 881.24 536.814 882.08 538.344 883.76C539.912 885.44 540.696 887.811 540.696 890.872V895.016H534.872V890.48C534.872 888.053 533.846 886.84 531.792 886.84C529.739 886.84 528.712 888.053 528.712 890.48V912.376C528.712 914.765 529.739 915.96 531.792 915.96C533.846 915.96 534.872 914.765 534.872 912.376V906.384H540.696V911.928C540.696 914.989 539.912 917.36 538.344 919.04C536.814 920.72 534.574 921.56 531.624 921.56ZM544.382 881.8H561.182V887.4H550.542V897.76H558.998V903.36H550.542V915.4H561.182V921H544.382V881.8Z" fill="#161616"/>
</g>
<defs>
<clipPath id="clip0_1212_13460">
<rect width="749" height="982" fill="white"/>
</clipPath>
<clipPath id="clip1_1212_13460">
<rect width="885.581" height="900.938" fill="white" transform="translate(-68.3662 37.0625)"/>
</clipPath>
</defs>
</svg>
