<svg width="248" height="79" viewBox="0 0 248 79" fill="none" xmlns="http://www.w3.org/2000/svg">
<g clip-path="url(#clip0_1971_26535)">
<path d="M245.735 53.7288C245.316 53.7288 244.934 53.9984 244.737 54.5617C242.209 61.7277 238.795 65.9905 235.983 65.9905C234.368 65.9905 233.714 64.2021 233.714 61.397C233.714 54.378 237.944 39.495 240.076 32.7088C240.322 31.888 240.483 31.1531 240.483 30.5285C240.483 28.5563 239.398 27.5886 236.711 27.5886C233.813 27.5886 230.694 28.7155 227.661 33.995C226.613 29.3403 223.445 27.3068 219.019 27.3068C213.902 27.3068 208.958 30.5774 204.89 35.8815C200.821 41.1854 196.037 42.9249 192.437 42.0674C195.026 35.7712 195.987 31.0674 195.987 27.5762C195.987 22.1008 193.263 18.7934 188.862 18.7934C182.167 18.7934 178.307 25.1387 178.307 31.8145C178.307 36.9716 180.663 42.2756 185.841 44.848C181.501 54.5985 175.163 63.4181 172.759 63.4181C169.653 63.4181 168.74 48.3146 168.913 37.5106C169.024 31.3123 169.541 30.9939 169.541 29.1197C169.541 28.0417 168.839 27.3068 166.015 27.3068C159.432 27.3068 157.397 32.8435 157.089 39.201C156.99 41.617 156.609 44.0134 155.955 46.3425C153.205 56.093 147.534 63.4916 143.835 63.4916C142.121 63.4916 141.653 61.7889 141.653 59.5595C141.653 52.5406 145.611 43.77 145.611 36.2857C145.611 30.7857 143.182 27.3068 138.607 27.3068C133.22 27.3068 126.093 33.6765 119.35 45.6074C121.569 36.4694 122.482 27.6253 115.91 27.6253C114.484 27.6465 113.085 28.0078 111.829 28.6787C111.407 28.8745 111.055 29.192 110.818 29.5896C110.58 29.9872 110.469 30.4466 110.498 30.9081C111.126 40.6342 102.607 65.5495 94.5314 65.5495C93.0642 65.5495 92.3491 63.9693 92.3491 61.4214C92.3491 54.3903 96.5657 39.5439 98.6863 32.7455C98.9575 31.8636 99.1055 31.1042 99.1055 30.4426C99.1055 28.5807 97.9465 27.6253 95.3204 27.6253C92.4354 27.6253 89.3038 28.7155 86.2832 33.995C85.2229 29.3403 82.0543 27.3068 77.6282 27.3068C70.3663 27.3068 62.2538 34.9382 58.6907 44.8847C53.9193 58.1632 44.3026 70.9882 31.3571 70.9882C19.6074 70.9882 13.4059 61.2745 13.4059 45.9259C13.4059 23.7668 29.7789 5.66208 41.9231 5.66208C47.7301 5.66208 50.5041 9.3369 50.5041 14.9717C50.5041 21.7946 46.6698 24.9672 46.6698 27.564C46.6698 28.3602 47.3356 29.1442 48.6548 29.1442C53.9316 29.1442 60.1455 22.9828 60.1455 14.5797C60.1455 6.17656 53.2782 0.0273438 41.134 0.0273438C21.0623 0.0273438 0.867188 20.0919 0.867188 45.8035C0.867188 66.26 11.0264 78.5951 28.5953 78.5951C40.5792 78.5951 51.0466 69.3345 56.6934 58.5306C57.3345 67.4849 61.4277 72.1642 67.6663 72.1642C73.2143 72.1642 77.7021 68.8814 81.1296 63.1119C82.4488 69.1508 85.9503 72.1029 90.4997 72.1029C95.715 72.1029 100.079 68.8201 104.234 62.7199C104.173 67.5095 105.27 72.0172 109.45 72.0172C111.422 72.0172 113.777 71.5639 114.196 69.8491C118.598 51.769 129.472 37.0084 132.801 37.0084C133.787 37.0084 134.059 37.9515 134.059 39.0662C134.059 43.9783 130.569 54.0473 130.569 60.4783C130.569 67.4237 133.54 72.0172 139.681 72.0172C146.486 72.0172 153.402 63.7366 158.014 51.6342C159.457 62.9403 162.575 72.0662 167.458 72.0662C173.45 72.0662 184.09 59.5351 190.538 46.269C193.066 46.5873 196.862 46.5017 200.513 43.9415C198.958 47.8491 198.047 52.1242 198.047 56.3991C198.047 68.7099 203.965 72.1642 209.056 72.1642C214.592 72.1642 219.08 68.8814 222.52 63.1119C223.654 68.3179 226.551 72.0907 231.877 72.0907C240.213 72.0907 247.449 63.6264 247.449 56.6809C247.449 54.8435 246.66 53.7288 245.735 53.7288ZM72.7458 65.3412C69.38 65.3412 68.0608 61.9727 68.0608 56.9504C68.0608 48.2288 74.0651 33.6643 80.4145 33.6643C83.1886 33.6643 84.2366 36.9103 84.2366 40.8792C84.2366 49.7355 78.5282 65.3412 72.7458 65.3412ZM188.035 39.3112C186.026 36.9349 185.298 33.701 185.298 30.8224C185.298 27.2701 186.605 24.2689 188.17 24.2689C189.737 24.2689 190.218 25.8001 190.218 27.9315C190.218 31.4962 188.936 36.7021 188.035 39.3112ZM214.136 65.3412C210.77 65.3412 209.451 61.4705 209.451 56.9504C209.451 48.5351 215.455 33.6643 221.854 33.6643C224.628 33.6643 225.615 36.8859 225.615 40.8792C225.615 49.7355 220.005 65.3412 214.136 65.3412Z" fill="url(#paint0_linear_1971_26535)"/>
</g>
<defs>
<linearGradient id="paint0_linear_1971_26535" x1="24.4375" y1="0.027353" x2="247.449" y2="63.4859" gradientUnits="userSpaceOnUse">
<stop stop-color="#00BBC6"/>
<stop offset="0.489354" stop-color="#355AE4"/>
<stop offset="1" stop-color="#7225E3"/>
</linearGradient>
<clipPath id="clip0_1971_26535">
<rect width="246.582" height="78.5678" fill="white" transform="translate(0.867188 0.0263672)"/>
</clipPath>
</defs>
</svg>
