<svg width="124" height="126" viewBox="0 0 124 126" fill="none" xmlns="http://www.w3.org/2000/svg">
<g clip-path="url(#clip0_1971_26537)">
<path fill-rule="evenodd" clip-rule="evenodd" d="M16.4375 113.459C16.4375 120.225 20.8143 124.614 27.5612 124.614L60.0615 124.614C79.4496 124.614 95.3099 118.035 106.093 106.518H16.4375V113.459ZM60.0615 0.821908L27.5612 0.821289C20.8143 0.821289 16.4375 5.21035 16.4375 11.9768V18.9174H106.093C95.3099 7.40021 79.4496 0.821908 60.0615 0.821908ZM88.4249 80.3565C88.4249 85.8306 91.9802 89.3822 97.4625 89.3822H116.938C119.145 83.8883 120.628 77.8484 121.318 71.3307H97.4625C91.9802 71.3307 88.4249 74.8817 88.4249 80.3565ZM61.4311 45.1235C61.4311 50.5983 64.9873 54.1492 70.4693 54.1492H121.318C120.628 47.6315 119.145 41.5918 116.938 36.0979H70.4693C64.9873 36.0979 61.4311 39.6488 61.4311 45.1235ZM70.4632 80.3565C70.4632 74.8817 66.9071 71.3307 61.425 71.3307H16.4375V89.3822H61.425C66.9071 89.3822 70.4632 85.8313 70.4632 80.3565ZM43.4693 45.1235C43.4693 39.6488 39.9136 36.0979 34.4314 36.0979H16.4375V54.1492H34.4314C39.9136 54.1492 43.4693 50.5983 43.4693 45.1235Z" fill="#0062FF"/>
</g>
<defs>
<clipPath id="clip0_1971_26537">
<rect width="123.291" height="124.98" fill="white" transform="translate(0.355469 0.820312)"/>
</clipPath>
</defs>
</svg>
