<svg width="124" height="97" viewBox="0 0 124 97" fill="none" xmlns="http://www.w3.org/2000/svg">
<g clip-path="url(#clip0_1971_26539)">
<path d="M104.919 8.58082C96.9433 4.84638 88.4155 2.1322 79.5004 0.586914C78.4051 2.56805 77.126 5.23268 76.2443 7.35249C66.7668 5.92609 57.3764 5.92609 48.0735 7.35249C47.1918 5.23268 45.8833 2.56805 44.7788 0.586914C35.8537 2.1322 27.3162 4.85628 19.3408 8.60063C3.25437 32.929 -1.10641 56.6533 1.07398 80.0404C11.7434 88.0145 22.0833 92.8583 32.2487 96.0281C34.7586 92.5711 36.9972 88.8963 38.9256 85.023C35.2529 83.6262 31.7352 81.9029 28.4112 79.9016C29.2931 79.2482 30.1556 78.5645 30.989 77.8613C51.262 87.3508 73.2885 87.3508 93.3193 77.8613C94.1621 78.5645 95.0247 79.2482 95.8969 79.9016C92.5632 81.9124 89.0359 83.6361 85.3631 85.0329C87.2916 88.8963 89.5203 92.5811 92.0399 96.038C102.215 92.8682 112.565 88.0245 123.234 80.0404C125.793 52.9287 118.864 29.4223 104.919 8.58082ZM41.6874 65.6575C35.6017 65.6575 30.611 59.9714 30.611 53.0476C30.611 46.1235 35.4951 40.4278 41.6874 40.4278C47.8798 40.4278 52.8703 46.1135 52.7637 53.0476C52.7737 59.9714 47.8798 65.6575 41.6874 65.6575ZM82.6208 65.6575C76.535 65.6575 71.5441 59.9714 71.5441 53.0476C71.5441 46.1235 76.4284 40.4278 82.6208 40.4278C88.8128 40.4278 93.8037 46.1135 93.6971 53.0476C93.6971 59.9714 88.8128 65.6575 82.6208 65.6575Z" fill="#5865F2"/>
</g>
<defs>
<clipPath id="clip0_1971_26539">
<rect width="123.291" height="95.4511" fill="white" transform="translate(0.550781 0.584961)"/>
</clipPath>
</defs>
</svg>
