<svg width="125" height="116" viewBox="0 0 125 116" fill="none" xmlns="http://www.w3.org/2000/svg">
<g clip-path="url(#clip0_1971_26541)">
<path d="M36.5904 0.964844L0.75 24.1894L25.6949 44.2601L61.5353 21.8956L36.5904 0.964844ZM0.75 63.7572L36.5904 87.2685L61.5353 66.3377L25.6949 44.2601L0.75 63.7572ZM61.5353 66.3377L86.767 87.2685L122.321 64.044L97.6625 44.2601L61.5353 66.3377ZM122.321 24.1894L86.767 0.964844L61.5353 21.8956L97.6625 44.2601L122.321 24.1894ZM61.8221 70.9253L36.5904 91.8561L25.9816 84.688V92.7163L61.8221 114.221L97.6625 92.7163V84.688L86.767 91.8561L61.8221 70.9253Z" fill="#0056FE"/>
</g>
<defs>
<clipPath id="clip0_1971_26541">
<rect width="123.291" height="114.689" fill="white" transform="translate(0.75 0.96582)"/>
</clipPath>
</defs>
</svg>
