<svg width="52" height="120" viewBox="0 0 52 120" fill="none" xmlns="http://www.w3.org/2000/svg">
<g clip-path="url(#clip0_1971_26500)">
<path d="M49.4429 48.0437L49.2779 47.6039L32.6297 4.17718C32.2928 3.32448 31.6929 2.60114 30.9178 2.11186C30.339 1.74149 29.6817 1.51182 28.9985 1.44124C28.3153 1.37066 27.6251 1.46115 26.9827 1.70545C26.3411 1.94975 25.7647 2.34106 25.3014 2.84803C24.8381 3.35499 24.4996 3.96351 24.3135 4.6248L13.0759 39.0285H-32.4318L-43.6694 4.6248C-43.8569 3.9645 -44.196 3.35713 -44.6598 2.85113C-45.1235 2.34514 -45.6992 1.95452 -46.3408 1.71042C-46.9823 1.46632 -47.6719 1.37549 -48.3548 1.44519C-49.0376 1.51489 -49.6947 1.74318 -50.2737 2.11186C-51.0491 2.60114 -51.6487 3.32448 -51.9857 4.17718L-68.626 47.6117L-68.7988 48.0437C-71.1945 54.3049 -71.4896 61.1752 -69.6397 67.6188C-67.7898 74.0624 -63.8951 79.7301 -58.5428 83.7665L-58.48 83.8136L-58.3387 83.9235L-33.013 102.904L-20.4483 112.398L-12.8153 118.17C-11.9196 118.847 -10.8278 119.213 -9.70549 119.213C-8.58308 119.213 -7.49128 118.847 -6.59573 118.17L1.03732 112.398L13.6021 102.904L39.1084 83.8136L39.1791 83.7586C44.5308 79.7238 48.4259 74.0578 50.2776 67.6158C52.1286 61.1738 51.8356 54.3046 49.4429 48.0437Z" fill="#E24329"/>
<path d="M49.4449 48.0486L49.28 47.6089C41.1687 49.2733 33.5254 52.7112 26.8991 57.6763L-9.65625 85.3186L13.6198 102.909L39.1262 83.8187L39.1968 83.7637C44.5462 79.7265 48.4382 74.0598 50.2867 67.618C52.1345 61.1761 51.8393 54.308 49.4449 48.0486Z" fill="#FC6D26"/>
<path d="M-33.0117 102.908L-20.447 112.402L-12.814 118.174C-11.9184 118.851 -10.8266 119.217 -9.70422 119.217C-8.5818 119.217 -7.49009 118.851 -6.59446 118.174L1.03859 112.402L13.6033 102.908L-9.67281 85.3174L-33.0117 102.908Z" fill="#FCA326"/>
</g>
<defs>
<clipPath id="clip0_1971_26500">
<rect width="123.291" height="118.579" fill="white" transform="translate(-71.4922 0.644531)"/>
</clipPath>
</defs>
</svg>
