<svg width="248" height="100" viewBox="0 0 248 100" fill="none" xmlns="http://www.w3.org/2000/svg">
<path d="M3.24219 1.63525V8.24366H50.247V1.63525H3.24219ZM56.9108 1.63525V8.24366H123.901C123.901 8.24366 117.058 1.63525 107.996 1.63525H56.9108ZM137.041 1.63525V8.24366H177.563L175.159 1.63525H137.041ZM206.623 1.63525L204.219 8.24366H244.381V1.63525H206.623ZM3.24219 14.4883V21.0967H50.247V14.4883H3.24219ZM56.9108 14.4976V21.0937H131.668C131.668 21.0937 130.796 16.0079 129.273 14.4976H56.9108ZM137.041 14.4976V21.0937H182.042L179.817 14.4976H137.041ZM201.812 14.4976L199.586 21.0937H244.378V14.4976H201.812ZM16.7518 27.3414V33.9591H37.1103V27.3414H16.7518ZM70.4204 27.3414V33.9591H90.7789V27.3414H70.4204ZM110.582 27.3414V33.9591H130.941C130.941 33.9591 132.235 30.4638 132.235 27.3414H110.582ZM150.553 27.3414V33.9591H186.616L184.212 27.3414H150.553ZM197.382 27.3414L194.966 33.9591H231.238V27.3414H197.382ZM16.7549 40.2038V46.8122H37.1134V40.2038H16.7549ZM70.4235 40.2038V46.8122H122.422C122.422 46.8122 126.768 43.4217 128.155 40.2038H70.4235ZM150.553 40.2038V46.8122H170.912V43.132L172.206 46.8122H209.502L210.889 43.132V46.8122H231.247V40.2038H193.027L190.999 45.8012L188.965 40.2038H150.553ZM16.7518 53.0569V59.6653H37.1103V53.0569H16.7518ZM70.4204 53.0569V59.6653H128.151C126.764 56.4598 122.418 53.0569 122.418 53.0569H70.4204ZM150.55 53.0569V59.6653H170.909V53.0569H150.55ZM174.608 53.0569L177.073 59.6653H205.036L207.378 53.0569H174.608ZM210.88 53.0569V59.6653H231.238V53.0569H210.88ZM16.7579 65.91V72.5184H37.1165V65.91H16.7579ZM70.4266 65.91V72.5184H90.785V65.91H70.4266ZM110.589 65.91V72.5184H132.239C132.239 69.3991 130.944 65.91 130.944 65.91H110.589ZM150.56 65.91V72.5184H170.918V65.91H150.56ZM179.237 65.91L181.623 72.5184H200.363L202.767 65.91H179.237ZM210.886 65.91V72.5184H231.244V65.91H210.886ZM3.61822 78.7631V85.3807H50.623V78.7631H3.61822ZM56.9201 78.7631V85.3807H129.286C130.808 83.8643 131.681 78.7631 131.681 78.7631H56.9201ZM137.417 78.7631V85.3807H170.906V78.7631H137.417ZM183.867 78.7631L186.32 85.3807H195.857L198.159 78.7631H183.867ZM210.886 78.7631V85.3807H244.754V78.7631H210.886ZM3.61822 91.6254V98.2338H50.623V91.6254H3.61822ZM56.9201 91.6254V98.2215H107.996C117.058 98.2215 123.901 91.6254 123.901 91.6254H56.9201ZM137.417 91.6254V98.2338H170.906V91.6254H137.417ZM188.521 91.6254L190.879 98.2153L191.286 98.2246L193.681 91.6285L188.521 91.6254ZM210.889 91.6254V98.2338H244.757V91.6254H210.889Z" fill="black"/>
</svg>
