<svg width="124" height="122" viewBox="0 0 124 122" fill="none" xmlns="http://www.w3.org/2000/svg">
<g clip-path="url(#clip0_1971_26507)">
<path d="M104.957 103.347H87.0242V75.2628C87.0242 68.5658 86.9047 59.9448 77.6971 59.9448C68.3568 59.9448 66.9278 67.2414 66.9278 74.7752V103.345H48.9946V45.5926H66.2105V53.4851H66.4514C68.1743 50.5394 70.6641 48.116 73.6552 46.4732C76.6465 44.8302 80.0273 44.0296 83.4376 44.1561C101.614 44.1561 104.965 56.1116 104.965 71.6649L104.957 103.347ZM28.7599 37.6982C26.7017 37.6986 24.6894 37.0887 22.9779 35.9455C21.2662 34.8022 19.9321 33.1772 19.1441 31.2757C18.356 29.3742 18.1496 27.2818 18.5508 25.263C18.9519 23.2442 19.9427 21.3896 21.3979 19.9339C22.8531 18.4783 24.7072 17.4868 26.726 17.0849C28.7446 16.6829 30.8372 16.8887 32.7388 17.676C34.6407 18.4633 36.2663 19.7969 37.4101 21.5081C38.5539 23.2192 39.1645 25.2313 39.1649 27.2895C39.1651 28.6562 38.8963 30.0096 38.3734 31.2722C37.8507 32.535 37.0843 33.6823 36.1181 34.6488C35.152 35.6154 34.0048 36.3822 32.7424 36.9054C31.4798 37.4287 30.1266 37.6981 28.7599 37.6982ZM37.7265 103.347H19.7746V45.5926H37.7265V103.347ZM113.898 0.230899H10.7632C8.4223 0.204482 6.16669 1.1085 4.492 2.74429C2.81734 4.38008 1.8606 6.61383 1.83203 8.95466V112.517C1.85962 114.859 2.81577 117.094 4.49038 118.732C6.16501 120.37 8.42114 121.275 10.7632 121.25H113.898C116.245 121.28 118.507 120.377 120.188 118.739C121.869 117.102 122.832 114.864 122.865 112.517V8.94719C122.831 6.60171 121.868 4.36544 120.187 2.72968C118.505 1.09393 116.243 0.192493 113.898 0.223427V0.230899Z" fill="#0A66C2"/>
</g>
<defs>
<clipPath id="clip0_1971_26507">
<rect width="123.291" height="121.423" fill="white" transform="translate(0.191406 0.222656)"/>
</clipPath>
</defs>
</svg>
