<svg width="749" height="982" viewBox="0 0 749 982" fill="none" xmlns="http://www.w3.org/2000/svg">
<g clip-path="url(#clip0_1212_14700)">
<rect width="749" height="982" fill="#E1E1FC"/>
<g clip-path="url(#clip1_1212_14700)">
<rect width="769.58" height="769.58" transform="translate(-10 151)" fill="#1E1E1E"/>
<path d="M759.578 151H-10.002V920.58H759.578V151Z" fill="#E1E1FC"/>
<path opacity="0.68" d="M596.352 753.637H153.223C133.537 753.637 117.579 737.679 117.579 717.993V337.745C117.579 318.06 133.537 302.102 153.223 302.102H596.352C616.038 302.102 631.996 318.06 631.996 337.745V717.993C631.996 737.679 616.038 753.637 596.352 753.637Z" fill="#F0F0FC"/>
<path d="M592.73 291.013C597.18 291.013 600.788 287.406 600.788 282.956C600.788 278.506 597.18 274.898 592.73 274.898C588.28 274.898 584.673 278.506 584.673 282.956C584.673 287.406 588.28 291.013 592.73 291.013Z" fill="#F0F0FC"/>
<path d="M571.11 291.013C575.56 291.013 579.168 287.406 579.168 282.956C579.168 278.506 575.56 274.898 571.11 274.898C566.66 274.898 563.053 278.506 563.053 282.956C563.053 287.406 566.66 291.013 571.11 291.013Z" fill="#F0F0FC"/>
<path d="M549.494 291.013C553.944 291.013 557.552 287.406 557.552 282.956C557.552 278.506 553.944 274.898 549.494 274.898C545.044 274.898 541.437 278.506 541.437 282.956C541.437 287.406 545.044 291.013 549.494 291.013Z" fill="#F0F0FC"/>
<path d="M94.5908 545.927C94.5908 541.476 98.1986 537.868 102.648 537.868C107.1 537.868 110.707 541.476 110.707 545.927C110.707 550.377 107.1 553.985 102.648 553.985C98.1986 553.985 94.5908 550.377 94.5908 545.927Z" fill="#F0F0FC"/>
<path d="M94.5908 567.977C94.5908 563.526 98.1986 559.918 102.648 559.918C107.1 559.918 110.707 563.526 110.707 567.977C110.707 572.428 107.1 576.036 102.648 576.036C98.1986 576.035 94.5908 572.427 94.5908 567.977Z" fill="#F0F0FC"/>
<path d="M94.5908 590.025C94.5908 585.573 98.1986 581.966 102.648 581.966C107.1 581.966 110.707 585.573 110.707 590.025C110.707 594.474 107.1 598.082 102.648 598.082C98.1986 598.084 94.5908 594.476 94.5908 590.025Z" fill="#F0F0FC"/>
<path d="M402.713 805.068C408.494 805.068 413.181 799.258 413.181 792.092C413.181 784.925 408.494 779.115 402.713 779.115C396.932 779.115 392.245 784.925 392.245 792.092C392.245 799.258 396.932 805.068 402.713 805.068Z" fill="#040962"/>
<path d="M512.108 805.068C517.89 805.068 522.576 799.258 522.576 792.092C522.576 784.925 517.89 779.115 512.108 779.115C506.327 779.115 501.641 784.925 501.641 792.092C501.641 799.258 506.327 805.068 512.108 805.068Z" fill="#040962"/>
<path d="M513.369 764.004H482.137C473.445 764.004 466.4 756.959 466.4 748.268V624.373H446.319V748.268C446.319 756.959 439.274 764.004 430.583 764.004H401.448H398.389C393.666 764.004 389.838 767.833 389.838 772.555V774.358V789.703C389.838 790.759 390.694 791.615 391.75 791.615H399.536C400.592 791.615 401.448 790.759 401.448 789.703V782.909C401.448 778.186 405.277 774.358 409.999 774.358H504.816C509.54 774.358 513.368 778.187 513.368 782.909V789.703C513.368 790.759 514.224 791.615 515.279 791.615H523.066C524.122 791.615 524.978 790.759 524.978 789.703V774.358V772.555C524.978 767.832 521.148 764.004 516.426 764.004H513.369Z" fill="white"/>
<path d="M467.821 638.629H443.329C441.688 638.629 440.356 637.299 440.356 635.657V627.793C440.356 626.152 441.686 624.821 443.329 624.821H467.821C469.462 624.821 470.793 626.151 470.793 627.793V635.657C470.793 637.299 469.462 638.629 467.821 638.629Z" fill="#3C4AA0"/>
<path d="M556.292 609.977V622.598C556.292 625.738 553.752 628.277 550.612 628.277H376.395L376.564 609.977H556.292Z" fill="#111A75"/>
<path d="M595.414 398.004L556.289 609.978H510.037C510.037 609.978 523.135 605.483 524.982 575.716C525.921 560.678 523.982 539.192 516.04 508.578H518.333C527.23 508.578 534.448 501.359 534.448 492.463V380.181C534.448 378.442 534.233 376.779 533.848 375.163H576.39C588.488 375.163 597.6 386.122 595.414 398.004Z" fill="#111A75"/>
<path d="M577.375 398.004L538.25 609.978H510.037C510.037 609.978 523.135 605.483 524.982 575.716C525.921 560.678 523.982 539.192 516.04 508.578H518.333C527.23 508.578 534.448 501.359 534.448 492.463V380.181C534.448 378.442 534.233 376.779 533.848 375.163H558.351C570.449 375.163 579.561 386.122 577.375 398.004Z" fill="#B4B0FA"/>
<path d="M516.129 359.279C516.129 359.279 505.169 322.188 505.169 282.239C505.169 242.29 489.632 228.656 472.829 228.656H437.118C417.557 228.656 401.422 243.917 400.276 263.445C399.319 279.767 397.866 297.816 395.785 307.92C391.346 329.479 382.184 371.029 374.242 392.899C366.299 414.769 372.641 433.476 391.98 433.791C391.98 433.791 390.395 473.423 443.027 462.643C492.937 452.42 526.594 437.368 521.29 377.161C520.74 370.924 519.006 364.84 516.129 359.279Z" fill="#040962"/>
<path d="M418.369 273.698C415.115 273.698 411.847 273.153 409.371 271.518C406.905 269.89 405.517 267.381 405.24 264.063C403.993 249.113 416.182 239.688 416.702 239.294C417.041 239.037 417.522 239.107 417.779 239.442C418.036 239.781 417.97 240.263 417.632 240.521C417.51 240.612 405.598 249.844 406.771 263.935C407.01 266.799 408.138 268.86 410.216 270.233C416.859 274.618 430.667 270.119 430.807 270.073C431.209 269.938 431.647 270.159 431.78 270.561C431.914 270.964 431.693 271.4 431.292 271.534C430.901 271.664 424.659 273.698 418.369 273.698Z" fill="#101A77"/>
<path d="M470.066 268.742C469.652 268.742 469.311 268.415 469.297 267.999C469.292 267.851 468.792 253.169 467.468 248.278C467.357 247.867 467.599 247.445 468.01 247.334C468.427 247.22 468.846 247.467 468.954 247.876C470.323 252.94 470.814 267.339 470.836 267.948C470.85 268.373 470.517 268.729 470.093 268.742C470.082 268.742 470.073 268.742 470.066 268.742Z" fill="#101A77"/>
<path d="M529.736 366.909C467.061 400.016 420.378 387.133 404.248 380.684C406.234 379.037 408.342 377.513 410.574 376.174C419.501 370.834 431.83 363.369 439.264 358.505C445.097 354.688 447.129 348.331 447.622 342.575C448.191 335.879 446.667 330.015 446.667 330.015H441.45C426.196 330.015 413.837 317.656 413.837 302.402V267.971H470.062L477.712 335.679C479.221 349.024 490.503 359.09 503.924 359.09H513.359C519.977 359.09 525.872 362.137 529.736 366.909Z" fill="#FCE8D4"/>
<path d="M468.347 549.134C479.096 554.672 496.917 579.12 524.979 575.711C525.913 560.673 523.98 539.196 516.038 508.573H518.331C527.227 508.573 534.446 501.354 534.446 492.458V380.176C534.446 375.145 532.676 370.527 529.733 366.901C467.065 400.017 420.374 387.136 404.255 380.687C399.883 384.327 396.129 388.677 393.197 393.598L354.487 458.673C352.086 462.69 347.761 465.153 343.082 465.153H339.296V501.631H349.639C355.519 501.631 361.121 499.061 364.954 494.613L408.45 444.082C408.45 444.082 419.146 480.771 406.376 539.361L406.38 539.368C406.377 539.37 455.952 542.75 468.347 549.134Z" fill="#FE5A75"/>
<path d="M356.808 786.868C356.808 786.868 354.031 790.238 349.238 794.369C352.544 796.229 356.265 799.174 359.054 803.768C359.054 803.768 367.877 794.706 379.98 793.992C378.609 790.191 376.946 786.573 375.016 783.822L375.275 754.571H352.3L356.808 786.868Z" fill="#FCE8D4"/>
<path d="M359.055 803.768C356.266 799.173 352.546 796.229 349.24 794.368C342.6 800.091 332.081 807.28 319.639 809.032C319.639 809.032 313.159 808.508 310.204 812.895C309.203 814.388 310.204 816.42 311.974 816.728C320.439 818.144 345.989 821.437 380.79 816.712C382.96 816.404 384.53 814.48 384.33 812.31C383.954 808.201 382.44 800.799 379.981 793.99C367.879 794.705 359.055 803.768 359.055 803.768Z" fill="white"/>
<path d="M327.888 583.311C310.237 588.193 321.128 642.65 321.128 642.65L321.123 642.67C321.236 643.547 329.368 707.281 326.753 712.128C324.137 717.007 319.997 727.904 332.387 736.169C332.387 736.169 326.753 756.825 346.67 754.562H352.304L352.305 754.57H375.282L376.562 609.973H412.186C390.313 600.217 341.457 579.557 327.888 583.311Z" fill="#00BDFF"/>
<path d="M468.35 549.133C455.957 542.749 406.382 539.369 406.382 539.369L406.377 539.361C406.376 539.365 406.376 539.369 406.376 539.372C406.376 539.372 348.55 526.597 335.405 539.372C322.261 552.131 269.298 611.481 264.788 627.996C261.879 638.663 264.788 645.651 264.788 645.651C264.788 645.651 254.615 649.683 251.644 655.794C245.272 668.907 257.97 679.032 258.028 679.08H258.033C258.033 679.08 265.744 680.679 276.02 693.265L321.12 642.649C321.12 642.649 321.122 642.663 321.123 642.669L321.128 642.649C321.128 642.649 310.237 588.192 327.888 583.31C341.457 579.556 390.313 600.216 412.185 609.973H510.037C510.037 609.973 523.133 605.485 524.982 575.711C496.92 579.119 479.1 554.671 468.35 549.133Z" fill="#00AEF9"/>
<path d="M258.028 679.08H258.024L258.027 679.082L240.758 710.25C240.758 710.25 237.173 709.353 231.854 707.824C233.841 711.909 235.751 717.142 234.744 720.769C234.744 720.769 242.44 719.776 250.567 725.865C251.538 723.691 252.528 721.275 253.519 718.515L276.017 693.265C265.74 680.678 258.028 679.08 258.028 679.08Z" fill="#FCE8D4"/>
<path d="M234.745 720.768C235.751 717.143 233.841 711.909 231.854 707.824C221.157 704.75 203.411 699.112 193.46 692.996C192.121 692.164 190.397 692.426 189.396 693.657C188.919 694.227 188.688 694.919 188.688 695.627C188.688 696.32 188.919 697.013 189.381 697.582C195.261 704.77 216.347 729.658 234.478 739.324C237.818 741.11 241.99 740.263 244.221 737.2C246.014 734.744 248.232 731.087 250.566 725.864C242.441 719.775 234.745 720.768 234.745 720.768Z" fill="white"/>
<path d="M462.66 330.016C462.66 330.016 455.056 342.652 447.622 342.575C448.192 335.88 446.668 330.016 446.668 330.016H462.66Z" fill="#FFCB9C"/>
<path d="M408.454 444.855C408.136 444.855 407.837 444.655 407.726 444.336C407.64 444.087 399.307 419.205 413.226 395.884C413.444 395.516 413.917 395.4 414.282 395.617C414.646 395.834 414.766 396.307 414.549 396.673C401.006 419.365 409.099 443.593 409.182 443.836C409.321 444.238 409.107 444.676 408.705 444.815C408.624 444.841 408.537 444.855 408.454 444.855Z" fill="#FF8DA3"/>
<path d="M426.281 486.809C425.903 486.809 425.572 486.53 425.52 486.146C425.462 485.725 425.754 485.336 426.177 485.278L506.595 474.108L501.755 392.945C501.729 392.52 502.052 392.155 502.478 392.131C502.898 392.1 503.266 392.429 503.291 392.853L508.173 474.727C508.198 475.128 507.908 475.479 507.51 475.535L426.387 486.801C426.353 486.806 426.317 486.809 426.281 486.809Z" fill="#FF8DA3"/>
<path d="M426.283 509.135C426.018 509.135 425.773 508.999 425.632 508.776L423.92 506.058C423.694 505.698 423.802 505.224 424.16 504.997C424.52 504.773 424.996 504.877 425.221 505.237L426.706 507.595L514.05 507.369H514.052C514.475 507.369 514.82 507.712 514.821 508.137C514.823 508.562 514.478 508.908 514.053 508.908L426.283 509.135Z" fill="#FF8DA3"/>
<path d="M437.858 305.921C437.858 305.921 430.917 302.927 429.829 304.696C428.739 306.466 433.232 308.642 439.221 308.642C445.209 308.642 449.836 304.966 448.613 302.926C447.386 300.885 437.858 305.921 437.858 305.921Z" fill="white"/>
<path d="M439.738 313.74C437.389 313.74 435.71 312.921 435.605 312.869C435.227 312.679 435.073 312.219 435.261 311.838C435.45 311.456 435.913 311.305 436.292 311.49C436.323 311.507 439.572 313.067 443.123 311.477C443.507 311.303 443.965 311.476 444.139 311.864C444.312 312.252 444.139 312.707 443.751 312.881C442.319 313.525 440.942 313.74 439.738 313.74Z" fill="#FFCB9C"/>
<path d="M436.704 299.683C435.185 299.683 433.983 299.015 433.384 298.45C433.23 298.306 433.144 298.103 433.144 297.892V278.837C433.144 274.986 429.513 274.012 429.476 274.002C429.064 273.898 428.816 273.478 428.922 273.067C429.027 272.656 429.441 272.405 429.858 272.513C431.526 272.94 434.683 274.814 434.683 278.838V297.521C435.299 297.941 437.027 298.809 439.261 297.262C439.608 297.021 440.089 297.107 440.332 297.455C440.573 297.804 440.486 298.284 440.138 298.526C438.907 299.377 437.732 299.683 436.704 299.683Z" fill="#FFCB9C"/>
<path d="M447.825 281.605C446.032 281.605 444.573 283.065 444.573 284.859C444.573 286.652 446.032 288.113 447.825 288.113C449.62 288.113 451.079 286.654 451.079 284.859C451.079 283.065 449.62 281.605 447.825 281.605Z" fill="#040962"/>
<path d="M423.033 281.605C421.238 281.605 419.779 283.064 419.779 284.859C419.779 286.652 421.238 288.113 423.033 288.113C424.826 288.113 426.285 286.654 426.285 284.859C426.285 283.064 424.826 281.605 423.033 281.605Z" fill="#040962"/>
<path d="M457.405 297.854C460.308 297.854 462.661 295.5 462.661 292.598C462.661 289.695 460.308 287.341 457.405 287.341C454.502 287.341 452.148 289.695 452.148 292.598C452.148 295.5 454.502 297.854 457.405 297.854Z" fill="#FCBFAC"/>
<path d="M423.04 292.6C423.04 295.509 420.685 297.848 417.776 297.848C416.206 297.848 414.79 297.156 413.836 296.063V289.121C414.79 288.028 416.206 287.336 417.776 287.336C420.685 287.336 423.04 289.691 423.04 292.6Z" fill="#FCBFAC"/>
<path d="M455.957 274.842C455.886 274.842 455.814 274.832 455.742 274.811C446.541 272.128 442.984 274.66 442.95 274.685C442.61 274.935 442.128 274.871 441.875 274.535C441.62 274.2 441.678 273.724 442.012 273.466C442.174 273.339 446.116 270.403 456.173 273.335C456.582 273.453 456.816 273.881 456.698 274.289C456.597 274.625 456.291 274.842 455.957 274.842Z" fill="#040962"/>
<path d="M416.487 274.84C416.205 274.84 415.934 274.684 415.799 274.415C415.609 274.035 415.763 273.573 416.144 273.382C421.261 270.822 427.092 272.623 427.338 272.702C427.743 272.831 427.966 273.262 427.838 273.667C427.71 274.072 427.278 274.298 426.873 274.169C426.819 274.153 421.381 272.485 416.831 274.758C416.719 274.813 416.602 274.84 416.487 274.84Z" fill="#040962"/>
<path d="M488.325 242.099L463.194 227.713C460.717 223.594 456.217 220.822 451.072 220.822C446.36 220.822 442.189 223.146 439.616 226.698C433.071 223.654 429.083 225.465 427.578 226.487C424.994 223.055 420.898 220.823 416.28 220.823C408.478 220.823 402.131 227.172 402.131 234.974C402.131 242.776 408.478 249.125 416.28 249.125C424.082 249.125 430.431 242.776 430.431 234.974C430.431 232.338 429.694 229.877 428.432 227.76C429.597 226.966 432.977 225.382 438.769 228.005C437.598 230.064 436.919 232.439 436.919 234.974C436.919 242.776 443.268 249.125 451.07 249.125C458.872 249.125 465.219 242.776 465.219 234.974C465.219 233.28 464.904 231.661 464.356 230.154L487.56 243.437C487.68 243.506 487.811 243.538 487.942 243.538C488.208 243.538 488.469 243.4 488.61 243.15C488.823 242.779 488.695 242.31 488.325 242.099ZM416.28 247.585C409.326 247.585 403.67 241.927 403.67 234.973C403.67 228.019 409.328 222.361 416.28 222.361C423.236 222.361 428.892 228.019 428.892 234.973C428.892 241.927 423.236 247.585 416.28 247.585ZM451.072 247.585C444.116 247.585 438.46 241.927 438.46 234.973C438.46 228.019 444.118 222.361 451.072 222.361C458.025 222.361 463.682 228.019 463.682 234.973C463.682 241.927 458.024 247.585 451.072 247.585Z" fill="white"/>
<path d="M592.882 485.601C592.862 485.601 592.842 485.604 592.822 485.604V480.163C592.822 479.449 592.243 478.872 591.53 478.872H565.242C564.529 478.872 563.95 479.45 563.95 480.163V512.316C563.95 513.029 564.529 513.607 565.242 513.607H591.53C592.243 513.607 592.822 513.029 592.822 512.316V505.594C592.842 505.594 592.862 505.598 592.882 505.598C597.488 505.598 601.236 501.111 601.236 495.598C601.236 490.086 597.49 485.601 592.882 485.601ZM592.882 502.521C592.862 502.521 592.842 502.513 592.822 502.513V488.687C592.842 488.687 592.862 488.679 592.882 488.679C595.791 488.679 598.158 491.784 598.158 495.601C598.158 499.416 595.791 502.521 592.882 502.521Z" fill="#F9FBFC"/>
<path d="M573.41 533.694H563.526L469.888 809.864H479.64L568.468 547.879L657.296 809.864H667.048L573.41 533.694Z" fill="#040962"/>
<path d="M176.172 533.694L82.5342 809.864H92.2863L181.114 547.879L269.942 809.864H279.694L186.057 533.694H176.172Z" fill="#040962"/>
<path d="M209.897 440.332L201.062 476.426L192.951 509.625H145.452L164.184 455.354L169.371 440.332H209.897Z" fill="#6161C9"/>
<path d="M212.898 440.332L203.709 477.934L195.952 509.625H148.453L166.708 456.786L172.387 440.332H212.898Z" fill="white"/>
<path d="M207.405 505.652H129.931C128.46 505.652 127.266 506.845 127.266 508.318V510.947C127.266 512.418 128.458 513.613 129.931 513.613H207.405C208.877 513.613 210.071 512.42 210.071 510.947V508.318C210.069 506.845 208.877 505.652 207.405 505.652Z" fill="#7F7FDD"/>
<path opacity="0.28" d="M212.898 440.332L203.709 477.934L201.062 476.426L166.708 456.786L164.184 455.354L169.371 440.332H212.898Z" fill="#6161C9"/>
<path d="M290.827 450.804H117.984C115.484 450.804 113.072 448.779 112.597 446.279L91.4472 335.261C91.2194 334.061 91.4765 332.909 92.1629 332.061L92.7432 331.344C93.4297 330.496 94.4901 330.019 95.6907 330.019H268.534C271.033 330.019 273.445 332.044 273.921 334.544L295.069 445.564C295.298 446.764 295.04 447.915 294.353 448.763L293.773 449.481C293.088 450.327 292.027 450.804 290.827 450.804Z" fill="#7F7FDD"/>
<path d="M290.908 447.435H120.715C118.215 447.435 115.803 445.409 115.328 442.909L94.6846 334.542C94.209 332.042 95.8482 330.017 98.3478 330.017H268.54C271.04 330.017 273.452 332.042 273.928 334.542L294.571 442.909C295.046 445.409 293.406 447.435 290.908 447.435Z" fill="white"/>
<path d="M288.488 443.471H121.617C120.729 443.471 119.872 442.751 119.703 441.863L99.4579 335.588C99.2886 334.7 99.872 333.98 100.76 333.98H267.631C268.519 333.98 269.377 334.7 269.546 335.588L289.79 441.863C289.96 442.751 289.378 443.471 288.488 443.471Z" fill="#553F77"/>
<path d="M106.98 345.131H109.521C110.223 345.131 110.683 344.562 110.549 343.86C110.415 343.158 109.738 342.589 109.036 342.589H106.495C105.793 342.589 105.333 343.158 105.467 343.86C105.6 344.562 106.278 345.131 106.98 345.131Z" fill="#5A91FF"/>
<path d="M132.393 345.131H157.806C158.508 345.131 158.968 344.562 158.834 343.86C158.7 343.158 158.023 342.589 157.321 342.589H131.908C131.206 342.589 130.746 343.158 130.88 343.86C131.014 344.562 131.691 345.131 132.393 345.131Z" fill="#362656"/>
<path d="M162.889 345.131H165.43C166.132 345.131 166.592 344.562 166.458 343.86C166.324 343.158 165.647 342.589 164.945 342.589H162.404C161.702 342.589 161.242 343.158 161.376 343.86C161.51 344.562 162.187 345.131 162.889 345.131Z" fill="#7859B5"/>
<path d="M188.3 345.131H196.634C197.336 345.131 197.796 344.562 197.663 343.86C197.529 343.158 196.851 342.589 196.15 342.589H187.815C187.113 342.589 186.653 343.158 186.787 343.86C186.921 344.562 187.598 345.131 188.3 345.131Z" fill="#7859B5"/>
<path d="M170.509 345.131H183.217C183.918 345.131 184.379 344.562 184.245 343.86C184.111 343.158 183.434 342.589 182.732 342.589H170.026C169.324 342.589 168.864 343.158 168.998 343.86C169.13 344.562 169.807 345.131 170.509 345.131Z" fill="#735F99"/>
<path d="M114.604 345.131H127.309C128.011 345.131 128.471 344.562 128.337 343.86C128.204 343.158 127.526 342.589 126.824 342.589H114.119C113.417 342.589 112.957 343.158 113.091 343.86C113.224 344.562 113.902 345.131 114.604 345.131Z" fill="#735F99"/>
<path d="M146.302 351.457C146.168 350.755 145.491 350.185 144.789 350.185H116.836C116.135 350.185 115.674 350.755 115.808 351.457C115.942 352.159 116.619 352.728 117.321 352.728H145.276C145.976 352.728 146.436 352.159 146.302 351.457Z" fill="#735F99"/>
<path d="M111.755 350.188H107.944C107.242 350.188 106.782 350.757 106.916 351.459C107.05 352.161 107.727 352.73 108.429 352.73H112.241C112.943 352.73 113.403 352.161 113.269 351.459C113.134 350.755 112.457 350.188 111.755 350.188Z" fill="#FF6498"/>
<path d="M175.286 350.188H149.873C149.171 350.188 148.711 350.757 148.844 351.459C148.978 352.161 149.656 352.73 150.357 352.73H175.771C176.472 352.73 176.933 352.161 176.799 351.459C176.665 350.755 175.986 350.188 175.286 350.188Z" fill="#735F99"/>
<path d="M184.67 352.728C185.372 352.728 185.832 352.159 185.698 351.457C185.564 350.755 184.887 350.185 184.185 350.185H180.373C179.671 350.185 179.211 350.755 179.344 351.457C179.478 352.159 180.156 352.728 180.857 352.728H184.67Z" fill="#7859B5"/>
<path d="M197.6 350.188H189.265C188.563 350.188 188.103 350.757 188.237 351.459C188.371 352.161 189.048 352.73 189.75 352.73H198.085C198.786 352.73 199.247 352.161 199.113 351.459C198.979 350.755 198.302 350.188 197.6 350.188Z" fill="#735F99"/>
<path d="M168.321 360.326C169.023 360.326 169.484 359.756 169.35 359.054C169.216 358.352 168.538 357.783 167.837 357.783H165.295C164.594 357.783 164.133 358.352 164.267 359.054C164.401 359.756 165.078 360.326 165.78 360.326H168.321Z" fill="#7859B5"/>
<path d="M109.873 360.326H112.414C113.116 360.326 113.576 359.756 113.442 359.054C113.308 358.352 112.631 357.783 111.929 357.783H109.388C108.686 357.783 108.226 358.352 108.36 359.054C108.494 359.758 109.171 360.326 109.873 360.326Z" fill="#FFEE4D"/>
<path d="M171.891 359.057C172.025 359.759 172.702 360.328 173.404 360.328H186.11C186.812 360.328 187.272 359.759 187.138 359.057C187.004 358.355 186.327 357.785 185.625 357.785H172.918C172.218 357.785 171.757 358.355 171.891 359.057Z" fill="#5A91FF"/>
<path d="M117.498 360.326H130.204C130.906 360.326 131.366 359.756 131.232 359.054C131.098 358.352 130.421 357.783 129.719 357.783H117.013C116.311 357.783 115.851 358.352 115.985 359.054C116.119 359.758 116.796 360.326 117.498 360.326Z" fill="#5A91FF"/>
<path d="M199.047 357.785H190.712C190.011 357.785 189.55 358.355 189.684 359.057C189.818 359.759 190.495 360.328 191.197 360.328H199.532C200.234 360.328 200.694 359.759 200.56 359.057C200.426 358.355 199.749 357.785 199.047 357.785Z" fill="#5A91FF"/>
<path d="M135.29 360.326H160.703C161.405 360.326 161.865 359.756 161.731 359.054C161.597 358.352 160.92 357.783 160.218 357.783H134.805C134.103 357.783 133.643 358.352 133.777 359.054C133.911 359.758 134.588 360.326 135.29 360.326Z" fill="#7859B5"/>
<path d="M200.491 365.384H192.157C191.455 365.384 190.995 365.954 191.129 366.656C191.263 367.357 191.94 367.927 192.642 367.927H200.976C201.678 367.927 202.138 367.357 202.004 366.656C201.869 365.952 201.192 365.384 200.491 365.384Z" fill="#735F99"/>
<path d="M187.078 365.384H183.265C182.563 365.384 182.103 365.954 182.237 366.656C182.371 367.357 183.048 367.927 183.75 367.927H187.563C188.264 367.927 188.725 367.357 188.591 366.656C188.457 365.952 187.78 365.384 187.078 365.384Z" fill="#362656"/>
<path d="M179.692 366.653C179.558 365.951 178.881 365.382 178.179 365.382H152.766C152.064 365.382 151.604 365.951 151.738 366.653C151.872 367.355 152.549 367.925 153.251 367.925H178.664C179.366 367.925 179.826 367.355 179.692 366.653Z" fill="#735F99"/>
<path d="M118.706 366.653C118.84 367.355 119.517 367.925 120.219 367.925H148.173C148.875 367.925 149.335 367.355 149.201 366.653C149.067 365.951 148.39 365.382 147.688 365.382H119.734C119.032 365.383 118.572 365.951 118.706 366.653Z" fill="#735F99"/>
<path d="M114.651 365.384H110.838C110.137 365.384 109.676 365.954 109.81 366.656C109.944 367.357 110.621 367.927 111.323 367.927H115.136C115.838 367.927 116.298 367.357 116.164 366.656C116.03 365.952 115.353 365.384 114.651 365.384Z" fill="#5A91FF"/>
<path d="M201.94 372.981H198.688C197.986 372.981 197.526 373.55 197.66 374.252C197.794 374.954 198.471 375.524 199.173 375.524H202.425C203.127 375.524 203.587 374.954 203.453 374.252C203.319 373.55 202.642 372.981 201.94 372.981Z" fill="#5A91FF"/>
<path d="M174.789 374.252C174.655 373.55 173.978 372.981 173.276 372.981H170.735C170.033 372.981 169.573 373.55 169.707 374.252C169.841 374.954 170.518 375.524 171.22 375.524H173.761C174.461 375.522 174.923 374.954 174.789 374.252Z" fill="#5A91FF"/>
<path d="M165.653 372.981H140.24C139.538 372.981 139.078 373.55 139.212 374.252C139.346 374.954 140.023 375.524 140.725 375.524H166.138C166.84 375.524 167.3 374.954 167.166 374.252C167.032 373.55 166.355 372.981 165.653 372.981Z" fill="#735F99"/>
<path d="M195.118 374.252C194.984 373.55 194.307 372.981 193.605 372.981H178.358C177.656 372.981 177.196 373.55 177.33 374.252C177.464 374.954 178.141 375.524 178.843 375.524H194.09C194.792 375.522 195.252 374.954 195.118 374.252Z" fill="#735F99"/>
<path d="M120.393 375.521H135.641C136.343 375.521 136.804 374.952 136.67 374.25C136.536 373.548 135.858 372.979 135.157 372.979H119.91C119.208 372.979 118.748 373.548 118.882 374.25C119.014 374.953 119.691 375.521 120.393 375.521Z" fill="#7859B5"/>
<path d="M112.768 375.521H115.309C116.011 375.521 116.471 374.952 116.337 374.25C116.203 373.548 115.526 372.979 114.824 372.979H112.283C111.581 372.979 111.121 373.548 111.255 374.25C111.39 374.953 112.067 375.521 112.768 375.521Z" fill="#FF6498"/>
<path d="M114.215 383.121H116.756C117.458 383.121 117.918 382.552 117.784 381.85C117.65 381.148 116.973 380.579 116.271 380.579H113.73C113.028 380.579 112.568 381.148 112.702 381.85C112.836 382.552 113.513 383.121 114.215 383.121Z" fill="#FFEE4D"/>
<path d="M121.837 383.121H134.545C135.247 383.121 135.707 382.552 135.573 381.85C135.439 381.148 134.762 380.579 134.06 380.579H121.354C120.652 380.579 120.192 381.148 120.326 381.85C120.458 382.552 121.135 383.121 121.837 383.121Z" fill="#362656"/>
<path d="M189.972 380.579H177.266C176.564 380.579 176.104 381.148 176.238 381.85C176.372 382.552 177.049 383.121 177.751 383.121H190.457C191.159 383.121 191.619 382.552 191.485 381.85C191.351 381.147 190.674 380.579 189.972 380.579Z" fill="#735F99"/>
<path d="M203.385 380.579H195.05C194.348 380.579 193.888 381.148 194.022 381.85C194.156 382.552 194.833 383.121 195.535 383.121H203.87C204.572 383.121 205.032 382.552 204.898 381.85C204.764 381.147 204.087 380.579 203.385 380.579Z" fill="#735F99"/>
<path d="M170.127 383.121H172.668C173.37 383.121 173.83 382.552 173.696 381.85C173.562 381.148 172.885 380.579 172.183 380.579H169.642C168.94 380.579 168.48 381.148 168.614 381.85C168.748 382.552 169.425 383.121 170.127 383.121Z" fill="#5A91FF"/>
<path d="M139.629 383.121H165.042C165.744 383.121 166.204 382.552 166.07 381.85C165.936 381.148 165.259 380.579 164.557 380.579H139.144C138.442 380.579 137.982 381.148 138.116 381.85C138.25 382.552 138.927 383.121 139.629 383.121Z" fill="#735F99"/>
<path d="M123.049 389.447C123.182 390.149 123.86 390.718 124.561 390.718H152.516C153.218 390.718 153.678 390.149 153.544 389.447C153.41 388.745 152.733 388.175 152.031 388.175H124.077C123.376 388.177 122.915 388.746 123.049 389.447Z" fill="#735F99"/>
<path d="M118.987 388.178H115.174C114.473 388.178 114.012 388.747 114.146 389.449C114.28 390.151 114.957 390.72 115.659 390.72H119.472C120.174 390.72 120.634 390.151 120.5 389.449C120.366 388.747 119.689 388.178 118.987 388.178Z" fill="#FF6498"/>
<path d="M184.034 389.447C183.9 388.745 183.223 388.175 182.521 388.175H157.108C156.406 388.175 155.946 388.745 156.08 389.447C156.214 390.149 156.891 390.718 157.593 390.718H183.006C183.708 390.718 184.168 390.149 184.034 389.447Z" fill="#735F99"/>
<path d="M191.905 390.718C192.607 390.718 193.067 390.149 192.933 389.447C192.8 388.745 192.122 388.175 191.42 388.175H187.608C186.906 388.175 186.446 388.745 186.58 389.447C186.714 390.149 187.391 390.718 188.093 390.718H191.905Z" fill="#362656"/>
<path d="M204.835 388.178H196.501C195.799 388.178 195.338 388.747 195.472 389.449C195.606 390.151 196.284 390.72 196.985 390.72H205.32C206.022 390.72 206.482 390.151 206.348 389.449C206.214 388.747 205.535 388.178 204.835 388.178Z" fill="#735F99"/>
<path d="M176.591 397.045C176.457 396.343 175.78 395.773 175.078 395.773H172.537C171.835 395.773 171.375 396.343 171.509 397.045C171.642 397.746 172.32 398.316 173.022 398.316H175.563C176.263 398.316 176.725 397.746 176.591 397.045Z" fill="#7859B5"/>
<path d="M206.282 395.775H197.948C197.246 395.775 196.786 396.345 196.92 397.047C197.054 397.749 197.731 398.318 198.433 398.318H206.767C207.469 398.318 207.929 397.749 207.795 397.047C207.661 396.343 206.984 395.775 206.282 395.775Z" fill="#362656"/>
<path d="M142.524 398.316H167.937C168.639 398.316 169.099 397.746 168.965 397.045C168.831 396.343 168.154 395.773 167.452 395.773H142.041C141.339 395.773 140.879 396.343 141.012 397.045C141.146 397.746 141.824 398.316 142.524 398.316Z" fill="#5A91FF"/>
<path d="M124.735 398.316H137.442C138.144 398.316 138.604 397.746 138.47 397.045C138.336 396.343 137.659 395.773 136.957 395.773H124.252C123.55 395.773 123.089 396.343 123.223 397.045C123.356 397.746 124.033 398.316 124.735 398.316Z" fill="#735F99"/>
<path d="M117.114 398.316H119.655C120.357 398.316 120.818 397.746 120.684 397.045C120.55 396.343 119.872 395.773 119.171 395.773H116.629C115.928 395.773 115.467 396.343 115.601 397.045C115.735 397.746 116.412 398.316 117.114 398.316Z" fill="#FFEE4D"/>
<path d="M180.646 398.316H193.351C194.053 398.316 194.513 397.746 194.379 397.045C194.246 396.343 193.568 395.773 192.866 395.773H180.161C179.459 395.773 178.999 396.343 179.133 397.045C179.266 397.746 179.944 398.316 180.646 398.316Z" fill="#7859B5"/>
<path d="M141.429 405.915C142.131 405.915 142.591 405.345 142.457 404.643C142.323 403.942 141.646 403.372 140.944 403.372H125.696C124.994 403.372 124.534 403.942 124.668 404.643C124.802 405.345 125.479 405.915 126.181 405.915H141.429Z" fill="#7859B5"/>
<path d="M207.731 403.372H204.479C203.777 403.372 203.317 403.942 203.451 404.643C203.585 405.345 204.262 405.915 204.964 405.915H208.216C208.918 405.915 209.378 405.345 209.244 404.643C209.11 403.942 208.433 403.372 207.731 403.372Z" fill="#7859B5"/>
<path d="M177.012 405.915H179.553C180.255 405.915 180.715 405.345 180.581 404.643C180.447 403.942 179.77 403.372 179.068 403.372H176.527C175.825 403.372 175.365 403.942 175.499 404.643C175.633 405.345 176.31 405.915 177.012 405.915Z" fill="#5A91FF"/>
<path d="M146.511 405.915H171.924C172.626 405.915 173.086 405.345 172.952 404.643C172.818 403.942 172.141 403.372 171.439 403.372H146.026C145.324 403.372 144.864 403.942 144.998 404.643C145.132 405.345 145.809 405.915 146.511 405.915Z" fill="#735F99"/>
<path d="M118.562 405.915H121.103C121.805 405.915 122.265 405.345 122.131 404.643C121.997 403.942 121.32 403.372 120.618 403.372H118.077C117.375 403.372 116.915 403.942 117.049 404.643C117.182 405.345 117.86 405.915 118.562 405.915Z" fill="#FF6498"/>
<path d="M184.634 405.915H199.882C200.584 405.915 201.044 405.345 200.91 404.643C200.777 403.942 200.099 403.372 199.397 403.372H184.149C183.447 403.372 182.987 403.942 183.121 404.643C183.255 405.345 183.932 405.915 184.634 405.915Z" fill="#735F99"/>
<path d="M209.182 410.971H200.847C200.145 410.971 199.685 411.54 199.819 412.242C199.953 412.944 200.63 413.514 201.332 413.514H209.667C210.368 413.514 210.829 412.944 210.695 412.242C210.561 411.54 209.884 410.971 209.182 410.971Z" fill="#7859B5"/>
<path d="M195.757 410.971H191.945C191.243 410.971 190.783 411.54 190.917 412.242C191.051 412.944 191.728 413.514 192.43 413.514H196.242C196.944 413.514 197.404 412.944 197.27 412.242C197.136 411.54 196.459 410.971 195.757 410.971Z" fill="#5A91FF"/>
<path d="M156.373 410.971H128.419C127.717 410.971 127.256 411.54 127.39 412.242C127.524 412.944 128.201 413.514 128.903 413.514H156.858C157.559 413.514 158.02 412.944 157.886 412.242C157.75 411.54 157.073 410.971 156.373 410.971Z" fill="#362656"/>
<path d="M186.868 410.971H161.455C160.753 410.971 160.293 411.54 160.426 412.242C160.56 412.944 161.238 413.514 161.939 413.514H187.353C188.054 413.514 188.515 412.944 188.381 412.242C188.247 411.54 187.568 410.971 186.868 410.971Z" fill="#735F99"/>
<path d="M219.264 345.131H244.677C245.379 345.131 245.839 344.562 245.705 343.86C245.571 343.158 244.894 342.589 244.192 342.589H218.779C218.077 342.589 217.617 343.158 217.751 343.86C217.885 344.562 218.562 345.131 219.264 345.131Z" fill="#362656"/>
<path d="M249.759 345.131H252.3C253.002 345.131 253.462 344.562 253.328 343.86C253.194 343.158 252.517 342.589 251.815 342.589H249.274C248.572 342.589 248.112 343.158 248.246 343.86C248.38 344.562 249.057 345.131 249.759 345.131Z" fill="#7859B5"/>
<path d="M257.383 345.131H264.832C265.534 345.131 265.994 344.562 265.861 343.86C265.727 343.158 265.049 342.589 264.348 342.589H256.898C256.196 342.589 255.736 343.158 255.87 343.86C256.004 344.562 256.681 345.131 257.383 345.131Z" fill="#735F99"/>
<path d="M201.477 345.131H214.182C214.884 345.131 215.344 344.562 215.211 343.86C215.077 343.158 214.399 342.589 213.698 342.589H200.992C200.29 342.589 199.83 343.158 199.964 343.86C200.098 344.562 200.775 345.131 201.477 345.131Z" fill="#735F99"/>
<path d="M231.704 351.457C231.57 350.755 230.893 350.185 230.191 350.185H202.237C201.535 350.185 201.075 350.755 201.209 351.457C201.343 352.159 202.02 352.728 202.722 352.728H230.676C231.376 352.728 231.836 352.159 231.704 351.457Z" fill="#735F99"/>
<path d="M265.796 350.188H235.273C234.571 350.188 234.111 350.757 234.245 351.459C234.379 352.161 235.056 352.73 235.758 352.73H266.281C266.983 352.73 267.443 352.161 267.309 351.459C267.175 350.755 266.498 350.188 265.796 350.188Z" fill="#735F99"/>
<path d="M255.194 360.326C255.895 360.326 256.356 359.756 256.222 359.054C256.088 358.352 255.411 357.783 254.709 357.783H252.168C251.466 357.783 251.005 358.352 251.139 359.054C251.273 359.756 251.95 360.326 252.652 360.326H255.194Z" fill="#7859B5"/>
<path d="M258.764 359.057C258.898 359.759 259.575 360.328 260.277 360.328H267.091C267.793 360.328 268.253 359.759 268.119 359.057C267.985 358.355 267.308 357.785 266.606 357.785H259.792C259.092 357.785 258.63 358.355 258.764 359.057Z" fill="#5A91FF"/>
<path d="M204.368 360.326H217.074C217.776 360.326 218.236 359.756 218.102 359.054C217.968 358.352 217.291 357.783 216.589 357.783H203.883C203.181 357.783 202.721 358.352 202.855 359.054C202.989 359.758 203.666 360.326 204.368 360.326Z" fill="#5A91FF"/>
<path d="M222.163 360.326H247.576C248.278 360.326 248.738 359.756 248.604 359.054C248.47 358.352 247.793 357.783 247.091 357.783H221.678C220.976 357.783 220.516 358.352 220.65 359.054C220.784 359.758 221.461 360.326 222.163 360.326Z" fill="#7859B5"/>
<path d="M269.74 366.653C269.606 365.951 268.929 365.382 268.227 365.382H239.637C238.935 365.382 238.475 365.951 238.609 366.653C238.743 367.355 239.42 367.925 240.122 367.925H268.712C269.414 367.925 269.874 367.355 269.74 366.653Z" fill="#735F99"/>
<path d="M205.578 366.653C205.712 367.355 206.389 367.925 207.091 367.925H235.045C235.747 367.925 236.207 367.355 236.073 366.653C235.939 365.951 235.262 365.382 234.56 365.382H206.606C205.904 365.383 205.444 365.951 205.578 366.653Z" fill="#735F99"/>
<path d="M261.662 374.252C261.528 373.55 260.851 372.981 260.149 372.981H257.608C256.906 372.981 256.446 373.55 256.58 374.252C256.714 374.954 257.391 375.524 258.093 375.524H260.634C261.336 375.522 261.796 374.954 261.662 374.252Z" fill="#5A91FF"/>
<path d="M252.526 372.981H227.113C226.411 372.981 225.951 373.55 226.085 374.252C226.219 374.954 226.896 375.524 227.598 375.524H253.011C253.713 375.524 254.173 374.954 254.039 374.252C253.905 373.55 253.228 372.981 252.526 372.981Z" fill="#735F99"/>
<path d="M271.822 374.252C271.689 373.55 271.011 372.981 270.309 372.981H265.227C264.525 372.981 264.065 373.55 264.199 374.252C264.333 374.954 265.01 375.524 265.712 375.524H270.794C271.496 375.522 271.956 374.954 271.822 374.252Z" fill="#735F99"/>
<path d="M207.263 375.521H222.51C223.212 375.521 223.672 374.952 223.538 374.25C223.404 373.548 222.727 372.979 222.025 372.979H206.777C206.075 372.979 205.615 373.548 205.749 374.25C205.884 374.953 206.561 375.521 207.263 375.521Z" fill="#7859B5"/>
<path d="M208.71 383.121H221.418C222.12 383.121 222.58 382.552 222.446 381.85C222.312 381.148 221.635 380.579 220.933 380.579H208.227C207.525 380.579 207.065 381.148 207.199 381.85C207.331 382.552 208.009 383.121 208.71 383.121Z" fill="#362656"/>
<path d="M270.751 380.579H264.139C263.437 380.579 262.977 381.148 263.111 381.85C263.245 382.552 263.922 383.121 264.624 383.121H271.236C271.938 383.121 272.398 382.552 272.264 381.85C272.131 381.147 271.453 380.579 270.751 380.579Z" fill="#735F99"/>
<path d="M257 383.121H259.541C260.243 383.121 260.703 382.552 260.569 381.85C260.435 381.148 259.758 380.579 259.056 380.579H256.515C255.813 380.579 255.353 381.148 255.487 381.85C255.621 382.552 256.298 383.121 257 383.121Z" fill="#5A91FF"/>
<path d="M226.499 383.121H251.912C252.614 383.121 253.074 382.552 252.94 381.85C252.806 381.148 252.129 380.579 251.427 380.579H226.014C225.312 380.579 224.852 381.148 224.986 381.85C225.12 382.552 225.797 383.121 226.499 383.121Z" fill="#735F99"/>
<path d="M209.919 389.447C210.053 390.149 210.73 390.718 211.432 390.718H239.386C240.088 390.718 240.548 390.149 240.415 389.447C240.281 388.745 239.603 388.175 238.902 388.175H210.947C210.247 388.177 209.787 388.746 209.919 389.447Z" fill="#735F99"/>
<path d="M274.717 389.447C274.583 388.745 273.906 388.175 273.204 388.175H243.98C243.278 388.175 242.818 388.745 242.952 389.447C243.086 390.149 243.763 390.718 244.465 390.718H273.689C274.391 390.718 274.851 390.149 274.717 389.447Z" fill="#735F99"/>
<path d="M263.463 397.045C263.329 396.343 262.652 395.773 261.95 395.773H259.409C258.707 395.773 258.247 396.343 258.381 397.045C258.514 397.746 259.192 398.316 259.894 398.316H262.435C263.137 398.316 263.597 397.746 263.463 397.045Z" fill="#7859B5"/>
<path d="M229.398 398.316H254.812C255.513 398.316 255.974 397.746 255.84 397.045C255.706 396.343 255.029 395.773 254.327 395.773H228.914C228.212 395.773 227.752 396.343 227.885 397.045C228.019 397.746 228.697 398.316 229.398 398.316Z" fill="#5A91FF"/>
<path d="M211.604 398.316H224.309C225.011 398.316 225.471 397.746 225.337 397.045C225.204 396.343 224.526 395.773 223.824 395.773H211.119C210.417 395.773 209.957 396.343 210.091 397.045C210.224 397.746 210.902 398.316 211.604 398.316Z" fill="#735F99"/>
<path d="M267.516 398.316H275.139C275.841 398.316 276.301 397.746 276.167 397.045C276.033 396.343 275.356 395.773 274.654 395.773H267.031C266.329 395.773 265.869 396.343 266.003 397.045C266.137 397.746 266.814 398.316 267.516 398.316Z" fill="#7859B5"/>
<path d="M228.302 405.915C229.004 405.915 229.464 405.345 229.33 404.643C229.196 403.942 228.519 403.372 227.817 403.372H212.569C211.867 403.372 211.407 403.942 211.541 404.643C211.675 405.345 212.352 405.915 213.054 405.915H228.302Z" fill="#7859B5"/>
<path d="M263.884 405.915H266.425C267.127 405.915 267.587 405.345 267.453 404.643C267.319 403.942 266.642 403.372 265.94 403.372H263.399C262.697 403.372 262.237 403.942 262.371 404.643C262.505 405.345 263.182 405.915 263.884 405.915Z" fill="#5A91FF"/>
<path d="M233.384 405.915H258.797C259.499 405.915 259.959 405.345 259.825 404.643C259.691 403.942 259.014 403.372 258.312 403.372H232.899C232.197 403.372 231.737 403.942 231.871 404.643C232.005 405.345 232.682 405.915 233.384 405.915Z" fill="#735F99"/>
<path d="M271.504 405.915H277.048C277.75 405.915 278.21 405.345 278.077 404.643C277.943 403.942 277.265 403.372 276.564 403.372H271.021C270.319 403.372 269.859 403.942 269.993 404.643C270.127 405.345 270.804 405.915 271.504 405.915Z" fill="#735F99"/>
<path d="M278.188 410.971H277.351C276.649 410.971 276.189 411.54 276.323 412.242C276.457 412.944 277.134 413.514 277.836 413.514H278.673C279.375 413.514 279.835 412.944 279.701 412.242C279.568 411.54 278.89 410.971 278.188 410.971Z" fill="#5A91FF"/>
<path d="M243.245 410.971H215.291C214.589 410.971 214.129 411.54 214.262 412.242C214.396 412.944 215.074 413.514 215.775 413.514H243.73C244.432 413.514 244.892 412.944 244.758 412.242C244.624 411.54 243.947 410.971 243.245 410.971Z" fill="#362656"/>
<path d="M273.74 410.971H248.327C247.625 410.971 247.165 411.54 247.299 412.242C247.432 412.944 248.11 413.514 248.812 413.514H274.225C274.926 413.514 275.387 412.944 275.253 412.242C275.119 411.54 274.442 410.971 273.74 410.971Z" fill="#735F99"/>
<path d="M123.334 410.971H119.521C118.819 410.971 118.359 411.54 118.493 412.242C118.627 412.944 119.304 413.514 120.006 413.514H123.818C124.52 413.514 124.98 412.944 124.847 412.242C124.713 411.54 124.035 410.971 123.334 410.971Z" fill="#5A91FF"/>
<path d="M121.18 419.668H123.721C124.423 419.668 124.883 419.099 124.749 418.397C124.615 417.695 123.938 417.125 123.236 417.125H120.695C119.993 417.125 119.533 417.695 119.667 418.397C119.801 419.099 120.479 419.668 121.18 419.668Z" fill="#5A91FF"/>
<path d="M146.592 419.668H172.005C172.707 419.668 173.167 419.099 173.033 418.397C172.899 417.695 172.222 417.125 171.52 417.125H146.107C145.405 417.125 144.945 417.695 145.079 418.397C145.213 419.099 145.89 419.668 146.592 419.668Z" fill="#362656"/>
<path d="M177.087 419.668H179.628C180.33 419.668 180.79 419.099 180.656 418.397C180.522 417.695 179.845 417.125 179.143 417.125H176.602C175.9 417.125 175.44 417.695 175.574 418.397C175.708 419.099 176.385 419.668 177.087 419.668Z" fill="#7859B5"/>
<path d="M202.5 419.668H210.835C211.536 419.668 211.997 419.099 211.863 418.397C211.729 417.695 211.052 417.125 210.35 417.125H202.015C201.313 417.125 200.853 417.695 200.987 418.397C201.121 419.099 201.798 419.668 202.5 419.668Z" fill="#7859B5"/>
<path d="M184.711 419.668H197.417C198.119 419.668 198.579 419.099 198.445 418.397C198.311 417.695 197.634 417.125 196.932 417.125H184.226C183.524 417.125 183.064 417.695 183.198 418.397C183.332 419.099 184.009 419.668 184.711 419.668Z" fill="#735F99"/>
<path d="M128.806 419.668H141.513C142.215 419.668 142.675 419.099 142.542 418.397C142.408 417.695 141.73 417.125 141.029 417.125H128.323C127.621 417.125 127.161 417.695 127.295 418.397C127.427 419.099 128.104 419.668 128.806 419.668Z" fill="#735F99"/>
<path d="M160.504 425.996C160.37 425.294 159.693 424.724 158.991 424.724H131.037C130.335 424.724 129.875 425.294 130.009 425.996C130.142 426.698 130.82 427.267 131.522 427.267H159.476C160.176 427.266 160.638 426.698 160.504 425.996Z" fill="#735F99"/>
<path d="M125.957 424.724H122.144C121.442 424.724 120.982 425.294 121.116 425.996C121.25 426.698 121.927 427.267 122.629 427.267H126.441C127.143 427.267 127.604 426.698 127.47 425.996C127.336 425.294 126.658 424.724 125.957 424.724Z" fill="#FF6498"/>
<path d="M189.486 424.724H164.073C163.371 424.724 162.911 425.294 163.045 425.996C163.179 426.698 163.856 427.267 164.558 427.267H189.971C190.673 427.267 191.133 426.698 190.999 425.996C190.865 425.294 190.188 424.724 189.486 424.724Z" fill="#735F99"/>
<path d="M198.868 427.265C199.57 427.265 200.03 426.695 199.896 425.993C199.762 425.292 199.085 424.722 198.383 424.722H194.571C193.869 424.722 193.409 425.292 193.543 425.993C193.677 426.695 194.354 427.265 195.056 427.265H198.868Z" fill="#7859B5"/>
<path d="M211.798 424.724H203.463C202.762 424.724 202.301 425.294 202.435 425.996C202.569 426.698 203.246 427.267 203.948 427.267H212.283C212.985 427.267 213.445 426.698 213.311 425.996C213.177 425.294 212.5 424.724 211.798 424.724Z" fill="#735F99"/>
<path d="M182.522 434.865C183.224 434.865 183.684 434.295 183.55 433.594C183.416 432.892 182.739 432.322 182.037 432.322H179.496C178.794 432.322 178.334 432.892 178.468 433.594C178.601 434.295 179.279 434.865 179.98 434.865H182.522Z" fill="#7859B5"/>
<path d="M124.073 434.865H126.614C127.316 434.865 127.776 434.295 127.643 433.594C127.509 432.892 126.831 432.322 126.13 432.322H123.588C122.887 432.322 122.426 432.892 122.56 433.594C122.694 434.295 123.371 434.865 124.073 434.865Z" fill="#FFEE4D"/>
<path d="M186.091 433.594C186.225 434.295 186.902 434.865 187.604 434.865H200.31C201.012 434.865 201.472 434.295 201.338 433.594C201.204 432.892 200.527 432.322 199.825 432.322H187.119C186.419 432.322 185.959 432.892 186.091 433.594Z" fill="#5A91FF"/>
<path d="M131.7 434.865H144.407C145.109 434.865 145.569 434.295 145.435 433.594C145.301 432.892 144.624 432.322 143.922 432.322H131.216C130.515 432.322 130.054 432.892 130.188 433.594C130.321 434.295 130.998 434.865 131.7 434.865Z" fill="#5A91FF"/>
<path d="M213.247 432.322H204.913C204.211 432.322 203.751 432.892 203.884 433.594C204.018 434.295 204.696 434.865 205.397 434.865H213.732C214.434 434.865 214.894 434.295 214.76 433.594C214.625 432.892 213.948 432.322 213.247 432.322Z" fill="#5A91FF"/>
<path d="M149.49 434.865H174.903C175.605 434.865 176.065 434.295 175.932 433.594C175.798 432.892 175.12 432.322 174.419 432.322H149.005C148.304 432.322 147.843 432.892 147.977 433.594C148.111 434.295 148.788 434.865 149.49 434.865Z" fill="#7859B5"/>
<path d="M233.469 419.668H258.882C259.584 419.668 260.044 419.099 259.91 418.397C259.776 417.695 259.099 417.125 258.397 417.125H232.984C232.282 417.125 231.822 417.695 231.956 418.397C232.09 419.099 232.767 419.668 233.469 419.668Z" fill="#362656"/>
<path d="M263.959 419.668H266.5C267.202 419.668 267.662 419.099 267.528 418.397C267.394 417.695 266.717 417.125 266.015 417.125H263.474C262.772 417.125 262.312 417.695 262.446 418.397C262.58 419.099 263.257 419.668 263.959 419.668Z" fill="#7859B5"/>
<path d="M271.583 419.668H279.842C280.544 419.668 281.004 419.099 280.87 418.397C280.736 417.695 280.059 417.125 279.357 417.125H271.098C270.396 417.125 269.936 417.695 270.07 418.397C270.204 419.099 270.881 419.668 271.583 419.668Z" fill="#735F99"/>
<path d="M215.677 419.668H228.383C229.084 419.668 229.545 419.099 229.411 418.397C229.277 417.695 228.6 417.125 227.898 417.125H215.192C214.49 417.125 214.03 417.695 214.164 418.397C214.298 419.099 214.975 419.668 215.677 419.668Z" fill="#735F99"/>
<path d="M245.904 425.996C245.77 425.294 245.093 424.724 244.391 424.724H216.437C215.735 424.724 215.275 425.294 215.409 425.996C215.543 426.698 216.22 427.267 216.922 427.267H244.876C245.578 427.266 246.038 426.698 245.904 425.996Z" fill="#735F99"/>
<path d="M280.632 424.724H249.473C248.771 424.724 248.311 425.294 248.445 425.996C248.579 426.698 249.256 427.267 249.958 427.267H281.117C281.819 427.267 282.279 426.698 282.145 425.996C282.011 425.294 281.334 424.724 280.632 424.724Z" fill="#735F99"/>
<path d="M269.394 434.865C270.096 434.865 270.556 434.295 270.422 433.594C270.288 432.892 269.611 432.322 268.909 432.322H266.368C265.666 432.322 265.206 432.892 265.34 433.594C265.473 434.295 266.151 434.865 266.853 434.865H269.394Z" fill="#7859B5"/>
<path d="M272.968 433.594C273.101 434.295 273.779 434.865 274.48 434.865H282.74C283.442 434.865 283.902 434.295 283.768 433.594C283.634 432.892 282.957 432.322 282.255 432.322H273.996C273.294 432.322 272.834 432.892 272.968 433.594Z" fill="#5A91FF"/>
<path d="M218.573 434.865H231.279C231.981 434.865 232.441 434.295 232.307 433.594C232.173 432.892 231.496 432.322 230.794 432.322H218.088C217.387 432.322 216.926 432.892 217.06 433.594C217.194 434.295 217.871 434.865 218.573 434.865Z" fill="#5A91FF"/>
<path d="M236.363 434.865H261.776C262.478 434.865 262.938 434.295 262.805 433.594C262.671 432.892 261.993 432.322 261.292 432.322H235.878C235.177 432.322 234.716 432.892 234.85 433.594C234.984 434.295 235.661 434.865 236.363 434.865Z" fill="#7859B5"/>
<path d="M632.552 533.987H117.026C115.336 533.987 113.968 532.618 113.968 530.929C113.968 529.239 115.338 527.871 117.026 527.871H632.552C634.242 527.871 635.611 529.241 635.611 530.929C635.612 532.618 634.242 533.987 632.552 533.987Z" fill="#6161C9"/>
<path d="M667.9 529.267H81.6775C79.9875 529.267 78.6191 527.897 78.6191 526.209V516.669C78.6191 514.979 79.989 513.611 81.6775 513.611H667.9C669.59 513.611 670.959 514.98 670.959 516.669V526.209C670.959 527.897 669.59 529.267 667.9 529.267Z" fill="#040962"/>
<path d="M424.586 486.039C424.586 486.039 412.178 481.945 404.77 479.536C397.362 477.129 385.509 481.574 376.989 487.871C376.989 487.871 371.063 492.871 373.1 494.538C375.138 496.205 384.953 488.241 393.472 487.315C393.472 487.315 373.655 499.908 375.693 504.353C376.372 505.834 378.839 505.502 381.825 504.406C381.376 505.22 381.237 505.926 381.656 506.39C382.709 507.558 388.425 505.491 393.614 503.268C392.606 504.004 391.945 504.76 391.991 505.465C392.176 508.243 408.103 501.02 408.103 501.02C408.103 501.02 418.29 507.687 425.327 503.427C425.327 503.427 428.106 491.8 424.586 486.039Z" fill="#FCE8D4"/>
<path d="M417.854 505.649H192.224C190.367 505.649 188.861 507.154 188.861 509.012V510.245C188.861 512.103 190.367 513.608 192.224 513.608H417.854C419.712 513.608 421.218 512.103 421.218 510.245V509.012C421.218 507.154 419.712 505.649 417.854 505.649Z" fill="#B4B0FA"/>
<path d="M351.608 390.32L374.685 499.569C375.393 502.925 373.244 505.649 369.904 505.649H192.254C188.899 505.649 185.599 502.925 184.891 499.569L161.814 390.32C161.106 386.965 163.258 384.256 166.614 384.256H344.263C347.603 384.256 350.9 386.965 351.608 390.32Z" fill="#7F7FDD"/>
<path d="M346.021 390.32L369.098 499.569C369.807 502.925 367.673 505.649 364.317 505.649H192.254C188.899 505.649 185.599 502.925 184.891 499.569L161.814 390.32C161.106 386.965 163.258 384.256 166.614 384.256H338.676C342.032 384.256 345.313 386.965 346.021 390.32Z" fill="#A4A4F4"/>
<path d="M259.902 456.331C253.653 456.331 248.569 451.247 248.569 445C248.569 438.751 253.653 433.667 259.902 433.667C266.151 433.667 271.233 438.751 271.233 445C271.233 451.247 266.15 456.331 259.902 456.331ZM259.902 438.283C256.199 438.283 253.187 441.295 253.187 444.998C253.187 448.7 256.199 451.712 259.902 451.712C263.604 451.712 266.616 448.7 266.616 444.998C266.616 441.295 263.604 438.283 259.902 438.283Z" fill="white"/>
</g>
<path d="M98.296 915.064H104.232V921H98.296V915.064ZM117.819 881.8H126.611L130.531 909.856H130.643L134.563 881.8H143.355V921H137.531V891.32H137.419L132.939 921H127.787L123.307 891.32H123.195V921H117.819V881.8ZM152.768 887.4H146.328V881.8H165.368V887.4H158.928V921H152.768V887.4ZM168.351 881.8H185.151V887.4H174.511V897.76H182.967V903.36H174.511V915.4H185.151V921H168.351V881.8ZM197.374 921.56C194.425 921.56 192.166 920.72 190.598 919.04C189.068 917.36 188.302 914.989 188.302 911.928V890.872C188.302 887.811 189.068 885.44 190.598 883.76C192.166 882.08 194.425 881.24 197.374 881.24C200.324 881.24 202.564 882.08 204.094 883.76C205.662 885.44 206.446 887.811 206.446 890.872V895.016H200.622V890.48C200.622 888.053 199.596 886.84 197.542 886.84C195.489 886.84 194.462 888.053 194.462 890.48V912.376C194.462 914.765 195.489 915.96 197.542 915.96C199.596 915.96 200.622 914.765 200.622 912.376V906.384H206.446V911.928C206.446 914.989 205.662 917.36 204.094 919.04C202.564 920.72 200.324 921.56 197.374 921.56ZM210.132 881.8H216.292V897.76H222.9V881.8H229.06V921H222.9V903.36H216.292V921H210.132V881.8ZM251.296 921.56C248.347 921.56 246.088 920.72 244.52 919.04C242.99 917.36 242.224 914.989 242.224 911.928V890.872C242.224 887.811 242.99 885.44 244.52 883.76C246.088 882.08 248.347 881.24 251.296 881.24C254.246 881.24 256.486 882.08 258.016 883.76C259.584 885.44 260.368 887.811 260.368 890.872V895.016H254.544V890.48C254.544 888.053 253.518 886.84 251.464 886.84C249.411 886.84 248.384 888.053 248.384 890.48V912.376C248.384 914.765 249.411 915.96 251.464 915.96C253.518 915.96 254.544 914.765 254.544 912.376V906.384H260.368V911.928C260.368 914.989 259.584 917.36 258.016 919.04C256.486 920.72 254.246 921.56 251.296 921.56ZM273.067 921.56C270.043 921.56 267.729 920.701 266.123 918.984C264.518 917.267 263.715 914.84 263.715 911.704V891.096C263.715 887.96 264.518 885.533 266.123 883.816C267.729 882.099 270.043 881.24 273.067 881.24C276.091 881.24 278.406 882.099 280.011 883.816C281.617 885.533 282.419 887.96 282.419 891.096V911.704C282.419 914.84 281.617 917.267 280.011 918.984C278.406 920.701 276.091 921.56 273.067 921.56ZM273.067 915.96C275.195 915.96 276.259 914.672 276.259 912.096V890.704C276.259 888.128 275.195 886.84 273.067 886.84C270.939 886.84 269.875 888.128 269.875 890.704V912.096C269.875 914.672 270.939 915.96 273.067 915.96ZM286.585 881.8H295.377L299.297 909.856H299.409L303.329 881.8H312.121V921H306.297V891.32H306.185L301.705 921H296.553L292.073 891.32H291.961V921H286.585V881.8ZM316.718 881.8H325.79C328.851 881.8 331.147 882.621 332.678 884.264C334.209 885.907 334.974 888.315 334.974 891.488V895.352C334.974 898.525 334.209 900.933 332.678 902.576C331.147 904.219 328.851 905.04 325.79 905.04H322.878V921H316.718V881.8ZM325.79 899.44C326.798 899.44 327.545 899.16 328.03 898.6C328.553 898.04 328.814 897.088 328.814 895.744V891.096C328.814 889.752 328.553 888.8 328.03 888.24C327.545 887.68 326.798 887.4 325.79 887.4H322.878V899.44H325.79ZM347.279 921.56C344.293 921.56 342.015 920.72 340.447 919.04C338.879 917.323 338.095 914.877 338.095 911.704V881.8H344.255V912.152C344.255 913.496 344.517 914.467 345.039 915.064C345.599 915.661 346.383 915.96 347.391 915.96C348.399 915.96 349.165 915.661 349.687 915.064C350.247 914.467 350.527 913.496 350.527 912.152V881.8H356.463V911.704C356.463 914.877 355.679 917.323 354.111 919.04C352.543 920.72 350.266 921.56 347.279 921.56ZM365.667 887.4H359.227V881.8H378.267V887.4H371.827V921H365.667V887.4ZM381.249 881.8H398.049V887.4H387.409V897.76H395.865V903.36H387.409V915.4H398.049V921H381.249V881.8ZM401.593 881.8H410.721C413.894 881.8 416.209 882.547 417.665 884.04C419.121 885.496 419.849 887.755 419.849 890.816V893.224C419.849 897.293 418.505 899.869 415.817 900.952V901.064C417.31 901.512 418.356 902.427 418.953 903.808C419.588 905.189 419.905 907.037 419.905 909.352V916.24C419.905 917.36 419.942 918.275 420.017 918.984C420.092 919.656 420.278 920.328 420.577 921H414.305C414.081 920.365 413.932 919.768 413.857 919.208C413.782 918.648 413.745 917.64 413.745 916.184V909.016C413.745 907.224 413.446 905.973 412.849 905.264C412.289 904.555 411.3 904.2 409.881 904.2H407.753V921H401.593V881.8ZM409.993 898.6C411.225 898.6 412.14 898.283 412.737 897.648C413.372 897.013 413.689 895.949 413.689 894.456V891.432C413.689 890.013 413.428 888.987 412.905 888.352C412.42 887.717 411.636 887.4 410.553 887.4H407.753V898.6H409.993ZM441.156 921.56C438.169 921.56 435.91 920.72 434.38 919.04C432.849 917.323 432.084 914.877 432.084 911.704V909.464H437.908V912.152C437.908 914.691 438.972 915.96 441.1 915.96C442.145 915.96 442.929 915.661 443.452 915.064C444.012 914.429 444.292 913.421 444.292 912.04C444.292 910.397 443.918 908.96 443.172 907.728C442.425 906.459 441.044 904.947 439.028 903.192C436.489 900.952 434.716 898.936 433.708 897.144C432.7 895.315 432.196 893.261 432.196 890.984C432.196 887.885 432.98 885.496 434.548 883.816C436.116 882.099 438.393 881.24 441.38 881.24C444.329 881.24 446.55 882.099 448.044 883.816C449.574 885.496 450.34 887.923 450.34 891.096V892.72H444.516V890.704C444.516 889.36 444.254 888.389 443.732 887.792C443.209 887.157 442.444 886.84 441.436 886.84C439.382 886.84 438.356 888.091 438.356 890.592C438.356 892.011 438.729 893.336 439.476 894.568C440.26 895.8 441.66 897.293 443.676 899.048C446.252 901.288 448.025 903.323 448.996 905.152C449.966 906.981 450.452 909.128 450.452 911.592C450.452 914.803 449.649 917.267 448.044 918.984C446.476 920.701 444.18 921.56 441.156 921.56ZM462.664 921.56C459.714 921.56 457.456 920.72 455.888 919.04C454.357 917.36 453.592 914.989 453.592 911.928V890.872C453.592 887.811 454.357 885.44 455.888 883.76C457.456 882.08 459.714 881.24 462.664 881.24C465.613 881.24 467.853 882.08 469.384 883.76C470.952 885.44 471.736 887.811 471.736 890.872V895.016H465.912V890.48C465.912 888.053 464.885 886.84 462.832 886.84C460.778 886.84 459.752 888.053 459.752 890.48V912.376C459.752 914.765 460.778 915.96 462.832 915.96C464.885 915.96 465.912 914.765 465.912 912.376V906.384H471.736V911.928C471.736 914.989 470.952 917.36 469.384 919.04C467.853 920.72 465.613 921.56 462.664 921.56ZM475.421 881.8H481.581V921H475.421V881.8ZM486.194 881.8H502.994V887.4H492.354V897.76H500.81V903.36H492.354V915.4H502.994V921H486.194V881.8ZM506.538 881.8H514.266L520.258 905.264H520.37V881.8H525.858V921H519.53L512.138 892.384H512.026V921H506.538V881.8ZM539.117 921.56C536.167 921.56 533.909 920.72 532.341 919.04C530.81 917.36 530.045 914.989 530.045 911.928V890.872C530.045 887.811 530.81 885.44 532.341 883.76C533.909 882.08 536.167 881.24 539.117 881.24C542.066 881.24 544.306 882.08 545.837 883.76C547.405 885.44 548.189 887.811 548.189 890.872V895.016H542.365V890.48C542.365 888.053 541.338 886.84 539.285 886.84C537.231 886.84 536.205 888.053 536.205 890.48V912.376C536.205 914.765 537.231 915.96 539.285 915.96C541.338 915.96 542.365 914.765 542.365 912.376V906.384H548.189V911.928C548.189 914.989 547.405 917.36 545.837 919.04C544.306 920.72 542.066 921.56 539.117 921.56ZM551.874 881.8H568.674V887.4H558.034V897.76H566.49V903.36H558.034V915.4H568.674V921H551.874V881.8Z" fill="#161616"/>
</g>
<defs>
<clipPath id="clip0_1212_14700">
<rect width="749" height="982" fill="white"/>
</clipPath>
<clipPath id="clip1_1212_14700">
<rect width="769.58" height="769.58" fill="white" transform="translate(-10 151)"/>
</clipPath>
</defs>
</svg>
