<svg width="248" height="142" viewBox="0 0 248 142" fill="none" xmlns="http://www.w3.org/2000/svg">
<g clip-path="url(#clip0_1971_26514)">
<path fill-rule="evenodd" clip-rule="evenodd" d="M162.037 141.385H128.661V0.481445H162.037V141.385ZM116.742 71.1046C116.742 103.178 90.7348 129.132 58.6943 129.132C26.6512 129.132 0.601562 103.135 0.601562 71.1046C0.601562 39.0741 26.6084 13.0747 58.649 13.0747C90.692 13.0747 116.742 39.0288 116.742 71.1046ZM76.2116 71.1046C76.2136 68.8011 75.7612 66.5198 74.8803 64.3914C73.9995 62.2631 72.7074 60.3293 71.0781 58.701C69.4488 57.0727 67.5144 55.7817 65.3855 54.902C63.2566 54.0224 60.9751 53.5713 58.6716 53.5746C56.3681 53.5713 54.0866 54.0224 51.9578 54.902C49.8289 55.7817 47.8944 57.0727 46.2651 58.701C44.6358 60.3293 43.3438 62.2631 42.4629 64.3914C41.582 66.5198 41.1296 68.8011 41.1316 71.1046C41.1299 73.4076 41.5825 75.6884 42.4634 77.8163C43.3443 79.9442 44.6362 81.8775 46.2651 83.5056C47.8941 85.1336 49.8282 86.4244 51.9566 87.3041C54.085 88.1837 56.3661 88.635 58.6691 88.632C60.9726 88.6356 63.2541 88.1849 65.3832 87.3055C67.5122 86.4262 69.4468 85.1355 71.0763 83.5074C72.7058 81.8793 73.9982 79.9457 74.8794 77.8175C75.7606 75.6892 76.2133 73.408 76.2116 71.1046ZM246.756 35.8785H224.573L211.55 48.8845L198.526 35.876H176.339V58.4207L189.189 71.253L176.339 84.0879V106.331H198.871L211.59 93.6265L224.309 106.331H246.841V84.0879L233.991 71.2555L246.841 58.4232V35.8785H246.753H246.756Z" fill="#002F34"/>
</g>
<defs>
<clipPath id="clip0_1971_26514">
<rect width="246.582" height="140.904" fill="white" transform="translate(0.585938 0.481934)"/>
</clipPath>
</defs>
</svg>
