<svg width="124" height="124" viewBox="0 0 124 124" fill="none" xmlns="http://www.w3.org/2000/svg">
<g clip-path="url(#clip0_1971_26519)">
<path d="M0.273438 61.938C0.273438 87.1808 15.4527 108.867 37.1736 118.401C37.0002 114.096 37.1427 108.929 38.2466 104.245C39.4318 99.2407 46.1786 70.6541 46.1786 70.6541C46.1786 70.6541 44.2093 66.7179 44.2093 60.9006C44.2093 51.765 49.5041 44.9421 56.0983 44.9421C61.7056 44.9421 64.4146 49.1538 64.4146 54.1971C64.4146 59.8338 60.8194 68.2653 58.9706 76.0745C57.426 82.6138 62.2493 87.9475 68.7004 87.9475C80.3803 87.9475 88.2469 72.946 88.2469 55.1719C88.2469 41.6609 79.1469 31.5482 62.5956 31.5482C43.8958 31.5482 32.2463 45.4935 32.2463 61.0706C32.2463 66.4415 33.8298 70.2288 36.31 73.1618C37.4505 74.5088 37.6089 75.0506 37.1962 76.5976C36.9005 77.7317 36.2214 80.4624 35.9402 81.5446C35.5299 83.106 34.2647 83.6642 32.8536 83.0877C24.2405 79.5715 20.2292 70.1392 20.2292 59.5362C20.2292 42.0245 34.9982 21.0265 64.2875 21.0265C87.8235 21.0265 103.314 38.058 103.314 56.3403C103.314 80.5231 89.8699 98.5896 70.0518 98.5896C63.3965 98.5896 57.1361 94.992 54.9915 90.9056C54.9915 90.9056 51.4127 105.109 50.6547 107.852C49.3476 112.605 46.7893 117.355 44.4501 121.058C49.9944 122.694 55.8512 123.586 61.9214 123.586C95.9632 123.586 123.565 95.9855 123.565 61.938C123.565 27.8918 95.9632 0.291504 61.9214 0.291504C27.8762 0.291504 0.273438 27.8918 0.273438 61.938Z" fill="#CB1F27"/>
</g>
<defs>
<clipPath id="clip0_1971_26519">
<rect width="123.291" height="123.291" fill="white" transform="translate(0.273438 0.288574)"/>
</clipPath>
</defs>
</svg>
