<svg width="275" height="319" viewBox="0 0 275 319" fill="none" xmlns="http://www.w3.org/2000/svg">
<path d="M135.417 133.924L179.668 111.061L182.619 130.236C161.961 133.182 150.776 137.958 132.467 159C120.669 138.349 113.294 135.399 84.5271 129.499C83.9491 129.38 86.7397 117.207 88.2148 111.061L135.417 133.924Z" fill="#696969"/>
<path d="M222.315 79.8266L135.287 40L52.6836 79.8266L135.287 115.965L222.315 79.8266Z" fill="#696969"/>
<path d="M42.4309 228V211.2H49.5109C51.3029 211.2 52.8789 211.552 54.2389 212.256C55.6149 212.96 56.6789 213.944 57.4309 215.208C58.1989 216.472 58.5829 217.936 58.5829 219.6C58.5829 221.264 58.1989 222.728 57.4309 223.992C56.6789 225.256 55.6149 226.24 54.2389 226.944C52.8789 227.648 51.3029 228 49.5109 228H42.4309ZM44.8309 225.912H49.3669C50.7589 225.912 51.9589 225.648 52.9669 225.12C53.9909 224.592 54.7829 223.856 55.3429 222.912C55.9029 221.952 56.1829 220.848 56.1829 219.6C56.1829 218.336 55.9029 217.232 55.3429 216.288C54.7829 215.344 53.9909 214.608 52.9669 214.08C51.9589 213.552 50.7589 213.288 49.3669 213.288H44.8309V225.912ZM66.8431 218.448H75.4831V220.488H66.8431V218.448ZM67.0591 225.912H76.8511V228H64.6591V211.2H76.5151V213.288H67.0591V225.912ZM83.1372 228V211.2H89.6892C91.1612 211.2 92.4172 211.432 93.4572 211.896C94.4972 212.36 95.2972 213.032 95.8572 213.912C96.4172 214.792 96.6972 215.84 96.6972 217.056C96.6972 218.272 96.4172 219.32 95.8572 220.2C95.2972 221.064 94.4972 221.736 93.4572 222.216C92.4172 222.68 91.1612 222.912 89.6892 222.912H84.4572L85.5372 221.784V228H83.1372ZM85.5372 222.024L84.4572 220.824H89.6172C91.1532 220.824 92.3132 220.496 93.0972 219.84C93.8972 219.184 94.2972 218.256 94.2972 217.056C94.2972 215.856 93.8972 214.928 93.0972 214.272C92.3132 213.616 91.1532 213.288 89.6172 213.288H84.4572L85.5372 212.088V222.024ZM99.2354 228L106.843 211.2H109.219L116.851 228H114.331L107.539 212.544H108.499L101.707 228H99.2354ZM102.475 223.8L103.123 221.88H112.579L113.275 223.8H102.475ZM121.757 228V211.2H128.309C129.781 211.2 131.037 211.432 132.077 211.896C133.117 212.36 133.917 213.032 134.477 213.912C135.037 214.792 135.317 215.84 135.317 217.056C135.317 218.272 135.037 219.32 134.477 220.2C133.917 221.064 133.117 221.728 132.077 222.192C131.037 222.656 129.781 222.888 128.309 222.888H123.077L124.157 221.784V228H121.757ZM132.989 228L128.717 221.904H131.285L135.605 228H132.989ZM124.157 222.024L123.077 220.848H128.237C129.773 220.848 130.933 220.52 131.717 219.864C132.517 219.192 132.917 218.256 132.917 217.056C132.917 215.856 132.517 214.928 131.717 214.272C130.933 213.616 129.773 213.288 128.237 213.288H123.077L124.157 212.088V222.024ZM144.697 228V213.288H138.937V211.2H152.833V213.288H147.073V228H144.697ZM157.847 228V211.2H159.815L167.351 223.896H166.295L173.735 211.2H175.703L175.727 228H173.423L173.399 214.824H173.951L167.327 225.96H166.223L159.551 214.824H160.151V228H157.847ZM185.352 218.448H193.992V220.488H185.352V218.448ZM185.568 225.912H195.36V228H183.168V211.2H195.024V213.288H185.568V225.912ZM201.647 228V211.2H203.615L214.727 225H213.695V211.2H216.095V228H214.127L203.015 214.2H204.047V228H201.647ZM226.859 228V213.288H221.099V211.2H234.995V213.288H229.235V228H226.859ZM12.9044 256V239.2H19.4564C20.9284 239.2 22.1844 239.432 23.2244 239.896C24.2644 240.36 25.0644 241.032 25.6244 241.912C26.1844 242.792 26.4644 243.84 26.4644 245.056C26.4644 246.272 26.1844 247.32 25.6244 248.2C25.0644 249.064 24.2644 249.736 23.2244 250.216C22.1844 250.68 20.9284 250.912 19.4564 250.912H14.2244L15.3044 249.784V256H12.9044ZM15.3044 250.024L14.2244 248.824H19.3844C20.9204 248.824 22.0804 248.496 22.8644 247.84C23.6644 247.184 24.0644 246.256 24.0644 245.056C24.0644 243.856 23.6644 242.928 22.8644 242.272C22.0804 241.616 20.9204 241.288 19.3844 241.288H14.2244L15.3044 240.088V250.024ZM32.3903 256V239.2H34.7903V253.912H43.8863V256H32.3903ZM46.4963 256L54.1043 239.2H56.4803L64.1123 256H61.5923L54.8003 240.544H55.7603L48.9683 256H46.4963ZM49.7363 251.8L50.3843 249.88H59.8403L60.5363 251.8H49.7363ZM76.2961 256.192C75.0161 256.192 73.8321 255.984 72.7441 255.568C71.6721 255.136 70.7361 254.536 69.9361 253.768C69.1521 252.984 68.5361 252.072 68.0881 251.032C67.6401 249.992 67.4161 248.848 67.4161 247.6C67.4161 246.352 67.6401 245.208 68.0881 244.168C68.5361 243.128 69.1601 242.224 69.9601 241.456C70.7601 240.672 71.6961 240.072 72.7681 239.656C73.8561 239.224 75.0401 239.008 76.3201 239.008C77.6161 239.008 78.8081 239.232 79.8961 239.68C81.0001 240.112 81.9361 240.76 82.7041 241.624L81.1441 243.136C80.5041 242.464 79.7841 241.968 78.9841 241.648C78.1841 241.312 77.3281 241.144 76.4161 241.144C75.4721 241.144 74.5921 241.304 73.7761 241.624C72.9761 241.944 72.2801 242.392 71.6881 242.968C71.0961 243.544 70.6321 244.232 70.2961 245.032C69.9761 245.816 69.8161 246.672 69.8161 247.6C69.8161 248.528 69.9761 249.392 70.2961 250.192C70.6321 250.976 71.0961 251.656 71.6881 252.232C72.2801 252.808 72.9761 253.256 73.7761 253.576C74.5921 253.896 75.4721 254.056 76.4161 254.056C77.3281 254.056 78.1841 253.896 78.9841 253.576C79.7841 253.24 80.5041 252.728 81.1441 252.04L82.7041 253.552C81.9361 254.416 81.0001 255.072 79.8961 255.52C78.8081 255.968 77.6081 256.192 76.2961 256.192ZM90.7118 246.448H99.3518V248.488H90.7118V246.448ZM90.9278 253.912H100.72V256H88.5278V239.2H100.384V241.288H90.9278V253.912ZM107.006 256V239.2H108.974L116.51 251.896H115.454L122.894 239.2H124.862L124.886 256H122.582L122.558 242.824H123.11L116.486 253.96H115.382L108.71 242.824H109.31V256H107.006ZM134.512 246.448H143.152V248.488H134.512V246.448ZM134.728 253.912H144.52V256H132.328V239.2H144.184V241.288H134.728V253.912ZM150.806 256V239.2H152.774L163.886 253H162.854V239.2H165.254V256H163.286L152.174 242.2H153.206V256H150.806ZM176.019 256V241.288H170.259V239.2H184.155V241.288H178.395V256H176.019ZM205.526 256.192C204.246 256.192 203.062 255.984 201.974 255.568C200.902 255.136 199.966 254.536 199.166 253.768C198.382 252.984 197.766 252.072 197.318 251.032C196.87 249.992 196.646 248.848 196.646 247.6C196.646 246.352 196.87 245.208 197.318 244.168C197.766 243.128 198.39 242.224 199.19 241.456C199.99 240.672 200.926 240.072 201.998 239.656C203.086 239.224 204.27 239.008 205.55 239.008C206.846 239.008 208.038 239.232 209.126 239.68C210.23 240.112 211.166 240.76 211.934 241.624L210.374 243.136C209.734 242.464 209.014 241.968 208.214 241.648C207.414 241.312 206.558 241.144 205.646 241.144C204.702 241.144 203.822 241.304 203.006 241.624C202.206 241.944 201.51 242.392 200.918 242.968C200.326 243.544 199.862 244.232 199.526 245.032C199.206 245.816 199.046 246.672 199.046 247.6C199.046 248.528 199.206 249.392 199.526 250.192C199.862 250.976 200.326 251.656 200.918 252.232C201.51 252.808 202.206 253.256 203.006 253.576C203.822 253.896 204.702 254.056 205.646 254.056C206.558 254.056 207.414 253.896 208.214 253.576C209.014 253.24 209.734 252.728 210.374 252.04L211.934 253.552C211.166 254.416 210.23 255.072 209.126 255.52C208.038 255.968 206.838 256.192 205.526 256.192ZM219.941 246.448H228.581V248.488H219.941V246.448ZM220.157 253.912H229.949V256H217.757V239.2H229.613V241.288H220.157V253.912ZM236.236 256V239.2H238.636V253.912H247.732V256H236.236ZM252.886 256V239.2H255.286V253.912H264.382V256H252.886Z" fill="black"/>
<path d="M19.6242 282.084C18.8682 282.084 18.1915 281.921 17.5942 281.594C17.0062 281.267 16.5442 280.819 16.2082 280.25C15.8722 279.681 15.7042 279.027 15.7042 278.29C15.7042 277.553 15.8722 276.899 16.2082 276.33C16.5442 275.761 17.0062 275.317 17.5942 275C18.1915 274.673 18.8682 274.51 19.6242 274.51C20.2962 274.51 20.8935 274.645 21.4162 274.916C21.9482 275.177 22.3589 275.569 22.6482 276.092L21.6262 276.75C21.3835 276.386 21.0849 276.12 20.7302 275.952C20.3849 275.775 20.0115 275.686 19.6102 275.686C19.1249 275.686 18.6909 275.793 18.3082 276.008C17.9255 276.223 17.6222 276.526 17.3982 276.918C17.1742 277.301 17.0622 277.758 17.0622 278.29C17.0622 278.822 17.1742 279.284 17.3982 279.676C17.6222 280.068 17.9255 280.371 18.3082 280.586C18.6909 280.801 19.1249 280.908 19.6102 280.908C20.0115 280.908 20.3849 280.824 20.7302 280.656C21.0849 280.479 21.3835 280.208 21.6262 279.844L22.6482 280.488C22.3589 281.001 21.9482 281.398 21.4162 281.678C20.8935 281.949 20.2962 282.084 19.6242 282.084ZM27.9163 282.084C27.3003 282.084 26.7123 282 26.1523 281.832C25.6016 281.664 25.1676 281.459 24.8503 281.216L25.4103 280.152C25.7276 280.367 26.1196 280.549 26.5863 280.698C27.0529 280.847 27.5289 280.922 28.0143 280.922C28.6396 280.922 29.0876 280.833 29.3583 280.656C29.6383 280.479 29.7783 280.231 29.7783 279.914C29.7783 279.681 29.6943 279.499 29.5263 279.368C29.3583 279.237 29.1343 279.139 28.8543 279.074C28.5836 279.009 28.2803 278.953 27.9443 278.906C27.6083 278.85 27.2723 278.785 26.9363 278.71C26.6003 278.626 26.2923 278.514 26.0123 278.374C25.7323 278.225 25.5083 278.024 25.3403 277.772C25.1723 277.511 25.0883 277.165 25.0883 276.736C25.0883 276.288 25.2143 275.896 25.4663 275.56C25.7183 275.224 26.0729 274.967 26.5303 274.79C26.9969 274.603 27.5476 274.51 28.1823 274.51C28.6676 274.51 29.1576 274.571 29.6523 274.692C30.1563 274.804 30.5669 274.967 30.8843 275.182L30.3103 276.246C29.9743 276.022 29.6243 275.868 29.2603 275.784C28.8963 275.7 28.5323 275.658 28.1683 275.658C27.5803 275.658 27.1416 275.756 26.8523 275.952C26.5629 276.139 26.4183 276.381 26.4183 276.68C26.4183 276.932 26.5023 277.128 26.6703 277.268C26.8476 277.399 27.0716 277.501 27.3423 277.576C27.6223 277.651 27.9303 277.716 28.2663 277.772C28.6023 277.819 28.9383 277.884 29.2743 277.968C29.6103 278.043 29.9136 278.15 30.1843 278.29C30.4643 278.43 30.6883 278.626 30.8563 278.878C31.0336 279.13 31.1223 279.466 31.1223 279.886C31.1223 280.334 30.9916 280.721 30.7303 281.048C30.4689 281.375 30.1003 281.631 29.6243 281.818C29.1483 281.995 28.5789 282.084 27.9163 282.084ZM37.5059 282.084C36.7126 282.084 36.0126 281.921 35.4059 281.594C34.8086 281.267 34.3419 280.819 34.0059 280.25C33.6793 279.681 33.5159 279.027 33.5159 278.29C33.5159 277.553 33.6746 276.899 33.9919 276.33C34.3186 275.761 34.7619 275.317 35.3219 275C35.8913 274.673 36.5306 274.51 37.2399 274.51C37.9586 274.51 38.5933 274.669 39.1439 274.986C39.6946 275.303 40.1239 275.751 40.4319 276.33C40.7493 276.899 40.9079 277.567 40.9079 278.332C40.9079 278.388 40.9033 278.453 40.8939 278.528C40.8939 278.603 40.8893 278.673 40.8799 278.738H34.5659V277.772H40.1799L39.6339 278.108C39.6433 277.632 39.5453 277.207 39.3399 276.834C39.1346 276.461 38.8499 276.171 38.4859 275.966C38.1313 275.751 37.7159 275.644 37.2399 275.644C36.7733 275.644 36.3579 275.751 35.9939 275.966C35.6299 276.171 35.3453 276.465 35.1399 276.848C34.9346 277.221 34.8319 277.651 34.8319 278.136V278.36C34.8319 278.855 34.9439 279.298 35.1679 279.69C35.4013 280.073 35.7233 280.371 36.1339 280.586C36.5446 280.801 37.0159 280.908 37.5479 280.908C37.9866 280.908 38.3833 280.833 38.7379 280.684C39.1019 280.535 39.4193 280.311 39.6899 280.012L40.4319 280.88C40.0959 281.272 39.6759 281.571 39.1719 281.776C38.6773 281.981 38.1219 282.084 37.5059 282.084ZM48.1082 282.084C47.4922 282.084 46.9275 281.944 46.4142 281.664C45.9102 281.375 45.5042 280.95 45.1962 280.39C44.8975 279.83 44.7482 279.13 44.7482 278.29C44.7482 277.45 44.8929 276.75 45.1822 276.19C45.4809 275.63 45.8822 275.21 46.3862 274.93C46.8995 274.65 47.4735 274.51 48.1082 274.51C48.8362 274.51 49.4802 274.669 50.0402 274.986C50.6002 275.303 51.0435 275.747 51.3702 276.316C51.6969 276.876 51.8602 277.534 51.8602 278.29C51.8602 279.046 51.6969 279.709 51.3702 280.278C51.0435 280.847 50.6002 281.291 50.0402 281.608C49.4802 281.925 48.8362 282.084 48.1082 282.084ZM44.1742 284.716V274.58H45.4622V276.582L45.3782 278.304L45.5182 280.026V284.716H44.1742ZM47.9962 280.908C48.4722 280.908 48.8969 280.801 49.2702 280.586C49.6529 280.371 49.9515 280.068 50.1662 279.676C50.3902 279.275 50.5022 278.813 50.5022 278.29C50.5022 277.758 50.3902 277.301 50.1662 276.918C49.9515 276.526 49.6529 276.223 49.2702 276.008C48.8969 275.793 48.4722 275.686 47.9962 275.686C47.5295 275.686 47.1049 275.793 46.7222 276.008C46.3489 276.223 46.0502 276.526 45.8262 276.918C45.6115 277.301 45.5042 277.758 45.5042 278.29C45.5042 278.813 45.6115 279.275 45.8262 279.676C46.0502 280.068 46.3489 280.371 46.7222 280.586C47.1049 280.801 47.5295 280.908 47.9962 280.908ZM55.1172 282V271.612H56.4612V282H55.1172ZM65.0333 282V280.432L64.9633 280.138V277.464C64.9633 276.895 64.7953 276.456 64.4593 276.148C64.1327 275.831 63.638 275.672 62.9753 275.672C62.5367 275.672 62.1073 275.747 61.6873 275.896C61.2673 276.036 60.9127 276.227 60.6233 276.47L60.0633 275.462C60.446 275.154 60.9033 274.921 61.4353 274.762C61.9767 274.594 62.5413 274.51 63.1293 274.51C64.1467 274.51 64.9307 274.757 65.4813 275.252C66.032 275.747 66.3073 276.503 66.3073 277.52V282H65.0333ZM62.5973 282.084C62.0467 282.084 61.5613 281.991 61.1413 281.804C60.7307 281.617 60.4133 281.361 60.1893 281.034C59.9653 280.698 59.8533 280.32 59.8533 279.9C59.8533 279.499 59.9467 279.135 60.1333 278.808C60.3293 278.481 60.642 278.22 61.0713 278.024C61.51 277.828 62.098 277.73 62.8353 277.73H65.1873V278.696H62.8913C62.2193 278.696 61.7667 278.808 61.5333 279.032C61.3 279.256 61.1833 279.527 61.1833 279.844C61.1833 280.208 61.328 280.502 61.6173 280.726C61.9067 280.941 62.308 281.048 62.8213 281.048C63.3253 281.048 63.764 280.936 64.1373 280.712C64.52 280.488 64.7953 280.161 64.9633 279.732L65.2293 280.656C65.052 281.095 64.7393 281.445 64.2913 281.706C63.8433 281.958 63.2787 282.084 62.5973 282.084ZM73.4285 282.084C72.6725 282.084 71.9958 281.921 71.3985 281.594C70.8105 281.267 70.3485 280.819 70.0125 280.25C69.6765 279.681 69.5085 279.027 69.5085 278.29C69.5085 277.553 69.6765 276.899 70.0125 276.33C70.3485 275.761 70.8105 275.317 71.3985 275C71.9958 274.673 72.6725 274.51 73.4285 274.51C74.1005 274.51 74.6978 274.645 75.2205 274.916C75.7525 275.177 76.1632 275.569 76.4525 276.092L75.4305 276.75C75.1878 276.386 74.8892 276.12 74.5345 275.952C74.1892 275.775 73.8158 275.686 73.4145 275.686C72.9292 275.686 72.4952 275.793 72.1125 276.008C71.7298 276.223 71.4265 276.526 71.2025 276.918C70.9785 277.301 70.8665 277.758 70.8665 278.29C70.8665 278.822 70.9785 279.284 71.2025 279.676C71.4265 280.068 71.7298 280.371 72.1125 280.586C72.4952 280.801 72.9292 280.908 73.4145 280.908C73.8158 280.908 74.1892 280.824 74.5345 280.656C74.8892 280.479 75.1878 280.208 75.4305 279.844L76.4525 280.488C76.1632 281.001 75.7525 281.398 75.2205 281.678C74.6978 281.949 74.1005 282.084 73.4285 282.084ZM82.7872 282.084C81.9938 282.084 81.2938 281.921 80.6872 281.594C80.0898 281.267 79.6232 280.819 79.2872 280.25C78.9605 279.681 78.7972 279.027 78.7972 278.29C78.7972 277.553 78.9558 276.899 79.2732 276.33C79.5998 275.761 80.0432 275.317 80.6032 275C81.1725 274.673 81.8118 274.51 82.5212 274.51C83.2398 274.51 83.8745 274.669 84.4252 274.986C84.9758 275.303 85.4052 275.751 85.7132 276.33C86.0305 276.899 86.1892 277.567 86.1892 278.332C86.1892 278.388 86.1845 278.453 86.1752 278.528C86.1752 278.603 86.1705 278.673 86.1612 278.738H79.8472V277.772H85.4612L84.9152 278.108C84.9245 277.632 84.8265 277.207 84.6212 276.834C84.4158 276.461 84.1312 276.171 83.7672 275.966C83.4125 275.751 82.9972 275.644 82.5212 275.644C82.0545 275.644 81.6392 275.751 81.2752 275.966C80.9112 276.171 80.6265 276.465 80.4212 276.848C80.2158 277.221 80.1132 277.651 80.1132 278.136V278.36C80.1132 278.855 80.2252 279.298 80.4492 279.69C80.6825 280.073 81.0045 280.371 81.4152 280.586C81.8258 280.801 82.2972 280.908 82.8292 280.908C83.2678 280.908 83.6645 280.833 84.0192 280.684C84.3832 280.535 84.7005 280.311 84.9712 280.012L85.7132 280.88C85.3772 281.272 84.9572 281.571 84.4532 281.776C83.9585 281.981 83.4032 282.084 82.7872 282.084ZM98.7374 274.51C99.3348 274.51 99.8621 274.627 100.319 274.86C100.777 275.093 101.131 275.448 101.383 275.924C101.645 276.4 101.775 277.002 101.775 277.73V282H100.431V277.884C100.431 277.165 100.263 276.624 99.9274 276.26C99.5914 275.896 99.1201 275.714 98.5134 275.714C98.0654 275.714 97.6734 275.807 97.3374 275.994C97.0014 276.181 96.7401 276.456 96.5534 276.82C96.3761 277.184 96.2874 277.637 96.2874 278.178V282H94.9434V277.884C94.9434 277.165 94.7754 276.624 94.4394 276.26C94.1128 275.896 93.6414 275.714 93.0254 275.714C92.5868 275.714 92.1994 275.807 91.8634 275.994C91.5274 276.181 91.2661 276.456 91.0794 276.82C90.8928 277.184 90.7994 277.637 90.7994 278.178V282H89.4554V274.58H90.7434V276.554L90.5334 276.05C90.7668 275.565 91.1261 275.187 91.6114 274.916C92.0968 274.645 92.6614 274.51 93.3054 274.51C94.0148 274.51 94.6261 274.687 95.1394 275.042C95.6528 275.387 95.9888 275.915 96.1474 276.624L95.6014 276.4C95.8254 275.831 96.2174 275.373 96.7774 275.028C97.3374 274.683 97.9908 274.51 98.7374 274.51ZM108.952 282.084C108.159 282.084 107.459 281.921 106.852 281.594C106.255 281.267 105.788 280.819 105.452 280.25C105.126 279.681 104.962 279.027 104.962 278.29C104.962 277.553 105.121 276.899 105.438 276.33C105.765 275.761 106.208 275.317 106.768 275C107.338 274.673 107.977 274.51 108.686 274.51C109.405 274.51 110.04 274.669 110.59 274.986C111.141 275.303 111.57 275.751 111.878 276.33C112.196 276.899 112.354 277.567 112.354 278.332C112.354 278.388 112.35 278.453 112.34 278.528C112.34 278.603 112.336 278.673 112.326 278.738H106.012V277.772H111.626L111.08 278.108C111.09 277.632 110.992 277.207 110.786 276.834C110.581 276.461 110.296 276.171 109.932 275.966C109.578 275.751 109.162 275.644 108.686 275.644C108.22 275.644 107.804 275.751 107.44 275.966C107.076 276.171 106.792 276.465 106.586 276.848C106.381 277.221 106.278 277.651 106.278 278.136V278.36C106.278 278.855 106.39 279.298 106.614 279.69C106.848 280.073 107.17 280.371 107.58 280.586C107.991 280.801 108.462 280.908 108.994 280.908C109.433 280.908 109.83 280.833 110.184 280.684C110.548 280.535 110.866 280.311 111.136 280.012L111.878 280.88C111.542 281.272 111.122 281.571 110.618 281.776C110.124 281.981 109.568 282.084 108.952 282.084ZM119.583 274.51C120.189 274.51 120.721 274.627 121.179 274.86C121.645 275.093 122.009 275.448 122.271 275.924C122.532 276.4 122.663 277.002 122.663 277.73V282H121.319V277.884C121.319 277.165 121.141 276.624 120.787 276.26C120.441 275.896 119.951 275.714 119.317 275.714C118.841 275.714 118.425 275.807 118.071 275.994C117.716 276.181 117.441 276.456 117.245 276.82C117.058 277.184 116.965 277.637 116.965 278.178V282H115.621V274.58H116.909V276.582L116.699 276.05C116.941 275.565 117.315 275.187 117.819 274.916C118.323 274.645 118.911 274.51 119.583 274.51ZM129.098 282.084C128.351 282.084 127.773 281.883 127.362 281.482C126.951 281.081 126.746 280.507 126.746 279.76V272.956H128.09V279.704C128.09 280.105 128.188 280.413 128.384 280.628C128.589 280.843 128.879 280.95 129.252 280.95C129.672 280.95 130.022 280.833 130.302 280.6L130.722 281.566C130.517 281.743 130.269 281.874 129.98 281.958C129.7 282.042 129.406 282.084 129.098 282.084ZM125.486 275.686V274.58H130.218V275.686H125.486ZM135.875 282.084C135.259 282.084 134.671 282 134.111 281.832C133.56 281.664 133.126 281.459 132.809 281.216L133.369 280.152C133.686 280.367 134.078 280.549 134.545 280.698C135.012 280.847 135.488 280.922 135.973 280.922C136.598 280.922 137.046 280.833 137.317 280.656C137.597 280.479 137.737 280.231 137.737 279.914C137.737 279.681 137.653 279.499 137.485 279.368C137.317 279.237 137.093 279.139 136.813 279.074C136.542 279.009 136.239 278.953 135.903 278.906C135.567 278.85 135.231 278.785 134.895 278.71C134.559 278.626 134.251 278.514 133.971 278.374C133.691 278.225 133.467 278.024 133.299 277.772C133.131 277.511 133.047 277.165 133.047 276.736C133.047 276.288 133.173 275.896 133.425 275.56C133.677 275.224 134.032 274.967 134.489 274.79C134.956 274.603 135.506 274.51 136.141 274.51C136.626 274.51 137.116 274.571 137.611 274.692C138.115 274.804 138.526 274.967 138.843 275.182L138.269 276.246C137.933 276.022 137.583 275.868 137.219 275.784C136.855 275.7 136.491 275.658 136.127 275.658C135.539 275.658 135.1 275.756 134.811 275.952C134.522 276.139 134.377 276.381 134.377 276.68C134.377 276.932 134.461 277.128 134.629 277.268C134.806 277.399 135.03 277.501 135.301 277.576C135.581 277.651 135.889 277.716 136.225 277.772C136.561 277.819 136.897 277.884 137.233 277.968C137.569 278.043 137.872 278.15 138.143 278.29C138.423 278.43 138.647 278.626 138.815 278.878C138.992 279.13 139.081 279.466 139.081 279.886C139.081 280.334 138.95 280.721 138.689 281.048C138.428 281.375 138.059 281.631 137.583 281.818C137.107 281.995 136.538 282.084 135.875 282.084ZM148.111 284.828C147.14 284.828 146.253 284.669 145.451 284.352C144.648 284.035 143.957 283.591 143.379 283.022C142.8 282.453 142.352 281.781 142.035 281.006C141.717 280.222 141.559 279.368 141.559 278.444C141.559 277.52 141.717 276.671 142.035 275.896C142.352 275.121 142.8 274.449 143.379 273.88C143.967 273.311 144.667 272.872 145.479 272.564C146.291 272.256 147.187 272.102 148.167 272.102C149.128 272.102 150.005 272.251 150.799 272.55C151.592 272.849 152.278 273.273 152.857 273.824C153.445 274.365 153.897 275.014 154.215 275.77C154.532 276.517 154.691 277.343 154.691 278.248C154.691 279.041 154.593 279.723 154.397 280.292C154.201 280.861 153.916 281.305 153.543 281.622C153.179 281.93 152.731 282.084 152.199 282.084C151.676 282.084 151.256 281.925 150.939 281.608C150.631 281.291 150.477 280.838 150.477 280.25V279.298L150.547 278.444L150.421 276.834V274.972H151.639V280.012C151.639 280.385 151.713 280.647 151.863 280.796C152.021 280.945 152.213 281.02 152.437 281.02C152.707 281.02 152.941 280.913 153.137 280.698C153.342 280.483 153.491 280.171 153.585 279.76C153.687 279.34 153.739 278.841 153.739 278.262C153.739 277.478 153.603 276.769 153.333 276.134C153.071 275.49 152.689 274.935 152.185 274.468C151.69 274.001 151.102 273.647 150.421 273.404C149.749 273.152 148.997 273.026 148.167 273.026C147.336 273.026 146.575 273.161 145.885 273.432C145.203 273.693 144.615 274.067 144.121 274.552C143.626 275.028 143.243 275.597 142.973 276.26C142.711 276.923 142.581 277.651 142.581 278.444C142.581 279.247 142.711 279.984 142.973 280.656C143.234 281.319 143.607 281.888 144.093 282.364C144.587 282.849 145.171 283.223 145.843 283.484C146.524 283.755 147.28 283.89 148.111 283.89C148.54 283.89 148.993 283.839 149.469 283.736C149.945 283.643 150.393 283.489 150.813 283.274L151.121 284.17C150.691 284.385 150.206 284.548 149.665 284.66C149.123 284.772 148.605 284.828 148.111 284.828ZM147.859 282.084C147.196 282.084 146.608 281.93 146.095 281.622C145.581 281.305 145.175 280.875 144.877 280.334C144.578 279.793 144.429 279.177 144.429 278.486C144.429 277.786 144.578 277.17 144.877 276.638C145.175 276.097 145.581 275.677 146.095 275.378C146.608 275.07 147.196 274.916 147.859 274.916C148.503 274.916 149.067 275.056 149.553 275.336C150.038 275.607 150.416 276.008 150.687 276.54C150.967 277.072 151.107 277.721 151.107 278.486C151.107 279.251 150.971 279.9 150.701 280.432C150.43 280.964 150.052 281.375 149.567 281.664C149.081 281.944 148.512 282.084 147.859 282.084ZM148.055 280.992C148.512 280.992 148.918 280.894 149.273 280.698C149.637 280.493 149.921 280.203 150.127 279.83C150.341 279.447 150.449 278.999 150.449 278.486C150.449 277.963 150.341 277.515 150.127 277.142C149.921 276.769 149.637 276.484 149.273 276.288C148.918 276.092 148.512 275.994 148.055 275.994C147.588 275.994 147.173 276.097 146.809 276.302C146.454 276.498 146.174 276.783 145.969 277.156C145.773 277.529 145.675 277.973 145.675 278.486C145.675 278.99 145.773 279.429 145.969 279.802C146.174 280.175 146.454 280.469 146.809 280.684C147.173 280.889 147.588 280.992 148.055 280.992ZM161.287 284.8C160.606 284.8 159.943 284.702 159.299 284.506C158.664 284.319 158.146 284.049 157.745 283.694L158.389 282.658C158.734 282.957 159.159 283.19 159.663 283.358C160.167 283.535 160.694 283.624 161.245 283.624C162.122 283.624 162.766 283.419 163.177 283.008C163.588 282.597 163.793 281.972 163.793 281.132V279.564L163.933 278.094L163.863 276.61V274.58H165.137V280.992C165.137 282.299 164.81 283.26 164.157 283.876C163.504 284.492 162.547 284.8 161.287 284.8ZM161.119 281.692C160.4 281.692 159.756 281.543 159.187 281.244C158.627 280.936 158.179 280.511 157.843 279.97C157.516 279.429 157.353 278.803 157.353 278.094C157.353 277.375 157.516 276.75 157.843 276.218C158.179 275.677 158.627 275.257 159.187 274.958C159.756 274.659 160.4 274.51 161.119 274.51C161.754 274.51 162.332 274.641 162.855 274.902C163.378 275.154 163.793 275.546 164.101 276.078C164.418 276.61 164.577 277.282 164.577 278.094C164.577 278.897 164.418 279.564 164.101 280.096C163.793 280.628 163.378 281.029 162.855 281.3C162.332 281.561 161.754 281.692 161.119 281.692ZM161.273 280.516C161.768 280.516 162.206 280.413 162.589 280.208C162.972 280.003 163.27 279.718 163.485 279.354C163.709 278.99 163.821 278.57 163.821 278.094C163.821 277.618 163.709 277.198 163.485 276.834C163.27 276.47 162.972 276.19 162.589 275.994C162.206 275.789 161.768 275.686 161.273 275.686C160.778 275.686 160.335 275.789 159.943 275.994C159.56 276.19 159.257 276.47 159.033 276.834C158.818 277.198 158.711 277.618 158.711 278.094C158.711 278.57 158.818 278.99 159.033 279.354C159.257 279.718 159.56 280.003 159.943 280.208C160.335 280.413 160.778 280.516 161.273 280.516ZM172.409 282.084C171.616 282.084 170.916 281.921 170.309 281.594C169.712 281.267 169.245 280.819 168.909 280.25C168.582 279.681 168.419 279.027 168.419 278.29C168.419 277.553 168.578 276.899 168.895 276.33C169.222 275.761 169.665 275.317 170.225 275C170.794 274.673 171.434 274.51 172.143 274.51C172.862 274.51 173.496 274.669 174.047 274.986C174.598 275.303 175.027 275.751 175.335 276.33C175.652 276.899 175.811 277.567 175.811 278.332C175.811 278.388 175.806 278.453 175.797 278.528C175.797 278.603 175.792 278.673 175.783 278.738H169.469V277.772H175.083L174.537 278.108C174.546 277.632 174.448 277.207 174.243 276.834C174.038 276.461 173.753 276.171 173.389 275.966C173.034 275.751 172.619 275.644 172.143 275.644C171.676 275.644 171.261 275.751 170.897 275.966C170.533 276.171 170.248 276.465 170.043 276.848C169.838 277.221 169.735 277.651 169.735 278.136V278.36C169.735 278.855 169.847 279.298 170.071 279.69C170.304 280.073 170.626 280.371 171.037 280.586C171.448 280.801 171.919 280.908 172.451 280.908C172.89 280.908 173.286 280.833 173.641 280.684C174.005 280.535 174.322 280.311 174.593 280.012L175.335 280.88C174.999 281.272 174.579 281.571 174.075 281.776C173.58 281.981 173.025 282.084 172.409 282.084ZM182.311 282.084C181.555 282.084 180.879 281.921 180.281 281.594C179.693 281.267 179.231 280.819 178.895 280.25C178.559 279.681 178.391 279.027 178.391 278.29C178.391 277.553 178.559 276.899 178.895 276.33C179.231 275.761 179.693 275.317 180.281 275C180.879 274.673 181.555 274.51 182.311 274.51C182.983 274.51 183.581 274.645 184.103 274.916C184.635 275.177 185.046 275.569 185.335 276.092L184.313 276.75C184.071 276.386 183.772 276.12 183.417 275.952C183.072 275.775 182.699 275.686 182.297 275.686C181.812 275.686 181.378 275.793 180.995 276.008C180.613 276.223 180.309 276.526 180.085 276.918C179.861 277.301 179.749 277.758 179.749 278.29C179.749 278.822 179.861 279.284 180.085 279.676C180.309 280.068 180.613 280.371 180.995 280.586C181.378 280.801 181.812 280.908 182.297 280.908C182.699 280.908 183.072 280.824 183.417 280.656C183.772 280.479 184.071 280.208 184.313 279.844L185.335 280.488C185.046 281.001 184.635 281.398 184.103 281.678C183.581 281.949 182.983 282.084 182.311 282.084ZM190.603 282.084C189.987 282.084 189.399 282 188.839 281.832C188.289 281.664 187.855 281.459 187.537 281.216L188.097 280.152C188.415 280.367 188.807 280.549 189.273 280.698C189.74 280.847 190.216 280.922 190.701 280.922C191.327 280.922 191.775 280.833 192.045 280.656C192.325 280.479 192.465 280.231 192.465 279.914C192.465 279.681 192.381 279.499 192.213 279.368C192.045 279.237 191.821 279.139 191.541 279.074C191.271 279.009 190.967 278.953 190.631 278.906C190.295 278.85 189.959 278.785 189.623 278.71C189.287 278.626 188.979 278.514 188.699 278.374C188.419 278.225 188.195 278.024 188.027 277.772C187.859 277.511 187.775 277.165 187.775 276.736C187.775 276.288 187.901 275.896 188.153 275.56C188.405 275.224 188.76 274.967 189.217 274.79C189.684 274.603 190.235 274.51 190.869 274.51C191.355 274.51 191.845 274.571 192.339 274.692C192.843 274.804 193.254 274.967 193.571 275.182L192.997 276.246C192.661 276.022 192.311 275.868 191.947 275.784C191.583 275.7 191.219 275.658 190.855 275.658C190.267 275.658 189.829 275.756 189.539 275.952C189.25 276.139 189.105 276.381 189.105 276.68C189.105 276.932 189.189 277.128 189.357 277.268C189.535 277.399 189.759 277.501 190.029 277.576C190.309 277.651 190.617 277.716 190.953 277.772C191.289 277.819 191.625 277.884 191.961 277.968C192.297 278.043 192.601 278.15 192.871 278.29C193.151 278.43 193.375 278.626 193.543 278.878C193.721 279.13 193.809 279.466 193.809 279.886C193.809 280.334 193.679 280.721 193.417 281.048C193.156 281.375 192.787 281.631 192.311 281.818C191.835 281.995 191.266 282.084 190.603 282.084ZM197.981 280.208L198.009 278.486L202.279 274.58H203.903L200.627 277.8L199.899 278.416L197.981 280.208ZM196.889 282V271.612H198.233V282H196.889ZM202.559 282L199.647 278.388L200.515 277.31L204.211 282H202.559ZM210.754 282.084C210.138 282.084 209.574 281.944 209.06 281.664C208.556 281.375 208.15 280.95 207.842 280.39C207.544 279.83 207.394 279.13 207.394 278.29C207.394 277.45 207.539 276.75 207.828 276.19C208.127 275.63 208.528 275.21 209.032 274.93C209.546 274.65 210.12 274.51 210.754 274.51C211.482 274.51 212.126 274.669 212.686 274.986C213.246 275.303 213.69 275.747 214.016 276.316C214.343 276.876 214.506 277.534 214.506 278.29C214.506 279.046 214.343 279.709 214.016 280.278C213.69 280.847 213.246 281.291 212.686 281.608C212.126 281.925 211.482 282.084 210.754 282.084ZM206.82 284.716V274.58H208.108V276.582L208.024 278.304L208.164 280.026V284.716H206.82ZM210.642 280.908C211.118 280.908 211.543 280.801 211.916 280.586C212.299 280.371 212.598 280.068 212.812 279.676C213.036 279.275 213.148 278.813 213.148 278.29C213.148 277.758 213.036 277.301 212.812 276.918C212.598 276.526 212.299 276.223 211.916 276.008C211.543 275.793 211.118 275.686 210.642 275.686C210.176 275.686 209.751 275.793 209.368 276.008C208.995 276.223 208.696 276.526 208.472 276.918C208.258 277.301 208.15 277.758 208.15 278.29C208.15 278.813 208.258 279.275 208.472 279.676C208.696 280.068 208.995 280.371 209.368 280.586C209.751 280.801 210.176 280.908 210.642 280.908ZM217.921 282.084C217.66 282.084 217.436 281.995 217.249 281.818C217.063 281.631 216.969 281.398 216.969 281.118C216.969 280.838 217.063 280.609 217.249 280.432C217.436 280.255 217.66 280.166 217.921 280.166C218.173 280.166 218.388 280.255 218.565 280.432C218.752 280.609 218.845 280.838 218.845 281.118C218.845 281.398 218.752 281.631 218.565 281.818C218.388 281.995 218.173 282.084 217.921 282.084ZM226.914 282V280.432L226.844 280.138V277.464C226.844 276.895 226.676 276.456 226.34 276.148C226.013 275.831 225.518 275.672 224.856 275.672C224.417 275.672 223.988 275.747 223.568 275.896C223.148 276.036 222.793 276.227 222.504 276.47L221.944 275.462C222.326 275.154 222.784 274.921 223.316 274.762C223.857 274.594 224.422 274.51 225.01 274.51C226.027 274.51 226.811 274.757 227.362 275.252C227.912 275.747 228.188 276.503 228.188 277.52V282H226.914ZM224.478 282.084C223.927 282.084 223.442 281.991 223.022 281.804C222.611 281.617 222.294 281.361 222.07 281.034C221.846 280.698 221.734 280.32 221.734 279.9C221.734 279.499 221.827 279.135 222.014 278.808C222.21 278.481 222.522 278.22 222.952 278.024C223.39 277.828 223.978 277.73 224.716 277.73H227.068V278.696H224.772C224.1 278.696 223.647 278.808 223.414 279.032C223.18 279.256 223.064 279.527 223.064 279.844C223.064 280.208 223.208 280.502 223.498 280.726C223.787 280.941 224.188 281.048 224.702 281.048C225.206 281.048 225.644 280.936 226.018 280.712C226.4 280.488 226.676 280.161 226.844 279.732L227.11 280.656C226.932 281.095 226.62 281.445 226.172 281.706C225.724 281.958 225.159 282.084 224.478 282.084ZM235.309 282.084C234.553 282.084 233.876 281.921 233.279 281.594C232.691 281.267 232.229 280.819 231.893 280.25C231.557 279.681 231.389 279.027 231.389 278.29C231.389 277.553 231.557 276.899 231.893 276.33C232.229 275.761 232.691 275.317 233.279 275C233.876 274.673 234.553 274.51 235.309 274.51C235.981 274.51 236.578 274.645 237.101 274.916C237.633 275.177 238.044 275.569 238.333 276.092L237.311 276.75C237.068 276.386 236.77 276.12 236.415 275.952C236.07 275.775 235.696 275.686 235.295 275.686C234.81 275.686 234.376 275.793 233.993 276.008C233.61 276.223 233.307 276.526 233.083 276.918C232.859 277.301 232.747 277.758 232.747 278.29C232.747 278.822 232.859 279.284 233.083 279.676C233.307 280.068 233.61 280.371 233.993 280.586C234.376 280.801 234.81 280.908 235.295 280.908C235.696 280.908 236.07 280.824 236.415 280.656C236.77 280.479 237.068 280.208 237.311 279.844L238.333 280.488C238.044 281.001 237.633 281.398 237.101 281.678C236.578 281.949 235.981 282.084 235.309 282.084ZM242.068 282.084C241.807 282.084 241.583 281.995 241.396 281.818C241.21 281.631 241.116 281.398 241.116 281.118C241.116 280.838 241.21 280.609 241.396 280.432C241.583 280.255 241.807 280.166 242.068 280.166C242.32 280.166 242.535 280.255 242.712 280.432C242.899 280.609 242.992 280.838 242.992 281.118C242.992 281.398 242.899 281.631 242.712 281.818C242.535 281.995 242.32 282.084 242.068 282.084ZM246.318 282V274.58H247.662V282H246.318ZM246.99 273.152C246.729 273.152 246.51 273.068 246.332 272.9C246.164 272.732 246.08 272.527 246.08 272.284C246.08 272.032 246.164 271.822 246.332 271.654C246.51 271.486 246.729 271.402 246.99 271.402C247.252 271.402 247.466 271.486 247.634 271.654C247.812 271.813 247.9 272.013 247.9 272.256C247.9 272.508 247.816 272.723 247.648 272.9C247.48 273.068 247.261 273.152 246.99 273.152ZM255.59 274.51C256.197 274.51 256.729 274.627 257.186 274.86C257.653 275.093 258.017 275.448 258.278 275.924C258.54 276.4 258.67 277.002 258.67 277.73V282H257.326V277.884C257.326 277.165 257.149 276.624 256.794 276.26C256.449 275.896 255.959 275.714 255.324 275.714C254.848 275.714 254.433 275.807 254.078 275.994C253.724 276.181 253.448 276.456 253.252 276.82C253.066 277.184 252.972 277.637 252.972 278.178V282H251.628V274.58H252.916V276.582L252.706 276.05C252.949 275.565 253.322 275.187 253.826 274.916C254.33 274.645 254.918 274.51 255.59 274.51Z" fill="#9E9E9E"/>
</svg>
