<svg width="124" height="124" viewBox="0 0 124 124" fill="none" xmlns="http://www.w3.org/2000/svg">
<g clip-path="url(#clip0_1971_26516)">
<path d="M61.7197 123.579C95.7656 123.579 123.365 95.979 123.365 61.9331C123.365 27.8872 95.7656 0.287598 61.7197 0.287598C27.6739 0.287598 0.0742188 27.8872 0.0742188 61.9331C0.0742188 95.979 27.6739 123.579 61.7197 123.579Z" fill="#FF4500"/>
<path d="M102.838 61.931C102.85 62.7755 102.745 63.6185 102.523 64.4338C102.301 65.249 101.966 66.0304 101.525 66.7516C101.086 67.4729 100.546 68.1294 99.9235 68.7012C99.3009 69.2729 98.6012 69.7538 97.8445 70.1298C97.8615 70.3548 97.8753 70.5814 97.883 70.8079C97.9016 71.2598 97.9016 71.7122 97.883 72.1641C97.8753 72.3907 97.8615 72.6172 97.8445 72.8422C97.8445 86.6508 81.755 97.8703 61.9052 97.8703C42.0553 97.8703 25.9659 86.6508 25.9659 72.8422C25.9489 72.6172 25.935 72.3907 25.9273 72.1641C25.9088 71.7122 25.9088 71.2598 25.9273 70.8079C25.935 70.5814 25.9489 70.3548 25.9659 70.1298C24.7803 69.5849 23.7274 68.7889 22.8799 67.7968C22.0323 66.8048 21.4105 65.6405 21.0573 64.3845C20.7048 63.1278 20.6297 61.8096 20.8372 60.5211C21.0448 59.2326 21.5301 58.0046 22.2594 56.9223C22.9881 55.8401 23.9436 54.9295 25.0594 54.2535C26.1753 53.5776 27.4248 53.1525 28.7214 53.0078C30.0182 52.8624 31.331 53.0008 32.5689 53.4133C33.8069 53.8257 34.9404 54.5025 35.8908 55.3965C37.6551 54.2007 39.5037 53.134 41.4219 52.2048C43.3406 51.2771 45.3241 50.488 47.3568 49.8469C49.3896 49.2058 51.4671 48.7142 53.5707 48.3736C55.6744 48.033 57.8011 47.8465 59.9325 47.8141L64.4943 26.4232C64.5452 26.175 64.6453 25.9408 64.7887 25.7312C64.9304 25.5231 65.1138 25.3444 65.325 25.2072C65.5376 25.07 65.775 24.976 66.0246 24.9298C66.2728 24.8851 66.5286 24.8897 66.7752 24.9437L81.8783 27.9643C83.4025 25.3459 86.6019 24.224 89.4268 25.3151C92.2517 26.4062 93.8668 29.3883 93.235 32.3504C92.6046 35.3124 89.9138 37.3776 86.8901 37.2219C83.8649 37.0662 81.4006 34.736 81.0769 31.7247L67.8848 28.9506L63.8778 48.184C65.983 48.2287 68.0836 48.426 70.1611 48.7727C74.3213 49.4662 78.3596 50.7566 82.1511 52.604C84.0448 53.5256 85.8696 54.5825 87.6114 55.7664C88.8637 54.564 90.4374 53.7499 92.1423 53.4223C93.8473 53.0936 95.6109 53.2654 97.2203 53.917C98.83 54.5683 100.217 55.6715 101.213 57.0933C102.21 58.5153 102.775 60.1954 102.838 61.931ZM41.6608 70.455C41.9721 71.2024 42.4252 71.8821 42.9985 72.4538C43.5703 73.0272 44.2499 73.4802 44.9974 73.7916C45.7455 74.101 46.5472 74.2602 47.3568 74.2601C49.8504 74.2601 52.0974 72.7575 53.0529 70.455C54.0069 68.151 53.4782 65.5002 51.7152 63.7372C49.9521 61.9741 47.3014 61.4455 44.9974 62.3995C42.6949 63.355 41.1923 65.602 41.1923 68.0955C41.1923 68.9046 41.351 69.706 41.6608 70.455ZM76.9683 85.253C77.2842 84.9448 77.4645 84.524 77.4707 84.0833C77.4768 83.641 77.3058 83.2156 76.9975 82.8997C76.6893 82.5837 76.2686 82.4034 75.8278 82.3973C75.3855 82.3911 74.9602 82.5622 74.6042 82.8288C73.6772 83.4937 72.6956 84.0788 71.6698 84.578C70.644 85.0774 69.5779 85.4893 68.4828 85.8093C67.3885 86.1284 66.2681 86.3549 65.1354 86.4859C64.0011 86.6169 62.8591 86.6508 61.7202 86.5892C60.5829 86.64 59.4424 86.5938 58.3128 86.452C57.1829 86.3116 56.0671 86.0744 54.9778 85.7431C53.8866 85.4133 52.8279 84.991 51.8092 84.4824C50.7905 83.9739 49.8165 83.379 48.898 82.7055C48.579 82.4435 48.1736 82.3094 47.7606 82.3295C47.3476 82.3495 46.9577 82.5236 46.6649 82.8149C46.3736 83.1077 46.1994 83.4976 46.1794 83.9107C46.1594 84.3237 46.2935 84.729 46.5555 85.048C47.6389 85.8648 48.7901 86.5861 49.9968 87.2056C51.2035 87.8252 52.4626 88.3383 53.7572 88.7421C55.0517 89.1459 56.3787 89.4372 57.7241 89.6144C59.0695 89.7901 60.4272 89.8502 61.7819 89.7947C63.1366 89.8502 64.4943 89.7901 65.8397 89.6144C68.5344 89.26 71.1482 88.4452 73.567 87.2056C74.7737 86.5861 75.9249 85.8648 77.0083 85.048L76.9683 85.253ZM75.8371 74.7532C76.6724 74.7625 77.5015 74.6007 78.2736 74.2801C79.0457 73.958 79.7438 73.4833 80.3264 72.8838C80.9089 72.2843 81.362 71.5723 81.661 70.791C81.9602 70.0105 82.0971 69.1772 82.0633 68.3421C82.0633 65.8485 80.5606 63.6016 78.2582 62.6461C75.9542 61.6921 73.3034 62.2207 71.5404 63.9838C69.7773 65.7468 69.2487 68.3976 70.2027 70.7016C71.1582 73.004 73.4052 74.5066 75.8987 74.5066L75.8371 74.7532Z" fill="white"/>
</g>
<defs>
<clipPath id="clip0_1971_26516">
<rect width="123.291" height="123.291" fill="white" transform="translate(0.0742188 0.288574)"/>
</clipPath>
</defs>
</svg>
